<svg width="22" height="22" viewBox="0 0 22 22" fill="none" xmlns="http://www.w3.org/2000/svg">
<path fill-rule="evenodd" clip-rule="evenodd" d="M15.2408 6.68294C15.554 6.95404 15.5881 7.42768 15.317 7.74086L10.1233 13.7409C9.98785 13.8973 9.79379 13.9909 9.58703 13.9994C9.38027 14.0079 9.17919 13.9306 9.03137 13.7857L6.72512 11.5264C6.42923 11.2365 6.42436 10.7617 6.71423 10.4658C7.0041 10.1699 7.47895 10.165 7.77483 10.4549L9.51125 12.156L14.1829 6.75914C14.454 6.44596 14.9277 6.41185 15.2408 6.68294Z" fill="#16559F"/>
<path fill-rule="evenodd" clip-rule="evenodd" d="M10.6913 0.566473C10.8875 0.477842 11.1124 0.477842 11.3087 0.566473C15.0375 2.25047 16.7114 2.7885 20.8402 3.52913C21.1802 3.59011 21.4345 3.8754 21.4563 4.22012C22.249 16.7832 12.0535 21.1342 11.2802 21.4457C11.1004 21.5181 10.8996 21.5181 10.7198 21.4457C9.94642 21.1342 -0.249006 16.7832 0.543651 4.22012C0.5654 3.8754 0.819765 3.59011 1.15974 3.52913C5.28859 2.7885 6.96247 2.25047 10.6913 0.566473ZM2.01212 4.89841C1.65848 15.1309 9.3285 19.1754 11 19.9334C12.6715 19.1754 20.3415 15.1309 19.9878 4.89841C16.2567 4.20575 14.4519 3.61914 11 2.07241C7.548 3.61914 5.74328 4.20575 2.01212 4.89841Z" fill="#16559F"/>
</svg>
