<svg width="20" height="21" viewBox="0 0 20 21" fill="none" xmlns="http://www.w3.org/2000/svg">
<path d="M9.9999 2.00439C11.4389 2.00422 12.8558 2.35897 14.1249 3.0372C15.3941 3.71543 16.4764 4.69621 17.276 5.89266C18.0755 7.08911 18.5677 8.46429 18.7088 9.89637C18.8499 11.3285 18.6356 12.7732 18.0849 14.1027C17.5343 15.4322 16.6642 16.6054 15.5518 17.5183C14.4394 18.4312 13.1191 19.0556 11.7077 19.3363C10.2963 19.617 8.83749 19.5453 7.46045 19.1275C6.08342 18.7097 4.83069 17.9587 3.81323 16.9411" stroke="#216869" stroke-width="2" stroke-linecap="round" stroke-linejoin="round"/>
<path d="M7.41089 13.3401L10.0001 10.7501L10.0101 10.7601V5.57764" stroke="#216869" stroke-width="2" stroke-linecap="round" stroke-linejoin="round"/>
<path d="M6.03345 3.89648C6.55121 3.89648 6.97095 3.47675 6.97095 2.95898C6.97095 2.44122 6.55121 2.02148 6.03345 2.02148C5.51568 2.02148 5.09595 2.44122 5.09595 2.95898C5.09595 3.47675 5.51568 3.89648 6.03345 3.89648Z" fill="#216869"/>
<path d="M2.9292 6.5459C3.44697 6.5459 3.8667 6.12617 3.8667 5.6084C3.8667 5.09063 3.44697 4.6709 2.9292 4.6709C2.41143 4.6709 1.9917 5.09063 1.9917 5.6084C1.9917 6.12617 2.41143 6.5459 2.9292 6.5459Z" fill="#216869"/>
<path d="M1.36328 10.3149C1.88105 10.3149 2.30078 9.89521 2.30078 9.37744C2.30078 8.85967 1.88105 8.43994 1.36328 8.43994C0.845514 8.43994 0.425781 8.85967 0.425781 9.37744C0.425781 9.89521 0.845514 10.3149 1.36328 10.3149Z" fill="#216869"/>
<path d="M1.67505 14.3833C2.19282 14.3833 2.61255 13.9636 2.61255 13.4458C2.61255 12.928 2.19282 12.5083 1.67505 12.5083C1.15728 12.5083 0.737549 12.928 0.737549 13.4458C0.737549 13.9636 1.15728 14.3833 1.67505 14.3833Z" fill="#216869"/>
</svg>
