<svg width="24" height="31" viewBox="0 0 24 31" fill="none" xmlns="http://www.w3.org/2000/svg">
<g clip-path="url(#clip0_1044_6981)">
<path fill-rule="evenodd" clip-rule="evenodd" d="M11.2045 14.8295C11.6438 14.3902 12.3562 14.3902 12.7955 14.8295L19.5455 21.5795C19.9848 22.0188 19.9848 22.7312 19.5455 23.1705C19.1062 23.6098 18.3938 23.6098 17.9545 23.1705L12 17.216L6.0455 23.1705C5.60616 23.6098 4.89384 23.6098 4.4545 23.1705C4.01517 22.7312 4.01517 22.0188 4.4545 21.5795L11.2045 14.8295Z" fill="#F7F7F7"/>
<path fill-rule="evenodd" clip-rule="evenodd" d="M11.2045 7.8295C11.6438 7.39017 12.3562 7.39017 12.7955 7.8295L19.5455 14.5795C19.9848 15.0188 19.9848 15.7312 19.5455 16.1705C19.1062 16.6098 18.3938 16.6098 17.9545 16.1705L12 10.216L6.0455 16.1705C5.60616 16.6098 4.89384 16.6098 4.4545 16.1705C4.01517 15.7312 4.01517 15.0188 4.4545 14.5795L11.2045 7.8295Z" fill="#F7F7F7" fill-opacity="0.5"/>
</g>
<defs>
<clipPath id="clip0_1044_6981">
<rect width="24" height="31" fill="white"/>
</clipPath>
</defs>
</svg>
