<svg width="75" height="44" viewBox="0 0 75 44" fill="none" xmlns="http://www.w3.org/2000/svg">
<path d="M9.61035 22.0068C9.61589 21.8132 9.65462 21.6361 9.72656 21.4756C9.7985 21.3151 9.90918 21.1602 10.0586 21.0107L18.376 12.959C18.6139 12.721 18.9072 12.6021 19.2559 12.6021C19.4883 12.6021 19.6986 12.6574 19.8867 12.7681C20.0804 12.8787 20.2326 13.0282 20.3433 13.2163C20.4595 13.4045 20.5176 13.6147 20.5176 13.8472C20.5176 14.1903 20.3875 14.4919 20.1274 14.752L12.6069 21.9985L20.1274 29.2534C20.3875 29.519 20.5176 29.8206 20.5176 30.1582C20.5176 30.3962 20.4595 30.6092 20.3433 30.7974C20.2326 30.9855 20.0804 31.1349 19.8867 31.2456C19.6986 31.3618 19.4883 31.4199 19.2559 31.4199C18.9072 31.4199 18.6139 31.2982 18.376 31.0547L10.0586 23.0029C9.90365 22.8535 9.7902 22.6986 9.71826 22.5381C9.64632 22.3721 9.61035 22.195 9.61035 22.0068Z" fill="black"/>
<path d="M29.5273 28V16.022H34.1094C36.3091 16.022 37.6538 17.1758 37.6538 19.002V19.0186C37.6538 20.2554 36.7407 21.3843 35.5869 21.5918V21.7246C37.2222 21.9321 38.2598 23.0527 38.2598 24.6299V24.6465C38.2598 26.7466 36.749 28 34.2007 28H29.5273ZM33.7939 17.3418H31.0215V21.1851H33.4121C35.2217 21.1851 36.1431 20.5376 36.1431 19.2759V19.2593C36.1431 18.0474 35.2798 17.3418 33.7939 17.3418ZM33.8354 22.4717H31.0215V26.6802H33.9766C35.7778 26.6802 36.7241 25.9497 36.7241 24.5718V24.5552C36.7241 23.1772 35.7446 22.4717 33.8354 22.4717ZM42.5446 28.1577C40.8429 28.1577 39.5563 27.1284 39.5563 25.5015V25.4849C39.5563 23.8911 40.735 22.9697 42.8185 22.8452L45.3835 22.6875V21.874C45.3835 20.77 44.7111 20.1724 43.3747 20.1724C42.3039 20.1724 41.5983 20.5708 41.3659 21.2681L41.3576 21.293H39.9133L39.9216 21.2432C40.154 19.8403 41.5153 18.894 43.4245 18.894C45.6076 18.894 46.8278 20.0146 46.8278 21.874V28H45.3835V26.6802H45.2507C44.6862 27.6348 43.7482 28.1577 42.5446 28.1577ZM41.0339 25.4683C41.0339 26.373 41.8058 26.9043 42.8434 26.9043C44.3127 26.9043 45.3835 25.9414 45.3835 24.6631V23.8496L42.9929 23.999C41.6315 24.082 41.0339 24.5635 41.0339 25.4517V25.4683ZM52.6981 28.1577C50.1913 28.1577 48.5892 26.3398 48.5892 23.501V23.4844C48.5892 20.7036 50.183 18.894 52.6898 18.894C54.8646 18.894 56.1678 20.1475 56.4335 21.7412L56.4418 21.791H55.0057L54.9974 21.7661C54.7733 20.8862 53.9764 20.1724 52.6898 20.1724C51.0795 20.1724 50.0668 21.4673 50.0668 23.4844V23.501C50.0668 25.5596 51.0961 26.8794 52.6898 26.8794C53.8934 26.8794 54.6571 26.3481 54.9891 25.3521L55.0057 25.3022L56.4335 25.2939L56.4169 25.3853C56.0516 27.0039 54.848 28.1577 52.6981 28.1577ZM58.2032 28V15.499H59.6475V22.9614H59.7803L63.6485 19.0518H65.3999L61.4986 22.812L65.6573 28H63.8394L60.4859 23.7915L59.6475 24.605V28H58.2032Z" fill="black"/>
</svg>
