<svg width="101" height="26" viewBox="0 0 101 26" fill="none" xmlns="http://www.w3.org/2000/svg">
<rect width="101" height="26" rx="4" fill="black"/>
<path d="M13.58 13.704C14.052 13.792 14.44 14.028 14.744 14.412C15.048 14.796 15.2 15.236 15.2 15.732C15.2 16.18 15.088 16.576 14.864 16.92C14.648 17.256 14.332 17.52 13.916 17.712C13.5 17.904 13.008 18 12.44 18H8.828V9.624H12.284C12.852 9.624 13.34 9.716 13.748 9.9C14.164 10.084 14.476 10.34 14.684 10.668C14.9 10.996 15.008 11.368 15.008 11.784C15.008 12.272 14.876 12.68 14.612 13.008C14.356 13.336 14.012 13.568 13.58 13.704ZM10.508 13.08H12.044C12.444 13.08 12.752 12.992 12.968 12.816C13.184 12.632 13.292 12.372 13.292 12.036C13.292 11.7 13.184 11.44 12.968 11.256C12.752 11.072 12.444 10.98 12.044 10.98H10.508V13.08ZM12.2 16.632C12.608 16.632 12.924 16.536 13.148 16.344C13.38 16.152 13.496 15.88 13.496 15.528C13.496 15.168 13.376 14.888 13.136 14.688C12.896 14.48 12.572 14.376 12.164 14.376H10.508V16.632H12.2ZM18.2189 16.668H20.9789V18H16.5389V9.624H18.2189V16.668ZM27.1828 16.404H23.8468L23.2948 18H21.5308L24.5428 9.612H26.4988L29.5108 18H27.7348L27.1828 16.404ZM26.7268 15.06L25.5148 11.556L24.3027 15.06H26.7268ZM30.2286 13.8C30.2286 12.976 30.4126 12.24 30.7806 11.592C31.1566 10.936 31.6646 10.428 32.3046 10.068C32.9526 9.7 33.6766 9.516 34.4766 9.516C35.4126 9.516 36.2326 9.756 36.9366 10.236C37.6406 10.716 38.1326 11.38 38.4126 12.228H36.4806C36.2886 11.828 36.0166 11.528 35.6646 11.328C35.3206 11.128 34.9206 11.028 34.4646 11.028C33.9766 11.028 33.5406 11.144 33.1566 11.376C32.7806 11.6 32.4846 11.92 32.2686 12.336C32.0606 12.752 31.9566 13.24 31.9566 13.8C31.9566 14.352 32.0606 14.84 32.2686 15.264C32.4846 15.68 32.7806 16.004 33.1566 16.236C33.5406 16.46 33.9766 16.572 34.4646 16.572C34.9206 16.572 35.3206 16.472 35.6646 16.272C36.0166 16.064 36.2886 15.76 36.4806 15.36H38.4126C38.1326 16.216 37.6406 16.884 36.9366 17.364C36.2406 17.836 35.4206 18.072 34.4766 18.072C33.6766 18.072 32.9526 17.892 32.3046 17.532C31.6646 17.164 31.1566 16.656 30.7806 16.008C30.4126 15.36 30.2286 14.624 30.2286 13.8ZM44.5755 18L41.5275 14.268V18H39.8475V9.624H41.5275V13.38L44.5755 9.624H46.6035L43.1475 13.776L46.6995 18H44.5755ZM55.8359 9.624V10.98H52.3439V13.128H55.0199V14.46H52.3439V18H50.6639V9.624H55.8359ZM61.3472 18L59.4992 14.736H58.7072V18H57.0272V9.624H60.1712C60.8192 9.624 61.3712 9.74 61.8272 9.972C62.2832 10.196 62.6232 10.504 62.8472 10.896C63.0792 11.28 63.1952 11.712 63.1952 12.192C63.1952 12.744 63.0352 13.244 62.7152 13.692C62.3952 14.132 61.9192 14.436 61.2872 14.604L63.2912 18H61.3472ZM58.7072 13.476H60.1112C60.5672 13.476 60.9072 13.368 61.1312 13.152C61.3552 12.928 61.4672 12.62 61.4672 12.228C61.4672 11.844 61.3552 11.548 61.1312 11.34C60.9072 11.124 60.5672 11.016 60.1112 11.016H58.7072V13.476ZM66.3947 9.624V18H64.7147V9.624H66.3947ZM70.9826 9.624C71.8626 9.624 72.6346 9.796 73.2986 10.14C73.9706 10.484 74.4866 10.976 74.8466 11.616C75.2146 12.248 75.3986 12.984 75.3986 13.824C75.3986 14.664 75.2146 15.4 74.8466 16.032C74.4866 16.656 73.9706 17.14 73.2986 17.484C72.6346 17.828 71.8626 18 70.9826 18H68.0546V9.624H70.9826ZM70.9226 16.572C71.8026 16.572 72.4826 16.332 72.9626 15.852C73.4426 15.372 73.6826 14.696 73.6826 13.824C73.6826 12.952 73.4426 12.272 72.9626 11.784C72.4826 11.288 71.8026 11.04 70.9226 11.04H69.7346V16.572H70.9226ZM81.7921 16.404H78.4561L77.9041 18H76.1401L79.1521 9.612H81.1081L84.1201 18H82.3441L81.7921 16.404ZM81.3361 15.06L80.1241 11.556L78.9121 15.06H81.3361ZM91.906 9.624L89.074 15.084V18H87.394V15.084L84.55 9.624H86.446L88.246 13.452L90.034 9.624H91.906Z" fill="#FAFEFF"/>
</svg>
