<svg width="22" height="22" viewBox="0 0 22 22" fill="none" xmlns="http://www.w3.org/2000/svg">
<path fill-rule="evenodd" clip-rule="evenodd" d="M5.75 1.25C5.75 0.835786 5.41421 0.5 5 0.5C4.58579 0.5 4.25 0.835786 4.25 1.25V2H3.5C1.84315 2 0.5 3.34315 0.5 5V6.5V18.5C0.5 20.1569 1.84315 21.5 3.5 21.5H18.5C20.1569 21.5 21.5 20.1569 21.5 18.5V6.5V5C21.5 3.34315 20.1569 2 18.5 2H17.75V1.25C17.75 0.835786 17.4142 0.5 17 0.5C16.5858 0.5 16.25 0.835786 16.25 1.25V2H5.75V1.25ZM20 5.75V5C20 4.17157 19.3284 3.5 18.5 3.5H17H5H3.5C2.67157 3.5 2 4.17157 2 5V5.75H20ZM2 7.25H20V18.5C20 19.3284 19.3284 20 18.5 20H3.5C2.67157 20 2 19.3284 2 18.5V7.25Z" fill="#16559F"/>
</svg>
