<svg width="24" height="24" viewBox="0 0 24 24" fill="none" xmlns="http://www.w3.org/2000/svg">
<path d="M12.8156 17.2641C12.7781 16.8329 12.3984 16.4954 11.9484 16.4954C11.5453 16.4907 11.1938 16.7672 11.0953 17.1563L10.2422 21.3001C10.2141 21.4219 10.2 21.5438 10.2 21.6704C10.2 22.6032 10.9828 23.2547 11.9484 23.2547C12.9187 23.2547 13.6969 22.6079 13.6969 21.6704C13.6969 21.5204 13.6781 21.3704 13.6359 21.2251L12.8156 17.2641Z" fill="#121312" fill-opacity="0.5"/>
<path d="M19.2656 19.1203C19.1766 19.0453 19.0875 18.975 18.9844 18.914L15.7266 16.6359C15.4078 16.4391 15.0703 16.4437 14.8266 16.6828C14.6062 16.8937 14.5641 17.2312 14.7328 17.4891L17.1937 20.7234C17.25 20.8031 17.3109 20.8734 17.3812 20.9437C17.8078 21.4219 18.7547 21.4453 19.275 20.9437C19.7859 20.4328 19.7812 19.5234 19.2656 19.1203Z" fill="#121312" fill-opacity="0.5"/>
<path d="M21.7172 15.7454H18.4172C18.2062 15.7454 18 15.9001 18 16.1298C18 16.3595 18.1406 16.5001 18.3234 16.561L21.4359 17.522C21.8859 17.6251 22.4953 17.222 22.4953 16.7204C22.5 16.0782 22.1437 15.7454 21.7172 15.7454Z" fill="#121312" fill-opacity="0.5"/>
<path d="M6.00937 16.1251C6.00937 15.8907 5.79375 15.7407 5.56406 15.7407H2.26406C1.84687 15.7407 1.5 16.1907 1.5 16.6922C1.5 17.1938 2.09062 17.6204 2.54531 17.5172L5.70469 16.5563C5.91094 16.4954 6.00937 16.3594 6.00937 16.1251Z" fill="#121312" fill-opacity="0.5"/>
<path d="M8.27342 16.6407L5.01562 18.9094C4.91249 18.9657 4.81874 19.036 4.73437 19.111C4.23749 19.575 4.20468 20.3579 4.67343 20.8547C4.69218 20.8782 4.71562 20.8969 4.73437 20.9157C5.26405 21.4172 6.09374 21.4172 6.62811 20.9157C6.69843 20.85 6.75936 20.775 6.81561 20.6954L9.27655 17.4797C9.44061 17.2172 9.41249 16.8938 9.1828 16.6782C8.92967 16.4485 8.54999 16.4297 8.27342 16.6407Z" fill="#121312" fill-opacity="0.5"/>
<path d="M7.96406 14.8547C8.23594 15.061 8.55 15.1594 8.86875 15.1594C9.21562 15.1594 9.5625 15.0375 9.83437 14.8078C10.6969 15.4125 11.7281 15.7406 12.8016 15.7406H12.8063C14.1984 15.7406 15.4969 15.2203 16.4719 14.2688C17.4562 13.3078 18 12.0141 18 10.6266C18 9.71721 17.6813 8.9344 17.3719 8.35315C17.7938 7.60784 18 6.78752 18 5.8594C18 2.82659 15.3703 0.965648 12.9 0.750023C12.2813 0.693773 11.7375 1.15315 11.6812 1.7719C11.6812 1.79065 11.6766 1.8094 11.6766 1.83284C11.6531 2.34377 11.5078 2.81252 11.2734 3.25784C10.6125 2.58752 9.73594 2.27815 8.50312 2.25002C8.00625 2.23127 7.58437 2.60159 7.54219 3.09846L7.5375 3.14534C7.52344 3.73596 7.23281 4.10627 6.86719 4.5844C6.46406 5.1094 6.00469 5.70471 6.00469 6.59534C6.00469 7.42971 6.1875 8.02502 6.63281 8.56409C6.36094 9.04221 6.15938 9.55784 6.07031 10.125C5.67188 12.6891 7.08281 14.1891 7.96406 14.8547ZM12.8016 14.2453C12.0328 14.2453 11.3016 14.011 10.6875 13.5797C11.4609 12.6047 12.6234 11.9766 13.7578 11.3625C14.2266 11.1094 14.6672 10.8703 15.0844 10.6031C15.5531 10.3031 15.9656 9.99377 16.3219 9.66096C16.4438 9.99846 16.5047 10.3172 16.5047 10.6313C16.5 12.6563 14.8781 14.2453 12.8016 14.2453ZM13.1437 2.2969C14.8359 2.59221 16.5 3.8719 16.5 5.86409C16.5 6.88596 16.2375 8.09534 14.2781 9.33284C13.9078 9.56721 13.4859 9.7969 13.0406 10.0406C11.5125 10.8703 9.77812 11.8078 8.86875 13.6594C8.12344 13.0922 7.28906 12.0563 7.55156 10.35C7.74375 9.10315 8.85938 8.05784 10.0359 6.9469C11.3766 5.69065 12.8859 4.27502 13.1437 2.2969ZM7.5 6.59534C7.5 6.22971 7.70156 5.95784 8.05312 5.49846C8.39531 5.05784 8.80312 4.52815 8.96719 3.78284C9.62813 3.85784 10.0406 4.07346 10.3734 4.50471C9.96094 4.9594 9.49219 5.40471 9.00937 5.8594C8.52187 6.31409 8.02969 6.77815 7.58906 7.27034C7.52812 7.0969 7.5 6.88596 7.5 6.59534Z" fill="#121312" fill-opacity="0.5"/>
</svg>
