<svg width="23" height="16" viewBox="0 0 23 16" fill="none" xmlns="http://www.w3.org/2000/svg">
<path d="M16.3754 10.7643C16.0983 10.4442 15.1955 10.177 14.0002 9.99793C12.8049 9.81887 12.3689 9.77246 11.3002 9.77246C10.2314 9.77246 9.74535 9.84934 8.59973 9.99793C7.4541 10.1465 6.59395 10.4109 6.22504 10.7643C5.67145 11.3006 6.48239 11.9025 7.11895 11.9756C7.73582 12.0459 8.9691 12.0201 11.3054 12.0201C13.6416 12.0201 14.8749 12.0459 15.4918 11.9756C16.1274 11.8982 16.8802 11.3381 16.3754 10.7643Z" fill="#16559F"/>
<path d="M19.5207 7.66543C19.518 7.6282 19.5017 7.59326 19.4749 7.5673C19.4481 7.54135 19.4127 7.52621 19.3754 7.52481C18.8218 7.50512 18.2597 7.54449 17.2627 7.8384C16.754 7.9869 16.2764 8.22605 15.8527 8.54434C15.7458 8.62777 15.7838 8.85324 15.9179 8.87715C16.7397 8.97354 17.5664 9.02206 18.3938 9.02246C18.8902 9.02246 19.4025 8.88184 19.4977 8.43934C19.5462 8.1842 19.554 7.92299 19.5207 7.66543Z" fill="#16559F"/>
<path d="M3.06098 7.66543C3.06361 7.6282 3.0799 7.59326 3.10672 7.5673C3.13354 7.54135 3.169 7.52621 3.20629 7.52481C3.75988 7.50512 4.32192 7.54449 5.31895 7.8384C5.82762 7.9869 6.30528 8.22605 6.72895 8.54434C6.83582 8.62777 6.79785 8.85324 6.66379 8.87715C5.84199 8.97354 5.01529 9.02206 4.18785 9.02246C3.69145 9.02246 3.1791 8.88184 3.08395 8.43934C3.03543 8.1842 3.02768 7.92299 3.06098 7.66543Z" fill="#16559F"/>
<path fill-rule="evenodd" clip-rule="evenodd" d="M11.2909 0.772461C10.5145 0.772461 9.4503 0.820719 8.39678 0.958243C7.36222 1.09329 6.25932 1.32375 5.45514 1.72447C4.56296 2.16904 4.01638 2.94541 3.6415 3.62333C3.47242 3.92911 3.32633 4.23798 3.20094 4.50306L3.1852 4.53634C3.13848 4.52723 3.09021 4.52246 3.04082 4.52246H2.29082C1.87661 4.52246 1.54082 4.85825 1.54082 5.27246C1.54082 5.56161 1.70445 5.81254 1.94416 5.93771C1.93461 5.94305 1.92501 5.94841 1.91533 5.95379C1.8588 5.98519 1.79658 6.01901 1.73198 6.05413L1.73189 6.05417L1.73181 6.05421C1.58436 6.13436 1.4245 6.22125 1.29175 6.30151C1.10554 6.41407 0.852747 6.58104 0.674193 6.81806C0.550406 6.98238 0.478499 7.18021 0.433965 7.32247C0.383321 7.48425 0.340035 7.66965 0.302643 7.86372C0.227583 8.2533 0.16689 8.72753 0.123005 9.22024C0.0359913 10.1972 0.00830118 11.3252 0.0889819 12.1001C0.165957 12.8395 0.276621 13.4313 0.369485 13.8427C0.415933 14.0485 0.457979 14.2094 0.489224 14.3214C0.504849 14.3773 0.51778 14.4211 0.52722 14.4521C0.53194 14.4676 0.535788 14.48 0.538665 14.489L0.53987 14.4928C0.540784 14.4957 0.541575 14.4982 0.542238 14.5002L0.543456 14.504L0.543918 14.5054L0.5442 14.5063C0.544239 14.5064 0.544277 14.5065 1.16582 14.3024L0.544281 14.5065C0.635819 14.7852 0.879998 14.9821 1.16582 15.0169V15.0225C1.16582 15.4367 1.50161 15.7725 1.91582 15.7725H4.54082C4.95504 15.7725 5.29082 15.4367 5.29082 15.0225C5.69566 15.0221 5.98942 14.9464 6.26142 14.8762L6.32725 14.8593C6.60752 14.7877 6.95848 14.7029 7.58303 14.6442L7.58365 14.6441C9.03886 14.506 10.4682 14.46 11.2909 14.46C12.1144 14.46 13.5905 14.506 15.044 14.6441L15.0442 14.6441C15.6692 14.7034 16.0224 14.7882 16.3039 14.8598L16.3367 14.8682C16.348 14.8711 16.3594 14.874 16.3707 14.8769C16.6319 14.944 16.9132 15.0163 17.2908 15.0221V15.0225C17.2908 15.4367 17.6266 15.7725 18.0408 15.7725H20.6658C21.08 15.7725 21.4158 15.4367 21.4158 15.0225V15.0168C21.7013 14.9818 21.9451 14.7849 22.0366 14.5065L21.4158 14.3026C22.0366 14.5065 22.0366 14.5064 22.0366 14.5063L22.0367 14.506L22.0374 14.504L22.0386 14.5002C22.0395 14.4973 22.0407 14.4936 22.0422 14.489C22.0436 14.4846 22.0452 14.4794 22.0471 14.4735C22.049 14.4672 22.0512 14.4601 22.0536 14.4521C22.0631 14.4211 22.076 14.3773 22.0916 14.3214C22.1229 14.2094 22.1649 14.0485 22.2114 13.8427C22.3042 13.4313 22.4149 12.8395 22.4919 12.1001C22.5725 11.3251 22.5446 10.197 22.4576 9.22024C22.4137 8.72757 22.3531 8.25348 22.2783 7.86407C22.241 7.67009 22.1979 7.48485 22.1475 7.32327C22.1032 7.18121 22.0317 6.98374 21.9088 6.81963L21.9076 6.81806C21.7288 6.58072 21.4756 6.41387 21.2894 6.30153C21.1568 6.22157 20.9971 6.13496 20.8497 6.05508C20.7849 6.01993 20.7225 5.98608 20.6658 5.95467C20.6559 5.94919 20.6461 5.94373 20.6364 5.93828C20.8767 5.81331 21.0408 5.56205 21.0408 5.27246C21.0408 4.85825 20.705 4.52246 20.2908 4.52246H19.5408C19.4913 4.52246 19.443 4.52726 19.3961 4.5364L19.3812 4.50472C19.2555 4.23902 19.109 3.92946 18.9395 3.62305C18.5645 2.94517 18.0178 2.1687 17.1259 1.72551C16.3232 1.32662 15.2209 1.09581 14.1862 0.960064C13.1326 0.821838 12.0678 0.772461 11.2909 0.772461ZM1.83493 13.5225L1.83268 13.5125C1.7514 13.1524 1.65113 12.6192 1.58092 11.9448C1.51441 11.306 1.53407 10.2855 1.61709 9.35331C1.65823 8.89147 1.71323 8.47101 1.77555 8.14751C1.80686 7.98505 1.83769 7.85932 1.86546 7.7706C1.87421 7.74266 1.88142 7.72246 1.88665 7.70874C1.90978 7.68947 1.96276 7.64865 2.06775 7.58518C2.17146 7.52248 2.27863 7.46432 2.40642 7.39497L2.40651 7.39492L2.40658 7.39489C2.47818 7.35603 2.55626 7.31366 2.64383 7.265C2.82505 7.16432 3.03865 7.0417 3.25367 6.88968L11.2897 6.88969L19.3257 6.88969C19.5417 7.04257 19.7565 7.16564 19.9386 7.26658C20.0266 7.31538 20.105 7.35782 20.1769 7.39672C20.3043 7.4657 20.4111 7.52354 20.5147 7.58599C20.6183 7.6485 20.6711 7.68894 20.6945 7.70833C20.6998 7.72211 20.7069 7.7422 20.7155 7.7698C20.7432 7.85872 20.774 7.98461 20.8052 8.14716C20.8674 8.47083 20.9224 8.89144 20.9635 9.35331C21.0466 10.2856 21.0664 11.3061 20.9999 11.9448C20.9297 12.6192 20.8294 13.1524 20.7482 13.5125L20.7459 13.5225H17.3396C17.1307 13.5225 17.0039 13.4902 16.7103 13.4154L16.6735 13.4061C16.3434 13.3221 15.9107 13.2195 15.1857 13.1508C13.6787 13.0076 12.1548 12.96 11.2909 12.96C10.4262 12.96 8.94937 13.0077 7.44219 13.1508L7.44188 13.1508C6.7168 13.2191 6.28557 13.3218 5.95609 13.4059L5.91946 13.4153C5.62749 13.4899 5.50026 13.5225 5.28808 13.5225H1.83493ZM19.3254 6.8895L3.25367 6.88968C3.27093 6.87748 3.28821 6.86508 3.30548 6.85249C3.36062 6.84154 3.42947 6.82852 3.51277 6.81388C3.79497 6.76429 4.24265 6.69625 4.88456 6.62758C6.16868 6.49021 8.22765 6.35059 11.2908 6.35059C14.354 6.35059 16.413 6.49021 17.6971 6.62758C18.339 6.69625 18.7867 6.76429 19.0689 6.81388C19.1506 6.82824 19.2184 6.84105 19.273 6.85187C19.2905 6.86461 19.3079 6.87715 19.3254 6.8895ZM18.0294 5.15505C18.0283 5.15272 18.0272 5.15039 18.0261 5.14806C17.898 4.87748 17.772 4.6114 17.627 4.34914C17.3023 3.76233 16.9409 3.30857 16.4584 3.06879C15.8867 2.78471 14.9884 2.57817 13.9911 2.44732C13.0126 2.31894 12.014 2.27246 11.2909 2.27246C10.5672 2.27246 9.56898 2.31795 8.59094 2.44562C7.59393 2.57577 6.69621 2.78196 6.12413 3.06702C5.64007 3.30823 5.27844 3.7628 4.95418 4.3492C4.8095 4.61085 4.68393 4.87614 4.55621 5.14595L4.55619 5.146C4.55476 5.14903 4.55332 5.15206 4.55189 5.15509C4.60813 5.14876 4.66583 5.14242 4.72501 5.13609C6.06999 4.99221 8.1829 4.85059 11.2908 4.85059C14.3987 4.85059 16.5117 4.99221 17.8566 5.13609C17.9157 5.14241 17.9733 5.14873 18.0294 5.15505Z" fill="#16559F"/>
</svg>
