<svg width="259" height="193" viewBox="0 0 259 193" fill="none" xmlns="http://www.w3.org/2000/svg">
<g clip-path="url(#clip0_150_10448)">
<path d="M259 169.609H0V169.738H259V169.609Z" fill="#EBEBEB"/>
<path d="M71.3078 173.136H54.1516V173.265H71.3078V173.136Z" fill="#EBEBEB"/>
<path d="M109.759 177.881H88.6506V178.01H109.759V177.881Z" fill="#EBEBEB"/>
<path d="M53.6338 176.254H27.1743V176.384H53.6338V176.254Z" fill="#EBEBEB"/>
<path d="M233.048 174.006H184.802V174.136H233.048V174.006Z" fill="#EBEBEB"/>
<path d="M180.192 174.006H176.913V174.136H180.192V174.006Z" fill="#EBEBEB"/>
<path d="M165.47 176.192H143.595V176.321H165.47V176.192Z" fill="#EBEBEB"/>
<path d="M122.771 146.507H22.7454C21.1137 146.507 19.7876 145.181 19.7876 143.55V2.9576C19.7876 1.326 21.1137 0 22.7454 0H122.771C124.403 0 125.729 1.326 125.729 2.9576V143.55C125.729 145.181 124.403 146.507 122.771 146.507ZM22.7454 0.129492C21.1862 0.129492 19.9171 1.39851 19.9171 2.9576V143.55C19.9171 145.109 21.1862 146.378 22.7454 146.378H122.771C124.33 146.378 125.599 145.109 125.599 143.55V2.9576C125.599 1.39851 124.33 0.129492 122.771 0.129492H22.7454Z" fill="#EBEBEB"/>
<path d="M234.815 146.507H134.789C133.157 146.507 131.831 145.181 131.831 143.55V2.9576C131.831 1.326 133.157 0 134.789 0H234.815C236.446 0 237.772 1.326 237.772 2.9576V143.55C237.772 145.181 236.446 146.507 234.815 146.507ZM134.789 0.129492C133.23 0.129492 131.961 1.39851 131.961 2.9576V143.55C131.961 145.109 133.23 146.378 134.789 146.378H234.815C236.374 146.378 237.643 145.109 237.643 143.55V2.9576C237.643 1.39851 236.374 0.129492 234.815 0.129492H134.789Z" fill="#EBEBEB"/>
<path d="M99.8446 169.608H91.5151V44.571H96.1771L99.8446 169.608Z" fill="#E6E6E6"/>
<path d="M95.4209 48.8857H87.6042C85.2318 48.8857 83.2893 46.9433 83.2893 44.571C83.2893 42.1987 85.2318 40.2563 87.6042 40.2563H95.4209C97.7933 40.2563 99.7358 42.1987 99.7358 44.571C99.7358 46.9433 97.7933 48.8857 95.4209 48.8857Z" fill="#E6E6E6"/>
<path d="M86.8013 49.2639C89.0957 49.2639 90.9557 47.1907 90.9557 44.6333C90.9557 42.0759 89.0957 40.0027 86.8013 40.0027C84.5069 40.0027 82.647 42.0759 82.647 44.6333C82.647 47.1907 84.5069 49.2639 86.8013 49.2639Z" fill="#F5F5F5"/>
<path d="M86.8014 44.6333L51.6965 8.85205L72.3026 40.0285L86.8014 44.6333Z" fill="#F5F5F5"/>
<path d="M86.8014 44.6333L73.3645 92.9183L90.0648 59.4886L86.8014 44.6333Z" fill="#F5F5F5"/>
<path d="M86.8015 44.6332L135.338 32.1243L98.0369 34.3774L86.8015 44.6332Z" fill="#F5F5F5"/>
<path d="M172.686 169.609H165.672V53.8428H169.598L172.686 169.609Z" fill="#E6E6E6"/>
<path d="M168.961 57.4736H162.383C160.383 57.4736 158.751 55.8368 158.751 53.8426C158.751 51.8433 160.388 50.2117 162.383 50.2117H168.961C170.961 50.2117 172.592 51.8484 172.592 53.8426C172.592 55.842 170.956 57.4736 168.961 57.4736Z" fill="#E6E6E6"/>
<path d="M161.704 57.7897C163.635 57.7897 165.201 56.0458 165.201 53.8946C165.201 51.7434 163.635 49.9995 161.704 49.9995C159.773 49.9995 158.208 51.7434 158.208 53.8946C158.208 56.0458 159.773 57.7897 161.704 57.7897Z" fill="#F5F5F5"/>
<path d="M161.704 53.8945L179.28 15.5442L160.963 41.1111L161.704 53.8945Z" fill="#F5F5F5"/>
<path d="M161.704 53.8945L119.705 57.8466L151.007 60.9234L161.704 53.8945Z" fill="#F5F5F5"/>
<path d="M161.704 53.8945L186.133 88.2876L173.147 59.6388L161.704 53.8945Z" fill="#F5F5F5"/>
<path d="M141.445 148.154C141.445 148.154 116.229 135.635 142.678 120.645C169.132 105.655 174.597 132.108 174.597 132.108C174.597 132.108 178.829 107.597 200.694 119.765C217.57 129.155 214.178 140.799 211.748 145.627C214.333 142.084 220.834 136.35 232.965 143.746C249.453 153.795 230.702 169.603 230.702 169.603H131.127C118.43 149.527 141.44 148.154 141.44 148.154H141.445Z" fill="#E6E6E6"/>
<path d="M138.285 141.602C138.285 141.602 169.541 125.255 136.757 105.691C103.973 86.1226 97.1976 120.656 97.1976 120.656C97.1976 120.656 91.9502 88.6555 64.8537 104.542C43.942 116.797 48.143 131.999 51.1577 138.308C47.9513 133.682 39.8964 126.198 24.8589 135.853C4.42378 148.973 27.6664 169.614 27.6664 169.614H151.075C166.806 143.405 138.291 141.607 138.291 141.607L138.285 141.602Z" fill="#F0F0F0"/>
<path d="M62.9941 48.2748C61.5852 45.4363 58.8501 43.4163 56.0477 43.4163C54.2865 43.4163 52.8206 44.2088 51.8623 45.5037C50.9558 44.7682 49.8835 44.3227 48.7957 44.3227C46.8791 44.3227 45.4754 45.6901 45.1387 47.617C44.2477 47.1871 43.2894 46.9229 42.3156 46.8815C40.4042 46.7934 38.8916 47.5807 38.1146 48.8549C37.7572 48.6426 37.348 48.5079 36.9336 48.4872C35.8302 48.4354 35.1154 49.2279 35.3329 50.2534C35.3485 50.3156 35.364 50.3777 35.3796 50.4399H66.3767C66.4492 49.435 64.3565 48.3162 62.989 48.2644L62.9941 48.2748Z" fill="#E6E6E6"/>
<path d="M224.833 38.7182C223.424 35.8797 220.689 33.8596 217.887 33.8596C216.125 33.8596 214.659 34.6521 213.701 35.947C212.795 35.2115 211.722 34.7661 210.635 34.7661C208.718 34.7661 207.314 36.1335 206.978 38.0603C206.087 37.6304 205.128 37.3663 204.154 37.3248C202.243 37.2368 200.73 38.0241 199.953 39.2983C199.596 39.0859 199.187 38.9512 198.772 38.9305C197.669 38.8787 196.954 39.6712 197.172 40.6968C197.187 40.7589 197.203 40.8211 197.218 40.8833H228.216C228.288 39.8784 226.195 38.7596 224.828 38.7078L224.833 38.7182Z" fill="#F5F5F5"/>
<path d="M148.749 78.4775C148.594 78.4619 148.449 78.4516 148.304 78.4516C146.926 76.7733 145.201 75.7063 143.579 75.7063C142.409 75.7063 141.476 76.2657 140.865 77.2084C138.353 73.9556 135.105 71.8423 132.064 71.8423C129.614 71.8423 127.749 73.2149 126.708 75.4629C125.289 74.1887 123.699 73.4221 122.181 73.4221C119.518 73.4221 117.861 75.784 117.83 79.1197C116.504 78.3739 115.105 77.918 113.743 77.8455C111.07 77.6953 109.143 79.0524 108.345 81.2641C107.796 80.8912 107.2 80.6581 106.62 80.627C105.159 80.5441 104.346 81.7665 104.709 83.3981H155.421C154.38 80.9223 151.479 78.7572 148.749 78.4775Z" fill="#F5F5F5"/>
<path d="M162.979 10.7894C162.901 10.779 162.828 10.779 162.756 10.779C162.067 9.93989 161.202 9.40639 160.394 9.40639C159.808 9.40639 159.342 9.68609 159.037 10.1574C157.778 8.53102 156.157 7.47437 154.639 7.47437C153.411 7.47437 152.484 8.16326 151.961 9.28207C151.251 8.64497 150.453 8.26168 149.697 8.26168C148.366 8.26168 147.537 9.44264 147.521 11.1105C146.858 10.7376 146.159 10.5097 145.475 10.4734C144.139 10.3957 143.175 11.0794 142.777 12.1827C142.502 11.9962 142.202 11.8823 141.912 11.8667C141.181 11.8253 140.777 12.4365 140.958 13.2549H166.315C165.797 12.0169 164.341 10.9344 162.979 10.7945V10.7894Z" fill="#E6E6E6"/>
<path d="M129.5 193C184.969 193 229.935 190.375 229.935 187.137C229.935 183.898 184.969 181.273 129.5 181.273C74.0312 181.273 29.0649 183.898 29.0649 187.137C29.0649 190.375 74.0312 193 129.5 193Z" fill="#F5F5F5"/>
<path d="M139.332 145.767C139.332 145.767 139.29 145.767 139.275 145.767H123.377C116.534 145.767 110.987 154.743 110.987 165.817C110.987 176.891 116.534 185.868 123.377 185.868H139.275C139.275 185.868 139.316 185.868 139.332 185.868C146.174 185.868 151.722 176.891 151.722 165.817C151.722 154.743 146.174 145.767 139.332 145.767Z" fill="#16559F"/>
<path opacity="0.2" d="M139.332 145.767C139.332 145.767 139.29 145.767 139.275 145.767H123.377C116.534 145.767 110.987 154.743 110.987 165.817C110.987 176.891 116.534 185.868 123.377 185.868H139.275C139.275 185.868 139.316 185.868 139.332 185.868C146.174 185.868 151.722 176.891 151.722 165.817C151.722 154.743 146.174 145.767 139.332 145.767Z" fill="black"/>
<path d="M67.3088 145.767C67.3088 145.767 67.2674 145.767 67.2518 145.767H51.3544C44.5116 145.767 38.9639 154.743 38.9639 165.817C38.9639 176.891 44.5116 185.868 51.3544 185.868H67.2518C67.2518 185.868 67.2933 185.868 67.3088 185.868C74.1516 185.868 79.6994 176.891 79.6994 165.817C79.6994 154.743 74.1516 145.767 67.3088 145.767Z" fill="#16559F"/>
<path opacity="0.2" d="M67.3088 145.767C67.3088 145.767 67.2674 145.767 67.2518 145.767H51.3544C44.5116 145.767 38.9639 154.743 38.9639 165.817C38.9639 176.891 44.5116 185.868 51.3544 185.868H67.2518C67.2518 185.868 67.2933 185.868 67.3088 185.868C74.1516 185.868 79.6994 176.891 79.6994 165.817C79.6994 154.743 74.1516 145.767 67.3088 145.767Z" fill="black"/>
<path d="M219.585 130.543L223.222 133.667C224.942 135.143 225.693 137.458 225.169 139.665L224.341 143.156L219.591 130.543H219.585Z" fill="#16559F"/>
<path d="M226.179 150.895C225.548 144.052 223.76 137.37 220.886 131.134L219.648 128.446H189.438L205.097 173.509C210.603 172.136 215.711 169.479 219.989 165.755L220.352 165.439C224.522 161.808 226.692 156.401 226.185 150.895H226.179Z" fill="#16559F"/>
<path opacity="0.5" d="M226.179 150.895C225.548 144.052 223.76 137.37 220.886 131.134L219.648 128.446H189.438L205.097 173.509C210.603 172.136 215.711 169.479 219.989 165.755L220.352 165.439C224.522 161.808 226.692 156.401 226.185 150.895H226.179Z" fill="white"/>
<path d="M186.086 185.863C179.244 185.863 173.696 176.886 173.696 165.812C173.696 154.738 179.244 145.761 186.086 145.761H201.984V185.863H186.086Z" fill="#16559F"/>
<path d="M202.041 185.868C208.884 185.868 214.431 176.891 214.431 165.817C214.431 154.744 208.884 145.767 202.041 145.767C195.198 145.767 189.65 154.744 189.65 165.817C189.65 176.891 195.198 185.868 202.041 185.868Z" fill="#16559F"/>
<path opacity="0.2" d="M202.041 178.497C206.841 178.497 210.733 172.82 210.733 165.817C210.733 158.814 206.841 153.137 202.041 153.137C197.24 153.137 193.349 158.814 193.349 165.817C193.349 172.82 197.24 178.497 202.041 178.497Z" fill="black"/>
<path d="M95.6435 173.504L65.8533 125.69C65.8533 125.69 89.4223 101.858 140.917 101.858C185.491 101.858 212.188 116.579 219.653 128.441L201.984 145.761C184.874 145.761 184.983 163.901 182.636 171.525C182.274 172.706 181.196 173.499 179.938 173.499H95.6435" fill="#16559F"/>
<path opacity="0.5" d="M95.6435 173.504L65.8533 125.69C65.8533 125.69 89.4223 101.858 140.917 101.858C185.491 101.858 212.188 116.579 219.653 128.441L201.984 145.761C184.874 145.761 184.983 163.901 182.636 171.525C182.274 172.706 181.196 173.499 179.938 173.499H95.6435" fill="white"/>
<path d="M114.064 185.863C107.221 185.863 101.673 176.886 101.673 165.812C101.673 154.738 107.221 145.761 114.064 145.761H129.961V185.863H114.064Z" fill="#16559F"/>
<path d="M130.018 185.868C136.861 185.868 142.409 176.891 142.409 165.817C142.409 154.744 136.861 145.767 130.018 145.767C123.175 145.767 117.627 154.744 117.627 165.817C117.627 176.891 123.175 185.868 130.018 185.868Z" fill="#16559F"/>
<path opacity="0.2" d="M130.018 178.497C134.818 178.497 138.71 172.82 138.71 165.817C138.71 158.814 134.818 153.137 130.018 153.137C125.217 153.137 121.326 158.814 121.326 165.817C121.326 172.82 125.217 178.497 130.018 178.497Z" fill="black"/>
<path d="M108.205 169.557C109.723 160.601 118.653 145.761 129.956 145.761L140.912 125.69H65.8481C61.0618 125.69 38.6842 133.776 30.5361 141.923C24.8329 147.626 24.2424 153.365 23.569 167.972C23.4343 170.955 26.1745 173.519 29.469 173.519C57.1613 173.53 90.6759 173.628 102.875 173.664C105.568 173.675 107.801 171.955 108.205 169.557Z" fill="#16559F"/>
<path opacity="0.5" d="M108.205 169.557C109.723 160.601 118.653 145.761 129.956 145.761L140.912 125.69H65.8481C61.0618 125.69 38.6842 133.776 30.5361 141.923C24.8329 147.626 24.2424 153.365 23.569 167.972C23.4343 170.955 26.1745 173.519 29.469 173.519C57.1613 173.53 90.6759 173.628 102.875 173.664C105.568 173.675 107.801 171.955 108.205 169.557Z" fill="white"/>
<path opacity="0.3" d="M140.911 101.864C89.7382 101.864 66.3868 125.327 65.8585 125.69H65.8533L117.633 125.695C117.633 125.695 139.896 106.453 154.649 102.356C150.282 102.034 145.698 101.864 140.917 101.864H140.911Z" fill="#16559F"/>
<path opacity="0.7" d="M76.8816 146.171C83.9885 143.482 105.434 135.925 111.282 137.888C117.13 139.851 102.968 146.865 99.399 147.797C95.8352 148.729 93.4886 146.865 88.1481 149.444C82.8075 152.024 68.2776 149.429 76.8764 146.171H76.8816Z" fill="#16559F"/>
<path opacity="0.2" d="M164.859 173.778C164.807 173.778 164.75 173.763 164.703 173.732C164.579 173.649 164.548 173.478 164.631 173.353C164.734 173.198 175.234 157.395 175.234 125.695C175.234 125.545 175.359 125.421 175.509 125.421C175.659 125.421 175.783 125.545 175.783 125.695C175.783 157.581 165.195 173.504 165.087 173.659C165.035 173.737 164.947 173.778 164.859 173.778Z" fill="#16559F"/>
<path opacity="0.2" d="M51.1472 149.315C51.1472 149.315 51.1058 149.315 51.085 149.309L36.8245 146.031C36.6795 145.994 36.5862 145.849 36.6173 145.704C36.6484 145.559 36.7986 145.466 36.9436 145.497L51.1576 148.766L74.6592 146.088C74.8094 146.072 74.9441 146.176 74.9597 146.326C74.9752 146.476 74.8716 146.611 74.7214 146.626L51.1731 149.309C51.1731 149.309 51.1524 149.309 51.142 149.309L51.1472 149.315Z" fill="#16559F"/>
<path opacity="0.2" d="M201.984 146.041C201.911 146.041 201.844 146.015 201.787 145.958C201.683 145.849 201.683 145.679 201.787 145.57C206.77 140.685 209.422 129.28 209.422 122.919C209.422 122.769 209.547 122.645 209.697 122.645C209.847 122.645 209.971 122.769 209.971 122.919C209.971 129.373 207.262 140.97 202.175 145.958C202.124 146.01 202.051 146.036 201.984 146.036V146.041Z" fill="#16559F"/>
<path d="M161.854 131.144H168.956C169.505 131.144 169.956 130.694 169.956 130.145C169.956 129.596 169.505 129.145 168.956 129.145H161.854C161.305 129.145 160.854 129.596 160.854 130.145C160.854 130.694 161.305 131.144 161.854 131.144Z" fill="#16559F"/>
<path d="M193.012 131.144H200.109C200.658 131.144 201.108 130.694 201.108 130.145C201.108 129.596 200.658 129.145 200.109 129.145H193.012C192.463 129.145 192.012 129.596 192.012 130.145C192.012 130.694 192.463 131.144 193.012 131.144Z" fill="#16559F"/>
<path opacity="0.7" d="M36.3843 146.44C34.9183 145.549 32.5252 144.14 29.8109 142.695C28.2569 144.378 27.1276 146.103 26.2988 148.087C27.1173 148.253 28.0548 148.636 29.2203 149.532C32.6806 152.195 41.9476 149.838 36.3843 146.44Z" fill="#16559F"/>
<path opacity="0.3" d="M126.786 125.695H199.145C202.844 125.695 206.48 124.742 209.702 122.924C209.702 122.924 197.995 112.285 174.421 107.701C164.734 105.816 155.55 105.085 152.727 105.267C145.993 108.815 135.675 116.279 126.786 125.695Z" fill="#16559F"/>
<path d="M83.3823 170.189H31.9397C30.7017 170.189 30.0439 168.728 30.8623 167.801L32.1936 166.299C32.4681 165.993 32.8566 165.817 33.271 165.817H82.0562C82.4655 165.817 82.8591 165.993 83.1337 166.299L84.4649 167.801C85.2834 168.728 84.6255 170.189 83.3875 170.189H83.3823Z" fill="#16559F"/>
<path d="M218.337 146.253L215.094 146.88V138.095L218.337 138.722C218.777 138.805 219.104 139.401 219.104 140.1V144.87C219.104 145.575 218.772 146.165 218.337 146.248V146.253Z" fill="#16559F"/>
<path d="M163.734 189.835C161.16 189.835 159.741 189.193 159.741 188.033C159.741 187.044 160.844 186.313 163.118 185.806C165.325 185.308 168.526 185.049 172.38 185.049H213.944C216.467 185.049 218.368 184.314 219.751 182.801C223.496 178.704 222.657 169.474 222.046 162.735C221.839 160.446 221.642 158.286 221.642 156.597C221.642 154.075 221.973 151.858 222.263 149.905C222.652 147.29 222.957 145.228 222.123 144.254C221.574 143.617 220.43 143.312 218.617 143.312V141.675C220.963 141.675 222.471 142.157 223.361 143.187C224.688 144.726 224.33 147.119 223.879 150.149C223.595 152.05 223.273 154.204 223.273 156.603C223.273 158.214 223.465 160.337 223.672 162.59C224.346 170.023 225.19 179.274 220.958 183.91C219.269 185.759 216.912 186.691 213.939 186.691H172.375C165.667 186.691 162.683 187.479 161.694 187.971C162.072 188.085 162.719 188.199 163.729 188.199V189.835H163.734Z" fill="#16559F"/>
<path d="M218.617 139.644V145.332C220.186 145.332 221.461 144.057 221.461 142.488C221.461 140.918 220.186 139.644 218.617 139.644Z" fill="#16559F"/>
<path d="M194.146 57.4634H172.38V188.307H194.146V57.4634Z" fill="#263238"/>
<path d="M200.124 55.8525H174.245V57.4634H200.124V55.8525Z" fill="#263238"/>
<path opacity="0.4" d="M200.124 55.8525H194.151V57.4634H200.124V55.8525Z" fill="black"/>
<path d="M186.853 69.0555H183.191L186.392 63.9846H182.367L179.678 71.1481H183.02L180.984 77.6175L186.853 69.0555Z" fill="white"/>
<path opacity="0.5" d="M186.502 143.376C188.288 141.59 188.288 138.694 186.502 136.908C184.716 135.121 181.82 135.121 180.034 136.908C178.247 138.694 178.247 141.59 180.034 143.376C181.82 145.162 184.716 145.162 186.502 143.376Z" fill="#16559F"/>
<path d="M163.734 189.835C163.284 189.835 162.916 189.467 162.916 189.017C162.916 188.566 163.284 188.198 163.734 188.198C166.371 188.198 168.189 187.546 169.298 186.204C171.846 183.128 170.577 176.492 169.236 169.469C168.345 164.807 167.423 159.985 167.423 155.504C167.423 145.072 173.048 139.323 183.268 139.323C183.719 139.323 184.087 139.691 184.087 140.141C184.087 140.592 183.719 140.96 183.268 140.96C176.788 140.96 169.065 143.482 169.065 155.504C169.065 159.829 169.971 164.574 170.847 169.158C172.261 176.57 173.602 183.573 170.562 187.245C169.122 188.986 166.889 189.835 163.734 189.835Z" fill="#16559F"/>
<path opacity="0.5" d="M191.437 98.9578H175.099V131.973H191.437V98.9578Z" fill="#16559F"/>
<path opacity="0.5" d="M175.099 98.9578V131.973L180.948 103.557L175.099 98.9578Z" fill="#16559F"/>
<path d="M188.334 110.094L188.666 108.483H184.206L183.874 110.094H182.149L178.99 125.436H186.941L190.101 110.094H188.334Z" fill="#16559F"/>
<path opacity="0.4" d="M187.92 115.538L186.293 123.442C186.179 124.002 185.687 124.4 185.117 124.4H181.15C180.689 124.4 180.347 123.981 180.44 123.53L182.066 115.626C182.18 115.067 182.673 114.668 183.242 114.668H187.21C187.671 114.668 188.013 115.087 187.92 115.538Z" fill="white"/>
<path opacity="0.4" d="M175.099 98.9578H191.437V103.557H180.948L175.099 98.9578Z" fill="#263238"/>
<path d="M194.146 188.302H201.979L201.979 57.4581H194.146L194.146 188.302Z" fill="#263238"/>
<path opacity="0.4" d="M194.146 188.302H201.979L201.979 57.4581H194.146L194.146 188.302Z" fill="black"/>
</g>
<defs>
<clipPath id="clip0_150_10448">
<rect width="259" height="193" fill="white"/>
</clipPath>
</defs>
</svg>
