<svg width="22" height="22" viewBox="0 0 22 22" fill="none" xmlns="http://www.w3.org/2000/svg">
<path d="M2.22524 17.5461C2.22524 17.5493 2.22524 17.5554 2.22149 17.5639C2.22289 17.5582 2.22383 17.5522 2.22524 17.5461Z" fill="#16559F"/>
<path d="M20.0124 18.3162C19.8581 18.3129 19.7057 18.2811 19.5629 18.2225L16.9013 17.2789L16.8816 17.2709C16.8236 17.2467 16.7612 17.2346 16.6984 17.2353C16.6404 17.2353 16.5829 17.2458 16.5287 17.2662C16.464 17.2906 15.8813 17.5095 15.2701 17.6773C14.9387 17.7682 13.7851 18.065 12.8593 18.065C10.493 18.065 8.28055 17.1556 6.63008 15.5042C5.82379 14.7028 5.18445 13.7495 4.74907 12.6994C4.3137 11.6493 4.09093 10.5233 4.09368 9.38653C4.09366 8.79421 4.15746 8.20361 4.28399 7.62497C4.69602 5.7209 5.78727 3.98887 7.35664 2.74996C8.9665 1.48717 10.9539 0.80176 12.9999 0.803715C15.4473 0.803715 17.7277 1.74122 19.4218 3.43715C21.0231 5.04356 21.9006 7.15575 21.8935 9.38418C21.8921 11.0401 21.3977 12.658 20.4732 14.0318L20.4643 14.045L20.4296 14.0918C20.4216 14.1026 20.4137 14.1129 20.4062 14.1237L20.3991 14.1364C20.3805 14.1681 20.3636 14.2008 20.3485 14.2343L21.0863 16.8565C21.119 16.9647 21.1366 17.0768 21.1388 17.1898C21.139 17.3378 21.11 17.4843 21.0535 17.6211C20.9969 17.7578 20.914 17.8821 20.8093 17.9867C20.7047 18.0913 20.5804 18.1743 20.4437 18.2309C20.307 18.2874 20.1604 18.3164 20.0124 18.3162Z" fill="#16559F"/>
<path d="M13.4485 19.2439C13.4001 19.1497 13.3319 19.067 13.2487 19.0015C13.1655 18.936 13.0691 18.8891 12.9662 18.8642C12.6952 18.7925 12.3793 18.8047 12.1379 18.7868C9.85852 18.6284 7.71357 17.6501 6.09946 16.0329C4.66449 14.606 3.73191 12.7515 3.44211 10.7487C3.37649 10.2922 3.37649 10.1787 3.37649 10.1787C3.37646 10.0264 3.33005 9.87768 3.24343 9.75237C3.15681 9.62707 3.03408 9.53111 2.89159 9.47727C2.74909 9.42343 2.59358 9.41425 2.44574 9.45096C2.2979 9.48767 2.16474 9.56853 2.06399 9.68278C2.06399 9.68278 1.69461 10.085 1.52024 10.4886C1.03118 11.6154 0.82262 12.844 0.912423 14.069C1.00223 15.2941 1.38772 16.4792 2.03586 17.5226C2.15774 17.7256 2.15774 17.8193 2.13055 18.0303C2.00258 18.6917 1.77852 19.8584 1.6618 20.4636C1.62315 20.6598 1.63753 20.8628 1.70344 21.0517C1.76936 21.2405 1.88443 21.4084 2.0368 21.5379L2.05836 21.5562C2.25993 21.7163 2.50971 21.8035 2.76711 21.8037C2.9119 21.8038 3.05527 21.7753 3.18899 21.7198L5.69727 20.7518C5.78363 20.719 5.87903 20.719 5.96539 20.7518C6.95305 21.1193 7.98102 21.3143 8.95508 21.3143C10.1687 21.3155 11.3677 21.0488 12.4665 20.5334C12.7224 20.4134 13.1227 20.2831 13.3571 20.0122C13.4458 19.9071 13.5017 19.7783 13.518 19.6417C13.5342 19.5052 13.5101 19.3668 13.4485 19.2439Z" fill="#16559F"/>
</svg>
