<svg width="26" height="26" viewBox="0 0 26 26" fill="none" xmlns="http://www.w3.org/2000/svg">
<path d="M23.7238 21.7016H23.6789L23.634 21.696C23.4823 21.6791 23.3306 21.6454 23.1846 21.5836L19.9997 20.4546L19.9773 20.4434C19.9099 20.4153 19.8368 20.3984 19.7582 20.3984C19.6852 20.3984 19.6178 20.4097 19.5504 20.4378C19.4773 20.4658 18.7752 20.7298 18.045 20.932C17.6462 21.0388 16.2644 21.3983 15.1578 21.3983C12.3212 21.3983 9.66999 20.3086 7.69279 18.3314C5.73244 16.371 4.65396 13.7703 4.65396 11.0011C4.65396 10.2934 4.7326 9.58 4.88426 8.88911C5.37856 6.60859 6.68734 4.5359 8.56343 3.04738C10.4564 1.54201 12.8605 0.716309 15.3207 0.716309C18.2528 0.716309 20.9883 1.83972 23.0161 3.87309C24.9371 5.79973 25.9875 8.3274 25.9763 11.0011C25.9763 12.9896 25.3865 14.9162 24.2743 16.5732L24.2462 16.6182C24.2238 16.6462 24.2069 16.6743 24.1844 16.7024C24.1563 16.7474 24.1395 16.7867 24.1283 16.8148L25.0101 19.9547C25.0438 20.0614 25.0607 20.1737 25.0719 20.2861V20.3535C25.0719 21.0949 24.4653 21.7016 23.7238 21.7016ZM20.6401 18.7751L23.0498 19.6289L22.3589 17.163C22.2466 16.753 22.3364 16.2924 22.6341 15.7868L22.6397 15.7756C22.6903 15.697 22.7409 15.6183 22.797 15.5397C23.7014 14.186 24.1788 12.6132 24.1788 10.9899C24.1844 8.79923 23.3194 6.72093 21.741 5.13692C20.0503 3.44619 17.7698 2.51376 15.3207 2.51376C11.136 2.51376 7.47934 5.35599 6.63117 9.27107C6.50759 9.83839 6.4458 10.4226 6.4458 11.0011C6.4458 15.7419 10.3496 19.6008 15.1522 19.6008C15.8544 19.6008 16.8935 19.3874 17.5676 19.202C18.2304 19.0223 18.8876 18.7751 18.9156 18.7639C19.1853 18.6628 19.4661 18.6122 19.7582 18.6122C20.0559 18.6066 20.3536 18.6628 20.6401 18.7751Z" fill="#121312" fill-opacity="0.5"/>
<path d="M3.05317 25.8807C2.74423 25.8807 2.44653 25.7739 2.20499 25.583L2.18814 25.5717C1.8118 25.2572 1.63767 24.7573 1.73316 24.2798C1.89606 23.4429 2.23308 21.6847 2.35665 21.0332C2.35665 21.0332 2.35665 21.0332 2.35665 21.0275C1.41861 19.6345 0.890606 18.0056 0.817584 16.3317C0.744562 14.6522 1.14337 12.9896 1.95784 11.5179C2.19938 11.0854 2.74423 10.9281 3.18236 11.1696C3.61487 11.4112 3.77215 11.956 3.53062 12.3941C2.18814 14.8095 2.3061 17.736 3.85079 20.0333L3.85641 20.0389C4.06424 20.3535 4.26083 20.7298 4.16534 21.1736C4.14287 21.2859 3.88449 22.6172 3.65419 23.8248L6.05267 22.8868C6.48518 22.7183 6.96263 22.7239 7.39514 22.9036C8.41745 23.3024 9.48468 23.5103 10.4733 23.5103C10.4789 23.5103 10.4789 23.5103 10.4845 23.5103C11.9 23.5103 13.2987 23.1339 14.5232 22.4262C14.9501 22.179 15.5005 22.3251 15.7533 22.752C16.0005 23.1789 15.8544 23.7293 15.4275 23.9821C13.9278 24.8527 12.2202 25.3077 10.4901 25.3077C10.4845 25.3077 10.4845 25.3077 10.4789 25.3077C9.26562 25.3077 7.9737 25.055 6.73795 24.5719L6.71548 24.5607L3.57555 25.7908C3.41828 25.8582 3.24976 25.8919 3.07564 25.8919C3.05879 25.8807 3.05879 25.8807 3.05317 25.8807Z" fill="#121312" fill-opacity="0.5"/>
</svg>
