<svg width="23" height="23" viewBox="0 0 23 23" fill="none" xmlns="http://www.w3.org/2000/svg">
<path d="M1.78532 17.8458C1.78532 17.8492 1.78532 17.8556 1.78139 17.8645C1.78287 17.8586 1.78385 17.8522 1.78532 17.8458Z" fill="#216869"/>
<path d="M20.4263 18.6529C20.2646 18.6494 20.1048 18.6161 19.9552 18.5547L17.1659 17.5658L17.1452 17.5574C17.0844 17.5321 17.0191 17.5194 16.9532 17.5201C16.8924 17.5202 16.8322 17.5311 16.7753 17.5525C16.7075 17.5781 16.0969 17.8075 15.4563 17.9833C15.109 18.0786 13.9 18.3896 12.9298 18.3896C10.45 18.3896 8.13129 17.4366 6.4016 15.7059C5.5566 14.8661 4.88658 13.867 4.4303 12.7665C3.97403 11.666 3.74057 10.4859 3.74345 9.2946C3.74343 8.67385 3.81029 8.0549 3.94289 7.44848C4.3747 5.45302 5.51833 3.63785 7.16304 2.33948C8.85016 1.01607 10.9329 0.297761 13.0772 0.299809C15.642 0.299809 18.0319 1.28231 19.8073 3.05965C21.4854 4.74317 22.405 6.95674 22.3977 9.29214C22.3962 11.0275 21.878 12.7231 20.9092 14.1629L20.8999 14.1766L20.8635 14.2258C20.8552 14.2371 20.8468 14.2479 20.8389 14.2592L20.8316 14.2724C20.812 14.3057 20.7943 14.3399 20.7785 14.3751L21.5517 17.1232C21.5859 17.2365 21.6044 17.354 21.6068 17.4724C21.607 17.6275 21.5766 17.7811 21.5173 17.9244C21.458 18.0677 21.3711 18.1979 21.2614 18.3076C21.1518 18.4172 21.0216 18.5042 20.8783 18.5634C20.735 18.6227 20.5814 18.6531 20.4263 18.6529Z" fill="#216869"/>
<path d="M13.5473 19.6251C13.4966 19.5264 13.4251 19.4397 13.3379 19.3711C13.2507 19.3024 13.1497 19.2533 13.0418 19.2272C12.7579 19.152 12.4268 19.1648 12.1738 19.1461C9.785 18.98 7.53709 17.9548 5.8455 16.26C4.34166 14.7646 3.36432 12.8211 3.06061 10.7222C2.99183 10.2437 2.99183 10.1248 2.99183 10.1248C2.9918 9.96517 2.94316 9.80932 2.85238 9.678C2.76161 9.54668 2.63299 9.44612 2.48366 9.38969C2.33432 9.33327 2.17134 9.32365 2.01641 9.36212C1.86147 9.4006 1.72193 9.48534 1.61633 9.60507C1.61633 9.60507 1.22923 10.0266 1.04648 10.4495C0.533952 11.6304 0.315379 12.918 0.409493 14.2019C0.503607 15.4858 0.907602 16.7277 1.58686 17.8212C1.71458 18.0339 1.71458 18.1322 1.68609 18.3532C1.55198 19.0464 1.31716 20.2691 1.19484 20.9033C1.15434 21.109 1.1694 21.3217 1.23848 21.5197C1.30756 21.7176 1.42816 21.8935 1.58784 22.0293L1.61044 22.0484C1.82168 22.2162 2.08345 22.3076 2.35321 22.3078C2.50494 22.3079 2.6552 22.2781 2.79533 22.2199L5.42401 21.2054C5.51452 21.171 5.6145 21.171 5.70501 21.2054C6.74007 21.5906 7.81738 21.7949 8.8382 21.7949C10.1101 21.7961 11.3666 21.5167 12.5182 20.9765C12.7864 20.8508 13.2059 20.7142 13.4515 20.4303C13.5445 20.3201 13.6031 20.1851 13.6201 20.042C13.6372 19.8989 13.6118 19.754 13.5473 19.6251Z" fill="#216869"/>
</svg>
