<svg width="22" height="22" viewBox="0 0 22 22" fill="none" xmlns="http://www.w3.org/2000/svg">
<path d="M15.1766 21.5H11.8438C11.3797 21.5 11 21.1203 11 20.6562V19.3578C11 18.8421 10.7516 18.4953 10.5453 18.289C10.1797 17.9328 9.65469 17.7359 9.09687 17.7499C8.09844 17.7734 7.25 18.6546 7.25 19.6765V20.6562C7.25 21.1203 6.87031 21.5 6.40625 21.5H3.10625C1.67187 21.4953 0.504688 20.3281 0.5 18.8937V15.5937C0.5 15.1296 0.879688 14.7499 1.34375 14.7499H2.64219C3.07344 14.7499 3.49063 14.5671 3.81875 14.2343C4.18906 13.8593 4.4 13.3484 4.39062 12.8328C4.37656 11.839 3.56094 10.9999 2.60469 10.9999H1.34375C0.879688 10.9999 0.5 10.6203 0.5 10.1562V6.85619C0.504688 5.42182 1.67187 4.25463 3.10625 4.24994H6.07344V3.57026C6.07344 3.55151 6.07344 3.53276 6.07344 3.51869C6.10156 1.82651 7.50313 0.471817 9.2 0.499942C10.8641 0.528067 12.2188 1.92494 12.2188 3.60776V4.24994H15.1813C16.5969 4.24994 17.7547 5.40307 17.7547 6.82338V9.78588H18.3969C20.1125 9.78588 21.5047 11.1453 21.5047 12.814C21.5047 14.5296 20.1266 15.9265 18.4344 15.9265H17.75V18.9265C17.75 20.3468 16.5969 21.5 15.1766 21.5ZM2 16.2499V18.8937C2 19.5031 2.50156 20 3.11094 20H5.75V19.6765C5.75 18.7953 6.09219 17.9515 6.71563 17.2999C7.34375 16.6437 8.17813 16.2734 9.05938 16.2499C10.0156 16.2265 10.9391 16.5781 11.5906 17.2156C12.1766 17.7874 12.4953 18.5468 12.4953 19.3531V20H15.1719C15.7625 20 16.2453 19.5171 16.2453 18.9265V15.2703C16.2453 14.8062 16.625 14.4265 17.0891 14.4265H18.425C19.2922 14.4265 19.9953 13.7046 19.9953 12.814C19.9953 11.9703 19.2734 11.2859 18.3875 11.2859H17.0938C16.6297 11.2859 16.25 10.9062 16.25 10.4421V6.82338C16.25 6.23276 15.7672 5.74994 15.1766 5.74994H11.5578C11.0938 5.74994 10.7141 5.37026 10.7141 4.90619V3.60776C10.7141 2.73588 10.0203 2.014 9.17188 1.99994C8.75 1.99525 8.35625 2.14994 8.05156 2.44057C7.75156 2.73119 7.57812 3.12494 7.57344 3.54213V3.57026V4.90619C7.57344 5.37026 7.19375 5.74994 6.72969 5.74994H3.10625C2.49687 5.74994 2 6.25151 2 6.86088V9.49995H2.60469C3.47188 9.49995 4.29219 9.85151 4.92031 10.4937C5.53438 11.1218 5.88125 11.9468 5.89062 12.8093C5.90469 13.7234 5.53906 14.6234 4.8875 15.2843C4.27344 15.9078 3.47656 16.2499 2.64219 16.2499H2Z" fill="#16559F"/>
</svg>
