<svg width="22" height="23" viewBox="0 0 22 23" fill="none" xmlns="http://www.w3.org/2000/svg">
<path d="M10.9995 13.75C12.2422 13.75 13.2495 12.7426 13.2495 11.5C13.2495 10.2574 12.2422 9.25 10.9995 9.25C9.75689 9.25 8.74953 10.2574 8.74953 11.5C8.74953 12.7426 9.75689 13.75 10.9995 13.75Z" fill="#216869"/>
<path d="M21.0491 13.5625L21.027 13.5447L19.5477 12.3845C19.454 12.3104 19.3792 12.2151 19.3295 12.1065C19.2798 11.9979 19.2566 11.879 19.2617 11.7597V11.2178C19.257 11.0992 19.2805 10.9812 19.3303 10.8735C19.3801 10.7658 19.4548 10.6714 19.5481 10.5981L21.027 9.4375L21.0491 9.41969C21.2771 9.22969 21.4302 8.96475 21.4809 8.67225C21.5315 8.37976 21.4765 8.07877 21.3256 7.82312L19.3236 4.35906C19.3213 4.35579 19.3193 4.35235 19.3175 4.34875C19.1658 4.09664 18.9306 3.90562 18.6527 3.80886C18.3749 3.7121 18.0719 3.71571 17.7964 3.81906L17.78 3.82516L16.0409 4.525C15.9312 4.56938 15.8124 4.58704 15.6945 4.57653C15.5766 4.56602 15.4628 4.52763 15.3627 4.46453C15.2089 4.36766 15.0527 4.27609 14.8939 4.18984C14.791 4.13403 14.7026 4.05481 14.6359 3.95856C14.5692 3.86232 14.5261 3.75176 14.51 3.63578L14.248 1.78L14.2423 1.74625C14.1853 1.45881 14.0311 1.19977 13.8055 1.01265C13.58 0.825538 13.2969 0.721757 13.0039 0.71875H8.99516C8.698 0.719701 8.41071 0.825492 8.1839 1.01749C7.95709 1.20948 7.80532 1.47536 7.75532 1.76828L7.7511 1.79453L7.49 3.65406C7.47399 3.7697 7.4312 3.88001 7.36503 3.9762C7.29887 4.07239 7.21117 4.1518 7.10891 4.20813C6.9486 4.29437 6.79203 4.38578 6.64016 4.48094C6.54016 4.54365 6.4267 4.58174 6.30912 4.59209C6.19154 4.60244 6.07317 4.58475 5.96375 4.54047L4.22328 3.83734L4.20688 3.83078C3.931 3.72731 3.62758 3.72384 3.34941 3.82096C3.07123 3.91808 2.83591 4.10965 2.68438 4.36234L2.67828 4.37266L0.673441 7.83906C0.52233 8.09497 0.467177 8.39629 0.517844 8.68913C0.568512 8.98197 0.721696 9.24724 0.950003 9.4375L0.972035 9.45531L2.45141 10.6155C2.54509 10.6896 2.61986 10.7849 2.66957 10.8935C2.71927 11.0021 2.7425 11.121 2.73735 11.2403V11.7822C2.74204 11.9008 2.71853 12.0188 2.66874 12.1265C2.61895 12.2342 2.5443 12.3286 2.45094 12.4019L0.972035 13.5625L0.950003 13.5803C0.721922 13.7703 0.568862 14.0353 0.518195 14.3277C0.467528 14.6202 0.522556 14.9212 0.673441 15.1769L2.67547 18.6409C2.67778 18.6442 2.67981 18.6477 2.68157 18.6512C2.83326 18.9034 3.06847 19.0944 3.34633 19.1911C3.6242 19.2879 3.92718 19.2843 4.20266 19.1809L4.21907 19.1748L5.95672 18.475C6.06649 18.4306 6.18522 18.413 6.30315 18.4235C6.42108 18.434 6.53482 18.4724 6.635 18.5355C6.78875 18.6327 6.945 18.7242 7.10375 18.8102C7.20668 18.866 7.29505 18.9452 7.36174 19.0414C7.42842 19.1377 7.47156 19.2482 7.48766 19.3642L7.74828 21.22L7.75391 21.2537C7.81105 21.5417 7.96571 21.8011 8.19182 21.9882C8.41792 22.1754 8.70165 22.2789 8.99516 22.2812H13.0039C13.3011 22.2803 13.5884 22.1745 13.8152 21.9825C14.042 21.7905 14.1937 21.5246 14.2438 21.2317L14.248 21.2055L14.5091 19.3459C14.5253 19.2301 14.5685 19.1196 14.6351 19.0234C14.7016 18.9272 14.7898 18.8479 14.8925 18.7919C15.0528 18.7056 15.2094 18.6142 15.3613 18.5191C15.4613 18.4563 15.5747 18.4183 15.6923 18.4079C15.8099 18.3976 15.9282 18.4153 16.0377 18.4595L17.7781 19.1603L17.7945 19.1669C18.0704 19.2705 18.3739 19.2741 18.6521 19.177C18.9303 19.0798 19.1656 18.8881 19.317 18.6353C19.3189 18.6318 19.3209 18.6283 19.3231 18.625L21.3252 15.1614C21.4765 14.9055 21.5319 14.6041 21.4813 14.3112C21.4307 14.0182 21.2775 13.7528 21.0491 13.5625ZM14.7453 11.6763C14.7112 12.4021 14.4669 13.1025 14.0421 13.6921C13.6173 14.2817 13.0304 14.7352 12.3526 14.9974C11.6749 15.2597 10.9356 15.3193 10.2245 15.1692C9.51353 15.019 8.86147 14.6655 8.34765 14.1516C7.83382 13.6377 7.48038 12.9856 7.3303 12.2746C7.18022 11.5635 7.23996 10.8242 7.50227 10.1465C7.76458 9.46881 8.21814 8.88192 8.80781 8.45721C9.39748 8.0325 10.0979 7.78827 10.8238 7.75422C11.3449 7.73127 11.8651 7.81702 12.3513 8.00601C12.8375 8.195 13.2791 8.48309 13.6479 8.85197C14.0167 9.22085 14.3048 9.66244 14.4937 10.1487C14.6826 10.6349 14.7683 11.1551 14.7453 11.6763Z" fill="#216869"/>
</svg>
