<svg width="23" height="18" viewBox="0 0 23 18" fill="none" xmlns="http://www.w3.org/2000/svg">
<path d="M15.1579 8.99253C14.1874 8.99253 13.2545 8.54702 12.5195 7.74317C11.8081 6.95868 11.37 5.90786 11.2946 4.78924C11.2145 3.59798 11.5679 2.49874 12.2887 1.69972C13.0095 0.905552 14.0272 0.469727 15.1579 0.469727C16.2792 0.469727 17.2969 0.910394 18.0177 1.70456C18.748 2.50842 19.1013 3.60283 19.0165 4.7844C18.9364 5.90301 18.503 6.95384 17.7916 7.73832C17.0613 8.54702 16.1285 8.99253 15.1579 8.99253ZM15.1579 2.01933C14.4512 2.01933 13.8246 2.28082 13.3959 2.75539C12.953 3.24448 12.7504 3.9079 12.8022 4.67786C12.8541 5.44298 13.1462 6.15967 13.6267 6.6875C14.0696 7.17659 14.6161 7.44293 15.1579 7.44293C15.7044 7.44293 16.2462 7.17175 16.6891 6.6875C17.1697 6.15967 17.4618 5.44782 17.5136 4.67786C17.5654 3.93212 17.3534 3.24932 16.9105 2.76507C16.4818 2.28082 15.8552 2.01933 15.1579 2.01933Z" fill="#16559F"/>
<path d="M21.3675 17.5154H8.94835C8.53846 17.5154 8.16155 17.3266 7.91185 16.9973C7.65273 16.6535 7.5585 16.1886 7.66215 15.7479C8.0579 14.1111 9.04258 12.7552 10.5031 11.8206C11.7987 10.9926 13.4524 10.5374 15.1532 10.5374C16.887 10.5374 18.4983 10.9732 19.8033 11.8013C21.2685 12.7262 22.2532 14.0918 22.649 15.7479C22.7526 16.1886 22.6584 16.6535 22.3993 16.9973C22.1543 17.3266 21.7774 17.5154 21.3675 17.5154ZM9.16978 15.9658H21.1508C20.3734 13.1087 17.4571 12.0918 15.1579 12.0918C12.8682 12.0918 9.95658 13.1087 9.16978 15.9658Z" fill="#16559F"/>
<path d="M6.25344 9.18613C4.59504 9.18613 3.13924 7.60264 3.00261 5.65595C2.93194 4.65839 3.23346 3.73832 3.84594 3.06037C4.4537 2.3921 5.30646 2.02407 6.24873 2.02407C7.18629 2.02407 8.03904 2.39694 8.64681 3.07005C9.264 3.75285 9.56552 4.67292 9.49485 5.66079C9.36765 7.60263 7.90713 9.18613 6.25344 9.18613ZM6.25344 3.56883C5.73519 3.56883 5.27348 3.76253 4.95311 4.11603C4.62331 4.47922 4.46784 4.97316 4.51024 5.54457C4.59033 6.67772 5.38655 7.63653 6.25344 7.63653C7.12033 7.63653 7.92126 6.67772 7.99664 5.54457C8.03433 4.98768 7.87415 4.48406 7.54906 4.12088C7.22869 3.76253 6.76698 3.56883 6.25344 3.56883Z" fill="#16559F"/>
<path d="M6.58325 15.9656H1.2924C0.9202 15.9656 0.576271 15.7913 0.345415 15.4959C0.109847 15.186 0.0250427 14.7599 0.11927 14.3628C0.444353 13.0117 1.25471 11.8979 2.4561 11.1328C3.51616 10.4597 4.8636 10.0868 6.24874 10.0868C7.436 10.0868 8.44895 10.2902 9.3441 10.7115C9.72101 10.8907 9.89062 11.3507 9.7163 11.7381C9.54198 12.1255 9.0944 12.2999 8.71749 12.1207C8.02492 11.7963 7.21928 11.6364 6.25345 11.6364C4.53381 11.6364 2.36187 12.3725 1.67402 14.4209H6.58325C6.99785 14.4209 7.33707 14.7695 7.33707 15.1957C7.33707 15.6218 6.99785 15.9656 6.58325 15.9656Z" fill="#16559F"/>
</svg>
