<svg width="19" height="18" viewBox="0 0 19 18" fill="none" xmlns="http://www.w3.org/2000/svg">
<path d="M16.6836 14.8853H16.6524L16.6211 14.8813C16.5156 14.8696 16.4102 14.8462 16.3086 14.8032L14.0938 14.0181L14.0781 14.0103C14.0313 13.9907 13.9805 13.979 13.9258 13.979C13.875 13.979 13.8281 13.9868 13.7813 14.0063C13.7305 14.0259 13.2422 14.2095 12.7344 14.3501C12.457 14.4243 11.4961 14.6743 10.7266 14.6743C8.75392 14.6743 6.91017 13.9165 5.53517 12.5415C4.17189 11.1782 3.42189 9.36963 3.42189 7.44385C3.42189 6.95166 3.47657 6.45557 3.58204 5.9751C3.92579 4.38916 4.83595 2.94775 6.14064 1.9126C7.45704 0.865723 9.12892 0.291504 10.8399 0.291504C12.8789 0.291504 14.7813 1.07275 16.1914 2.48682C17.5274 3.82666 18.2578 5.58447 18.25 7.44385C18.25 8.82666 17.8399 10.1665 17.0664 11.3188L17.0469 11.3501C17.0313 11.3696 17.0195 11.3892 17.0039 11.4087C16.9844 11.4399 16.9727 11.4673 16.9649 11.4868L17.5781 13.6704C17.6016 13.7446 17.6133 13.8228 17.6211 13.9009V13.9478C17.6211 14.4634 17.1992 14.8853 16.6836 14.8853ZM14.5391 12.8501L16.2149 13.4438L15.7344 11.729C15.6563 11.4438 15.7188 11.1235 15.9258 10.772L15.9297 10.7642C15.9649 10.7095 16 10.6548 16.0391 10.6001C16.668 9.65869 17 8.56494 17 7.43603C17.0039 5.9126 16.4024 4.46729 15.3047 3.36572C14.1289 2.18994 12.543 1.5415 10.8399 1.5415C7.9297 1.5415 5.38673 3.51807 4.79689 6.24072C4.71095 6.63525 4.66798 7.0415 4.66798 7.44385C4.66798 10.7407 7.38282 13.4243 10.7227 13.4243C11.2109 13.4243 11.9336 13.2759 12.4024 13.147C12.8633 13.022 13.3203 12.8501 13.3399 12.8423C13.5274 12.772 13.7227 12.7368 13.9258 12.7368C14.1328 12.7329 14.3399 12.772 14.5391 12.8501Z" fill="#121312"/>
<path d="M2.30865 17.7915C2.0938 17.7915 1.88677 17.7173 1.7188 17.5845L1.70708 17.5767C1.44537 17.3579 1.32427 17.0103 1.39068 16.6782C1.50396 16.0962 1.73833 14.8735 1.82427 14.4204C1.82427 14.4204 1.82427 14.4204 1.82427 14.4165C1.17193 13.4478 0.804741 12.3149 0.753959 11.1509C0.703178 9.98291 0.980522 8.82666 1.54693 7.80322C1.7149 7.50244 2.0938 7.39307 2.39849 7.56104C2.69927 7.729 2.80865 8.10791 2.64068 8.4126C1.70708 10.0923 1.78912 12.1274 2.86333 13.7251L2.86724 13.729C3.01177 13.9478 3.14849 14.2095 3.08208 14.5181C3.06646 14.5962 2.88677 15.522 2.72662 16.3618L4.39458 15.7095C4.69537 15.5923 5.0274 15.5962 5.32818 15.7212C6.03912 15.9985 6.7813 16.1431 7.4688 16.1431C7.47271 16.1431 7.47271 16.1431 7.47662 16.1431C8.46099 16.1431 9.43365 15.8813 10.2852 15.3892C10.5821 15.2173 10.9649 15.3188 11.1407 15.6157C11.3126 15.9126 11.211 16.2954 10.9141 16.4712C9.87115 17.0767 8.68365 17.3931 7.48052 17.3931C7.47662 17.3931 7.47662 17.3931 7.47271 17.3931C6.62896 17.3931 5.73052 17.2173 4.87115 16.8813L4.85552 16.8735L2.67193 17.729C2.56255 17.7759 2.44537 17.7993 2.32427 17.7993C2.31255 17.7915 2.31255 17.7915 2.30865 17.7915Z" fill="#121312"/>
</svg>
