<svg width="24" height="24" viewBox="0 0 24 24" fill="none" xmlns="http://www.w3.org/2000/svg">
<g clip-path="url(#clip0_481_3107)">
<path fill-rule="evenodd" clip-rule="evenodd" d="M14.1782 1.02234C14.353 0.847589 14.5901 0.74942 14.8373 0.74942C15.0845 0.74942 15.3216 0.847589 15.4964 1.02234L17.5628 3.09107C17.5634 3.09168 17.564 3.09229 17.5646 3.0929C17.7304 3.25813 17.8279 3.47975 17.8377 3.71365C17.8475 3.94842 17.7682 4.17823 17.6157 4.35701L17.615 4.3578L17.6144 4.35858C17.3783 4.6338 17.2548 4.988 17.2687 5.35034C17.2825 5.71246 17.4324 6.05603 17.6885 6.31242C17.9453 6.56798 18.289 6.71729 18.651 6.73054C19.0134 6.74379 19.3674 6.61979 19.6422 6.38332L19.6434 6.38228L19.6446 6.38124C19.8234 6.22875 20.0532 6.14947 20.288 6.15929C20.522 6.16907 20.7438 6.26669 20.909 6.43263C20.9095 6.43315 20.9101 6.43367 20.9106 6.43419L22.977 8.50056C23.1517 8.67539 23.2499 8.91246 23.2499 9.15967C23.2499 9.40688 23.1517 9.64396 22.977 9.81878L19.6797 13.116C19.6797 13.116 19.6797 13.1161 19.6796 13.1161C19.4759 13.3199 19.2274 13.4735 18.954 13.5647C18.9012 13.5824 18.8533 13.6122 18.814 13.6516C18.7746 13.6912 18.7449 13.7393 18.7274 13.7923L18.7272 13.793L18.7269 13.7936C18.6358 14.0672 18.4823 14.3159 18.2786 14.52L9.82171 22.9764C9.64688 23.1511 9.40981 23.2493 9.1626 23.2493C8.91539 23.2493 8.67831 23.1511 8.50348 22.9764L6.43711 20.91C6.43659 20.9095 6.43607 20.909 6.43556 20.9085C6.26961 20.7432 6.172 20.5215 6.16221 20.2874C6.15239 20.0526 6.23167 19.8228 6.38416 19.6441L6.38499 19.6431L6.38581 19.6421C6.62211 19.367 6.74576 19.0127 6.73202 18.6503C6.71827 18.2879 6.56815 17.9441 6.3117 17.6876C6.05524 17.4312 5.71139 17.281 5.34897 17.2673C4.98655 17.2535 4.63231 17.3772 4.35718 17.6135L4.35621 17.6143L4.35525 17.6151C4.17647 17.7676 3.94666 17.8469 3.71189 17.8371C3.47806 17.8273 3.25652 17.7299 3.09131 17.5642C3.09064 17.5635 3.08997 17.5629 3.08931 17.5622L1.02292 15.4958C0.848169 15.321 0.75 15.0839 0.75 14.8367C0.75 14.5895 0.848169 14.3524 1.02292 14.1776L9.47934 5.72305C9.68319 5.51959 9.93148 5.36623 10.2047 5.27503M18.3932 12.1729C18.4212 12.162 18.4495 12.1518 18.4781 12.1422L18.4792 12.1419C18.5318 12.1243 18.5797 12.0948 18.6189 12.0555L18.619 12.0554L21.5147 9.15967L20.1856 7.83053C19.7075 8.1097 19.1567 8.25004 18.5962 8.22953C17.8562 8.20246 17.1537 7.89706 16.6292 7.37439L16.6286 7.37387L16.6281 7.37335C16.1046 6.84962 15.798 6.14754 15.7698 5.40753C15.7484 4.84654 15.8881 4.2951 16.167 3.81623L14.8371 2.48478L11.9414 5.38039C11.9022 5.41958 11.8727 5.46737 11.8552 5.51995C11.8457 5.54841 11.8356 5.57661 11.8248 5.60451L12.2725 6.05215C12.5654 6.34505 12.5654 6.81992 12.2725 7.11281C11.9796 7.40571 11.5047 7.40571 11.2118 7.11281L10.7657 6.66672C10.7377 6.67763 10.7094 6.68788 10.6808 6.69744L10.6803 6.69761L10.6798 6.69777C10.6268 6.71544 10.5787 6.74516 10.5391 6.78461C10.5391 6.78465 10.539 6.78469 10.539 6.78473L2.48518 14.8367L3.81453 16.1661C4.29332 15.887 4.84477 15.7471 5.40581 15.7684C6.14612 15.7964 6.8485 16.1031 7.37236 16.6269C7.89621 17.1508 8.20287 17.8532 8.23094 18.5935C8.25221 19.1545 8.1123 19.706 7.8332 20.1848L9.16261 21.5142L17.2169 13.4603C17.2562 13.4209 17.2859 13.373 17.3036 13.3202C17.3131 13.2916 17.3233 13.2632 17.3341 13.2351L16.8865 12.7875C16.5936 12.4946 16.5936 12.0197 16.8865 11.7268C17.1794 11.4339 17.6543 11.4339 17.9471 11.7268L18.3932 12.1729ZM10.2047 5.27503C10.2575 5.25732 10.3056 5.22752 10.345 5.18801C10.3844 5.1485 10.414 5.10035 10.4315 5.04739L10.4318 5.04675L10.432 5.0461C10.5231 4.77237 10.6768 4.52365 10.8809 4.31965C10.8809 4.31963 10.8809 4.31961 10.8809 4.31958L14.1782 1.02234M12.7589 7.60021C13.0517 7.30718 13.5265 7.30697 13.8196 7.59973L14.3357 8.11535C14.6287 8.40811 14.6289 8.88299 14.3361 9.17601C14.0434 9.46904 13.5685 9.46925 13.2755 9.17649L12.7594 8.66087C12.4664 8.36811 12.4661 7.89323 12.7589 7.60021ZM14.8233 9.66316C15.1163 9.3704 15.5912 9.37062 15.8839 9.66364L16.3996 10.1797C16.6923 10.4728 16.6921 10.9476 16.3991 11.2404C16.1061 11.5332 15.6312 11.5329 15.3384 11.2399L14.8228 10.7238C14.53 10.4308 14.5303 9.95592 14.8233 9.66316Z" fill="#121312" fill-opacity="0.5"/>
</g>
<defs>
<clipPath id="clip0_481_3107">
<rect width="24" height="24" fill="white"/>
</clipPath>
</defs>
</svg>
