<svg width="16" height="20" viewBox="0 0 16 20" fill="none" xmlns="http://www.w3.org/2000/svg">
<path fill-rule="evenodd" clip-rule="evenodd" d="M0.71967 3.78033C0.426777 3.48744 0.426777 3.01256 0.71967 2.71967L2.96967 0.469669C3.26256 0.176777 3.73744 0.176777 4.03033 0.469669L6.28033 2.71967C6.57322 3.01256 6.57322 3.48744 6.28033 3.78033C5.98744 4.07322 5.51256 4.07322 5.21967 3.78033L4.25 2.81066V4.99327C4.25001 5.48711 4.37193 5.97332 4.60495 6.40873C4.83796 6.84415 5.17486 7.21531 5.58575 7.48927L6.16591 7.87589C6.5106 8.10558 6.60382 8.57122 6.37412 8.91591C6.14442 9.2606 5.67878 9.35382 5.33409 9.12411L4.75362 8.73729C4.13729 8.32635 3.63194 7.76962 3.28242 7.11649C2.9329 6.46337 2.75001 5.73406 2.75 4.99328V2.81066L1.78033 3.78033C1.48744 4.07322 1.01256 4.07322 0.71967 3.78033ZM3.5 19.75C3.08579 19.75 2.75 19.4142 2.75 19L2.75 15.0067C2.75001 14.266 2.9329 13.5366 3.28242 12.8835C3.63194 12.2304 4.13729 11.6736 4.75362 11.2627L7.56953 9.38559C7.57888 9.37904 7.58836 9.37273 7.59796 9.36664L10.4142 7.48927C10.8251 7.21531 11.162 6.84415 11.3951 6.40873C11.6281 5.97332 11.75 5.48711 11.75 4.99327V2.81066L10.7803 3.78033C10.4874 4.07322 10.0126 4.07322 9.71967 3.78033C9.42678 3.48744 9.42678 3.01256 9.71967 2.71967L11.9697 0.469669C12.2626 0.176777 12.7374 0.176777 13.0303 0.469669L15.2803 2.71967C15.5732 3.01256 15.5732 3.48744 15.2803 3.78033C14.9874 4.07322 14.5126 4.07322 14.2197 3.78033L13.25 2.81066V4.99329C13.25 5.73406 13.0671 6.46337 12.7176 7.11649C12.3681 7.76962 11.8627 8.32635 11.2464 8.73729L11.2463 8.73734L9.35216 10L11.2463 11.2627L11.2464 11.2627C11.8627 11.6736 12.3681 12.2304 12.7176 12.8835C13.0671 13.5366 13.25 14.2659 13.25 15.0067V19C13.25 19.4142 12.9142 19.75 12.5 19.75C12.0858 19.75 11.75 19.4142 11.75 19V15.0067C11.75 14.5129 11.6281 14.0267 11.3951 13.5913C11.162 13.1559 10.8251 12.7847 10.4142 12.5107L8 10.9014L5.58575 12.5107C5.58573 12.5107 5.58571 12.5108 5.58569 12.5108C5.17483 12.7847 4.83795 13.1559 4.60495 13.5913C4.37193 14.0267 4.25001 14.5129 4.25 15.0067C4.25 15.0067 4.25 15.0067 4.25 15.0067V19C4.25 19.4142 3.91421 19.75 3.5 19.75Z" fill="#16559F"/>
</svg>
