<svg width="22" height="20" viewBox="0 0 22 20" fill="none" xmlns="http://www.w3.org/2000/svg">
<path fill-rule="evenodd" clip-rule="evenodd" d="M2.17067 0.54248C2.09044 0.457481 1.93909 0.324124 1.71063 0.271668C1.44171 0.209923 1.19202 0.28795 1.0132 0.42495C0.861118 0.541459 0.777063 0.68511 0.732499 0.77573C0.683784 0.87479 0.650665 0.976349 0.62686 1.06642C0.536662 1.40771 0.502049 1.89492 0.501001 2.43676C0.498843 3.55188 0.64107 5.15203 0.968921 6.91453C1.61655 10.3961 3.03295 14.7536 5.718 17.2065L5.71825 17.2067C7.69274 19.0089 10.206 19.8128 12.4958 19.7244C14.7035 19.6392 16.7983 18.7124 17.9394 16.9284C18.8196 17.1577 19.7324 17.3452 20.6833 17.4915C21.0927 17.5545 21.4756 17.2737 21.5386 16.8643C21.6016 16.4549 21.3207 16.072 20.9113 16.009C20.1186 15.887 19.3543 15.735 18.6146 15.5522C19.8814 12.1021 18.4626 7.96744 14.496 5.40558C12.5714 4.16236 10.5947 3.83198 8.79609 3.53135C8.49984 3.48183 8.20838 3.43312 7.92281 3.38127C5.88859 3.01193 4.00167 2.48112 2.1708 0.54261L2.17067 0.54248ZM17.1632 15.1445C18.2202 12.4111 17.1983 8.93658 13.6821 6.6656L13.6821 6.66556C12.0372 5.60302 10.3906 5.32423 8.58958 5.01928C8.28274 4.96733 7.97141 4.91462 7.65485 4.85714C5.80097 4.52054 3.87213 4.02161 2.00099 2.44493C1.99951 3.44973 2.12984 4.95332 2.44362 6.64021C3.08035 10.0632 4.42715 13.9954 6.72945 16.0988L6.72953 16.0989L6.7297 16.099C8.40158 17.6249 10.5264 18.2993 12.4379 18.2255C14.117 18.1607 15.5547 17.5282 16.4147 16.4789C12.7392 15.2648 9.619 13.2532 6.59558 10.4056C6.29405 10.1216 6.27984 9.64694 6.56384 9.34541C6.84784 9.04388 7.3225 9.02967 7.62402 9.31367C10.5804 12.0982 13.5937 14.0159 17.1632 15.1445Z" fill="#16559F"/>
</svg>
