<svg width="22" height="20" viewBox="0 0 22 20" fill="none" xmlns="http://www.w3.org/2000/svg">
<path fill-rule="evenodd" clip-rule="evenodd" d="M2.17018 0.54248C2.08995 0.457481 1.9386 0.324124 1.71014 0.271668C1.44123 0.209923 1.19153 0.28795 1.01271 0.42495C0.860629 0.541459 0.776574 0.68511 0.73201 0.77573C0.683296 0.87479 0.650177 0.976349 0.626372 1.06642C0.536173 1.40771 0.501561 1.89492 0.500512 2.43676C0.498355 3.55188 0.640582 5.15203 0.968433 6.91453C1.61606 10.3961 3.03247 14.7536 5.71751 17.2065L5.71776 17.2067C7.69225 19.0089 10.2056 19.8128 12.4953 19.7244C14.703 19.6392 16.7978 18.7124 17.9389 16.9284C18.8191 17.1577 19.7319 17.3452 20.6828 17.4915C21.0922 17.5545 21.4751 17.2737 21.5381 16.8643C21.6011 16.4549 21.3203 16.072 20.9109 16.009C20.1181 15.887 19.3538 15.735 18.6141 15.5522C19.8809 12.1021 18.4621 7.96744 14.4955 5.40558C12.5709 4.16236 10.5942 3.83198 8.7956 3.53135C8.49935 3.48183 8.20789 3.43312 7.92233 3.38127C5.8881 3.01193 4.00118 2.48112 2.17031 0.54261L2.17018 0.54248ZM17.1627 15.1445C18.2197 12.4111 17.1979 8.93658 13.6816 6.6656L13.6816 6.66556C12.0367 5.60302 10.3901 5.32423 8.58909 5.01928C8.28225 4.96733 7.97093 4.91462 7.65436 4.85714C5.80048 4.52054 3.87164 4.02161 2.0005 2.44493C1.99902 3.44973 2.12935 4.95332 2.44314 6.64021C3.07986 10.0632 4.42666 13.9954 6.72897 16.0988L6.72904 16.0989L6.72921 16.099C8.4011 17.6249 10.5259 18.2993 12.4374 18.2255C14.1165 18.1607 15.5542 17.5282 16.4143 16.4789C12.7388 15.2648 9.61851 13.2532 6.59509 10.4056C6.29357 10.1216 6.27935 9.64694 6.56335 9.34541C6.84735 9.04388 7.32201 9.02967 7.62354 9.31367C10.5799 12.0982 13.5932 14.0159 17.1627 15.1445Z" fill="#75BD00"/>
</svg>
