<svg width="24" height="24" viewBox="0 0 24 24" fill="none" xmlns="http://www.w3.org/2000/svg">
<path fill-rule="evenodd" clip-rule="evenodd" d="M11.6279 2.34882C11.8585 2.21706 12.1415 2.21706 12.3721 2.34882L22.8721 8.34882C23.1058 8.48235 23.25 8.73086 23.25 9V17.25C23.25 17.6642 22.9142 18 22.5 18C22.0858 18 21.75 17.6642 21.75 17.25V10.2924L19.5 11.5781V17.25C19.5 17.5224 19.3523 17.7733 19.1142 17.9056L12.3642 21.6556C12.1377 21.7815 11.8623 21.7815 11.6358 21.6556L4.88577 17.9056C4.64767 17.7733 4.5 17.5224 4.5 17.25V11.5781L1.1279 9.65118C0.894215 9.51765 0.75 9.26914 0.75 9C0.75 8.73086 0.894215 8.48235 1.1279 8.34882L11.6279 2.34882ZM6 12.4352V16.8087L11.25 19.7254V15.4352L6 12.4352ZM12.75 15.4352V19.7254L18 16.8087V12.4352L12.75 15.4352ZM12 14.1362L20.9883 9L12 3.86381L3.01167 9L12 14.1362Z" fill="#121312" fill-opacity="0.5"/>
</svg>
