<svg width="18" height="24" viewBox="0 0 18 24" fill="none" xmlns="http://www.w3.org/2000/svg">
<path d="M6.13157 23.25C6.08 23.25 6.02844 23.2453 5.98157 23.2359C5.75657 23.1984 5.55969 23.0719 5.42844 22.8844C5.29719 22.6969 5.24563 22.4672 5.28782 22.2422L6.60032 15H1.50032C1.20969 15 0.94719 14.8359 0.825315 14.5734C0.698753 14.3109 0.736253 14.0016 0.919065 13.7766L11.1894 1.08281C11.3534 0.876563 11.6019 0.75 11.8691 0.75C11.9019 0.75 11.9441 0.75 11.9769 0.754688C12.2066 0.782813 12.4081 0.9 12.5534 1.08281C12.6941 1.26562 12.7597 1.49063 12.7316 1.72031C12.7316 1.73438 12.7269 1.74844 12.7269 1.7625L11.4003 9H16.5003C16.7909 9 17.0534 9.16406 17.1753 9.42656C17.3019 9.68906 17.2644 9.99844 17.0816 10.2234L6.81125 22.9219C6.64719 23.1281 6.39407 23.25 6.13157 23.25ZM3.07063 13.5H7.50031C7.72063 13.5 7.93157 13.5984 8.07688 13.7672C8.2175 13.9359 8.27844 14.1609 8.24094 14.3812L7.20969 20.0391L14.93 10.5H10.5003C10.28 10.5 10.0691 10.4016 9.92375 10.2281C9.78313 10.0594 9.72219 9.82969 9.75969 9.61406L10.7956 3.95156L3.07063 13.5Z" fill="#16559F"/>
</svg>
