<svg width="23" height="22" viewBox="0 0 23 22" fill="none" xmlns="http://www.w3.org/2000/svg">
<path fill-rule="evenodd" clip-rule="evenodd" d="M11.6069 0.803955C12.0211 0.803955 12.3569 1.13974 12.3569 1.55396V2.30396H19.1069C19.5048 2.30396 19.8863 2.46199 20.1676 2.74329C20.4489 3.0246 20.6069 3.40613 20.6069 3.80396V8.30396C20.6069 8.70178 20.4489 9.08331 20.1676 9.36461C19.8863 9.64592 19.5048 9.80396 19.1069 9.80396H12.3569V11.304H18.796C18.7961 11.304 18.7961 11.304 18.7962 11.304C18.9932 11.3039 19.1884 11.3428 19.3704 11.4182C19.5524 11.4936 19.7178 11.6041 19.8571 11.7435C19.8572 11.7435 19.8572 11.7436 19.8573 11.7436L22.6373 14.5236C22.9302 14.8165 22.9302 15.2914 22.6373 15.5843L19.8573 18.3643C19.8572 18.3643 19.8572 18.3644 19.8571 18.3644C19.7178 18.5038 19.5524 18.6143 19.3704 18.6897C19.1884 18.7652 18.9932 18.804 18.7962 18.804C18.7961 18.804 18.7961 18.804 18.796 18.804H12.3569V21.054C12.3569 21.4682 12.0211 21.804 11.6069 21.804C11.1927 21.804 10.8569 21.4682 10.8569 21.054V18.804H4.10693C3.70911 18.804 3.32758 18.6459 3.04627 18.3646C2.76497 18.0833 2.60693 17.7018 2.60693 17.304V12.804C2.60693 12.4061 2.76497 12.0246 3.04627 11.7433C3.32758 11.462 3.70911 11.304 4.10693 11.304H10.8569V9.80396H4.41784C4.4178 9.80396 4.41776 9.80396 4.41771 9.80396C4.22065 9.80397 4.02551 9.76516 3.84345 9.68973C3.66143 9.61431 3.49605 9.50378 3.35676 9.36444C3.3567 9.36438 3.35664 9.36433 3.35659 9.36427L0.576604 6.58428C0.28371 6.29139 0.28371 5.81652 0.576604 5.52363L3.35659 2.74364C3.35664 2.74358 3.3567 2.74353 3.35676 2.74347C3.49605 2.60413 3.66143 2.4936 3.84345 2.41818C4.02551 2.34275 4.22065 2.30394 4.41771 2.30396C4.41776 2.30396 4.4178 2.30396 4.41784 2.30396H10.8569V1.55396C10.8569 1.13974 11.1927 0.803955 11.6069 0.803955ZM4.41759 3.80396L2.16759 6.05396L4.41759 8.30396H19.1069V3.80396H4.41759ZM4.10693 12.804V17.304H18.7963L18.7964 17.3038L21.0463 15.054L18.7964 12.8041L18.7963 12.804L4.10693 12.804Z" fill="#121312" fill-opacity="0.5"/>
</svg>
