<svg width="23" height="22" viewBox="0 0 23 22" fill="none" xmlns="http://www.w3.org/2000/svg">
<path d="M22.6372 14.5236L19.8571 11.7429C19.7181 11.6032 19.5527 11.4925 19.3707 11.4171C19.1886 11.3417 18.9934 11.3032 18.7963 11.3037H12.3571V9.80371H19.1071C19.5049 9.80371 19.8864 9.64568 20.1677 9.36437C20.449 9.08307 20.6071 8.70154 20.6071 8.30371V3.80371C20.6071 3.40589 20.449 3.02436 20.1677 2.74305C19.8864 2.46175 19.5049 2.30371 19.1071 2.30371H12.3571V1.55371C12.3571 1.3548 12.2781 1.16403 12.1374 1.02338C11.9968 0.882729 11.806 0.803711 11.6071 0.803711C11.4082 0.803711 11.2174 0.882729 11.0767 1.02338C10.9361 1.16403 10.8571 1.3548 10.8571 1.55371V2.30371H4.41786C4.22079 2.30317 4.02556 2.3417 3.84348 2.41709C3.6614 2.49248 3.49608 2.60323 3.35707 2.74293L0.576918 5.52355C0.436372 5.66419 0.357422 5.85488 0.357422 6.05371C0.357422 6.25254 0.436372 6.44323 0.576918 6.58387L3.35707 9.36449C3.49608 9.50419 3.6614 9.61494 3.84348 9.69033C4.02556 9.76572 4.22079 9.80426 4.41786 9.80371H10.8571V11.3037H4.10707C3.70925 11.3037 3.32772 11.4617 3.04641 11.7431C2.76511 12.0244 2.60707 12.4059 2.60707 12.8037V17.3037C2.60707 17.7015 2.76511 18.0831 3.04641 18.3644C3.32772 18.6457 3.70925 18.8037 4.10707 18.8037H10.8571V21.0537C10.8571 21.2526 10.9361 21.4434 11.0767 21.584C11.2174 21.7247 11.4082 21.8037 11.6071 21.8037C11.806 21.8037 11.9968 21.7247 12.1374 21.584C12.2781 21.4434 12.3571 21.2526 12.3571 21.0537V18.8037H18.7963C18.9934 18.8043 19.1886 18.7657 19.3707 18.6903C19.5527 18.6149 19.7181 18.5042 19.8571 18.3645L22.6372 15.5839C22.7778 15.4432 22.8567 15.2525 22.8567 15.0537C22.8567 14.8549 22.7778 14.6642 22.6372 14.5236Z" fill="#216869"/>
</svg>
