<svg width="22" height="22" viewBox="0 0 22 22" fill="none" xmlns="http://www.w3.org/2000/svg">
<path fill-rule="evenodd" clip-rule="evenodd" d="M9.12318 0.5L9.121 0.500003C8.62474 0.501444 8.14922 0.699221 7.79831 1.05013C7.4474 1.40104 7.24962 1.87656 7.24818 2.37282L7.24818 2.375V2.75H5.74818L5.746 2.75C4.95164 2.75231 4.19047 3.06889 3.62877 3.63059C3.06707 4.19229 2.75049 4.95346 2.74818 5.74782L2.74818 5.75V9.64847L1.64585 10.0878C1.30229 10.2016 0.859117 10.4596 0.654137 10.9524C0.52065 11.2733 0.419332 11.6874 0.589609 12.1886L0.595013 12.2045L0.601123 12.2202L2.78222 17.8053L2.7839 17.8096L2.78564 17.8139C2.87306 18.0299 3.02682 18.2125 3.22472 18.3354C3.4211 18.4574 3.65089 18.5144 3.88142 18.4983C5.2189 18.4132 6.38222 17.7941 7.28209 17.0164C8.25426 17.8561 9.53234 18.5 10.9982 18.5C12.4649 18.5 13.7372 17.8554 14.7077 17.0147C15.6072 17.7927 16.7704 18.4131 18.1081 18.4983C18.3379 18.5145 18.567 18.458 18.7631 18.3369C18.9608 18.2146 19.1148 18.0329 19.2027 17.8177L19.2048 17.8126L19.2068 17.8076L21.3937 12.2274C21.5928 11.7384 21.4687 11.25 21.3438 10.9492L21.3432 10.9477L21.3426 10.9462C21.1343 10.4504 20.6918 10.202 20.3642 10.0882L19.2482 9.6441V5.75L19.2482 5.74782C19.2459 4.95346 18.9293 4.19229 18.3676 3.63059C17.8059 3.06889 17.0447 2.75231 16.2504 2.75L16.2482 2.75H14.7482V2.375L14.7482 2.37282C14.7467 1.87656 14.549 1.40104 14.198 1.05013C13.8471 0.699221 13.3716 0.501444 12.8754 0.500003L12.8732 0.5H9.12318ZM5.74937 4.25H7.99818H13.9982H16.247C16.6447 4.25141 17.0257 4.41002 17.3069 4.69125C17.5882 4.9725 17.7468 5.35356 17.7482 5.75128V9.04724L11.6073 6.60377L11.5808 6.5932L11.5535 6.58469C11.1917 6.47177 10.8041 6.47177 10.4424 6.58469L10.4149 6.59326L10.3882 6.60391L4.24818 9.05072V5.75119C4.24959 5.3535 4.4082 4.97248 4.68943 4.69125C4.97066 4.41002 5.35168 4.25141 5.74937 4.25ZM8.74818 2.75H13.2482V2.37637C13.2477 2.27672 13.2079 2.18127 13.1374 2.11079C13.0669 2.04031 12.9715 2.0005 12.8718 2H9.12456C9.0249 2.0005 8.92945 2.04031 8.85897 2.11079C8.78849 2.18127 8.74868 2.27672 8.74818 2.37638V2.75ZM10.2482 8.27442L2.17785 11.4905L2.15109 11.5011L2.12359 11.5097C2.10163 11.5166 2.08137 11.5248 2.06386 11.5336C2.04796 11.5415 2.03634 11.5489 2.0286 11.5546C2.00677 11.6109 2.00187 11.6386 2.00058 11.6515C1.99993 11.6581 1.99999 11.6632 2.00066 11.669C2.0012 11.6736 2.00253 11.682 2.00634 11.695L4.06704 16.9718C4.98246 16.8378 5.82736 16.3445 6.51811 15.6844L6.52043 15.6822L6.52276 15.68C6.72841 15.4867 6.99998 15.3792 7.28216 15.3792C7.56435 15.3792 7.83591 15.4867 8.04157 15.68L8.04416 15.6824L8.04673 15.6849C8.6719 16.2835 9.4263 16.7405 10.2482 16.9187V8.27442ZM11.7482 8.27419V16.9184C12.567 16.7403 13.3167 16.2836 13.942 15.6835L13.945 15.6807L13.9479 15.6779C14.1537 15.4848 14.4252 15.3773 14.7074 15.3773C14.9896 15.3773 15.2611 15.4848 15.4669 15.6779L15.4694 15.6803L15.4718 15.6826C16.163 16.3436 17.008 16.8378 17.9232 16.9719L19.9982 11.6774C19.9981 11.6741 19.9979 11.6695 19.9973 11.6634C19.9948 11.6371 19.9865 11.5988 19.9693 11.552C19.9515 11.5393 19.9176 11.5203 19.8661 11.5031L19.8463 11.4965L19.8268 11.4887L11.7482 8.27419ZM2.019 11.5625L2.01901 11.5625C2.01907 11.5624 2.0192 11.5623 2.01942 11.5621C2.01914 11.5624 2.01899 11.5625 2.01898 11.5625L2.019 11.5625ZM18.4982 21.1784C18.4982 21.1209 18.4827 21.0644 18.4533 21.0149C18.4239 20.9655 18.3818 20.9248 18.3313 20.8972C17.0619 20.2152 15.9046 19.1712 15.3955 18.6472C15.3199 18.5679 15.219 18.5174 15.1101 18.5045C15.0013 18.4916 14.8914 18.517 14.7993 18.5764C12.4401 20.0961 9.56755 20.097 7.20787 18.5788C7.11495 18.5188 7.00395 18.4932 6.89417 18.5066C6.78438 18.5199 6.68274 18.5713 6.60693 18.6519C6.10209 19.1806 4.9574 20.2128 3.68052 20.8902C3.62986 20.9158 3.58656 20.9539 3.55466 21.0009C3.52277 21.0479 3.50333 21.1022 3.49818 21.1588C3.49437 21.2069 3.50169 21.2553 3.51957 21.3003C3.53744 21.3452 3.5654 21.3854 3.60127 21.4177C3.63715 21.4501 3.67999 21.4738 3.72648 21.4871C3.77298 21.5003 3.82188 21.5026 3.86943 21.4939C4.84677 21.298 5.7913 20.8527 6.6913 20.3769C6.74904 20.3465 6.81322 20.3304 6.87846 20.3299C6.94371 20.3294 7.00812 20.3445 7.0663 20.3741C8.28516 20.9942 9.63332 21.3176 11.0009 21.3178C12.3684 21.3179 13.7167 20.9949 14.9357 20.375C14.9945 20.3452 15.0597 20.3299 15.1256 20.3304C15.1916 20.3309 15.2565 20.3471 15.3149 20.3778C16.2102 20.8466 17.1533 21.2961 18.1274 21.4934C18.1733 21.502 18.2205 21.5002 18.2656 21.4883C18.3107 21.4764 18.3526 21.4546 18.3883 21.4245C18.4239 21.3944 18.4525 21.3567 18.4718 21.3143C18.4911 21.2718 18.5008 21.2256 18.5001 21.1789L18.4982 21.1784Z" fill="#373737"/>
</svg>
