<svg width="24" height="24" viewBox="0 0 24 24" fill="none" xmlns="http://www.w3.org/2000/svg">
<g clip-path="url(#clip0_481_3058)">
<path d="M18.7313 23.2406C18.0938 23.2406 17.4517 22.9969 16.9642 22.5094L16.9595 22.5047L12.7407 18.2156C12.3235 17.7937 12.0938 17.2312 12.0938 16.6406V16.3828C12.0938 16.1859 12.0142 15.9937 11.8782 15.8578L11.3438 15.3562C11.1563 15.1828 10.8938 15.1172 10.6454 15.1828C9.60947 15.4547 8.49853 15.15 7.74384 14.3953L3.74072 10.3922C2.09072 8.74685 1.07354 6.5156 1.07822 4.57498C1.08291 3.39841 1.45791 2.40935 2.16572 1.70623C2.46103 1.4156 2.92978 1.4156 3.2251 1.71091L20.4938 18.9797C21.4688 19.9547 21.4688 21.539 20.4938 22.5094C20.0063 22.9969 19.3688 23.2406 18.7313 23.2406ZM18.0282 21.45C18.4173 21.8344 19.0501 21.8344 19.4392 21.45C19.8282 21.0609 19.8282 20.4281 19.4392 20.039L11.1188 11.7211L2.79853 3.4031C2.6251 3.80623 2.57822 4.23748 2.57822 4.57966C2.57353 6.11248 3.44541 7.9781 4.8001 9.3281L8.80322 13.3312C9.18291 13.7109 9.74541 13.8656 10.2657 13.7297C11.011 13.5328 11.7938 13.7297 12.361 14.2547L12.9048 14.7562C12.9095 14.7609 12.9188 14.7656 12.9235 14.775C13.3501 15.1969 13.5938 15.7781 13.5938 16.3781V16.6359C13.5938 16.8328 13.6688 17.0203 13.8095 17.1609L18.0282 21.45Z" fill="#121312" fill-opacity="0.5"/>
<path d="M13.5001 9.74995C13.3079 9.74995 13.1157 9.67495 12.9704 9.52964C12.6798 9.23902 12.6798 8.76089 12.9704 8.47027L13.5001 7.94058V7.24214C13.5001 6.23902 13.8892 5.29683 14.597 4.58902L18.2157 0.970267C18.5063 0.679642 18.9845 0.679642 19.2751 0.970267C19.5657 1.26089 19.5657 1.73902 19.2751 2.02964L15.6563 5.64839C15.2298 6.07495 14.9954 6.63745 14.9954 7.23745V7.93589C14.9954 8.33902 14.8407 8.71402 14.5548 8.99527L14.0251 9.52495C13.8845 9.67495 13.6923 9.74995 13.5001 9.74995Z" fill="#121312" fill-opacity="0.5"/>
<path d="M15.0001 11.25C14.8079 11.25 14.6157 11.175 14.4704 11.0297C14.1798 10.7391 14.1798 10.261 14.4704 9.97036L15.0001 9.44067C15.2813 9.15942 15.661 9.00004 16.0595 9.00004H16.7579C17.3579 9.00004 17.9251 8.76567 18.347 8.33911L21.9704 4.71567C22.261 4.42504 22.7391 4.42504 23.0298 4.71567C23.3204 5.00629 23.3204 5.48442 23.0298 5.77504L19.411 9.39379C18.7032 10.111 17.761 10.5 16.7579 10.5H16.0595L15.5298 11.0297C15.3845 11.175 15.1923 11.25 15.0001 11.25Z" fill="#121312" fill-opacity="0.5"/>
<path d="M16.8751 7.87495C16.6829 7.87495 16.4907 7.79995 16.3454 7.65464C16.0548 7.36401 16.0548 6.88589 16.3454 6.59526L20.0954 2.84527C20.386 2.55464 20.8641 2.55464 21.1548 2.84527C21.4454 3.13589 21.4454 3.61402 21.1548 3.90464L17.4048 7.65464C17.2595 7.79995 17.0673 7.87495 16.8751 7.87495Z" fill="#121312" fill-opacity="0.5"/>
<path d="M3.3751 23.25C2.70478 23.25 2.02979 22.9922 1.51885 22.4813C0.496973 21.4594 0.496973 19.7907 1.51885 18.7688L5.47041 14.8407C5.76572 14.55 6.23916 14.55 6.52979 14.8453C6.82041 15.1407 6.82041 15.6141 6.5251 15.9047L2.57822 19.8328C2.14228 20.2688 2.14228 20.9813 2.57822 21.4219C3.01885 21.8625 3.73135 21.8625 4.16729 21.4219L8.84072 16.725C9.13135 16.4297 9.60947 16.4297 9.9001 16.7203C10.1954 17.011 10.1954 17.4891 9.90479 17.7797L5.23135 22.4813C4.72041 22.9922 4.04541 23.25 3.3751 23.25Z" fill="#121312" fill-opacity="0.5"/>
</g>
<defs>
<clipPath id="clip0_481_3058">
<rect width="24" height="24" fill="white"/>
</clipPath>
</defs>
</svg>
