<svg width="22" height="22" viewBox="0 0 22 22" fill="none" xmlns="http://www.w3.org/2000/svg">
<path fill-rule="evenodd" clip-rule="evenodd" d="M11 0.5C5.20125 0.5 0.5 5.20125 0.5 11C0.5 16.7987 5.20125 21.5 11 21.5C16.7987 21.5 21.5 16.7987 21.5 11C21.5 5.20125 16.7987 0.5 11 0.5ZM2 11C2 10.1833 2.1088 9.39201 2.31269 8.63981C2.48023 9.0008 2.68454 9.3378 2.88978 9.67634C3.10613 10.0332 3.32351 10.3918 3.49998 10.782C3.73107 11.296 4.16706 11.4645 4.60422 11.6335C4.99793 11.7857 5.39258 11.9383 5.63935 12.3439C5.88533 12.748 5.86059 13.2094 5.83576 13.6724C5.81394 14.0794 5.79205 14.4877 5.95388 14.8596C6.10923 15.2164 6.39502 15.4008 6.68718 15.5893C6.86755 15.7057 7.05035 15.8236 7.20638 15.9846C7.56313 16.3486 7.60866 16.8271 7.65408 17.3045L7.65409 17.3046C7.66184 17.3861 7.66959 17.4675 7.67888 17.5484C7.75078 18.2006 7.86746 18.8472 8.0281 19.4834C8.02944 19.4886 8.03078 19.4938 8.03212 19.4991C4.51988 18.2726 2 14.9304 2 11ZM3.32063 7.21868C3.25058 7.02446 3.18216 6.83474 3.09906 6.68677C3.70954 5.57093 4.54952 4.59855 5.5555 3.83313C5.5376 4.05172 5.55674 4.2721 5.61245 4.48491C5.67968 4.74174 5.79874 4.9821 5.96232 5.19121C6.05798 5.3143 6.17314 5.40862 6.28385 5.49932C6.49484 5.67216 6.68972 5.8318 6.70294 6.15214C6.72263 6.62089 6.64951 6.86089 6.34294 7.19042C6.27996 7.25719 6.22574 7.33728 6.17172 7.41708L6.17171 7.41709C6.11196 7.50536 6.05244 7.59328 5.98154 7.66246L5.97197 7.67176L5.95889 7.68451C5.8983 7.74359 5.87284 7.76841 5.84234 7.78126C5.82024 7.79058 5.7955 7.79362 5.75283 7.79885H5.75282C5.72065 7.8028 5.67829 7.808 5.61919 7.81808C5.21382 7.88656 4.85875 7.98606 4.47955 8.09233L4.47954 8.09233L4.47937 8.09238C4.40435 8.1134 4.32839 8.13469 4.25091 8.15605C3.71237 8.30489 3.51052 7.74521 3.32063 7.21868ZM7.65357 3.29792C7.731 3.13765 7.65379 2.91134 7.51902 2.69798C7.68803 2.62702 7.85965 2.56108 8.03372 2.50033C8.14308 2.57662 8.2645 2.63093 8.40926 2.64035C8.51502 2.64747 8.61874 2.63288 8.72028 2.61861C8.91984 2.59055 9.11095 2.56368 9.29239 2.70504C9.37208 2.76653 9.44594 2.83232 9.51882 2.89723L9.51884 2.89725C9.7237 3.07974 9.92082 3.25532 10.2182 3.30926C10.6082 3.38004 11.0211 3.15223 11.1177 2.75332C11.1751 2.52065 11.1217 2.27552 11.0688 2.03285C11.0664 2.02197 11.064 2.01108 11.0617 2.00021C12.8902 2.01248 14.5892 2.5701 16.0043 3.51855C15.9074 3.47451 15.7885 3.47498 15.6411 3.54362C15.3565 3.67581 14.9534 4.01237 14.9201 4.34612C14.8821 4.72487 15.4409 4.77831 15.7062 4.77831C16.1042 4.77831 16.5082 4.60018 16.3798 4.13987C16.3215 3.93131 16.241 3.71317 16.1087 3.58963C16.4101 3.79779 16.6981 4.02384 16.9713 4.26627C16.966 4.27155 16.9607 4.27691 16.9555 4.28235C16.8764 4.36468 16.7936 4.44199 16.7115 4.51875C16.5129 4.7042 16.3178 4.88643 16.1872 5.12844C16.0569 5.36891 15.9101 5.48375 15.6462 5.5461C15.615 5.55346 15.5828 5.55982 15.5502 5.56624C15.4316 5.58968 15.3088 5.61394 15.2131 5.69047C14.8737 5.95766 15.0669 6.59938 15.3884 6.7925C15.7948 7.03578 16.3976 6.92141 16.7042 6.57407C16.7705 6.49879 16.8293 6.40817 16.8888 6.31649C17.0441 6.07702 17.2041 5.83029 17.5156 5.83063C17.7053 5.83023 17.8875 5.90449 18.0228 6.03735C18.1578 6.177 18.1703 6.31018 18.185 6.46692C18.1896 6.51694 18.1946 6.56936 18.2037 6.62516C18.2711 7.0364 18.6351 6.81325 18.8548 6.60342C19.0142 6.88756 19.1586 7.18124 19.287 7.48337C19.2692 7.50888 19.2518 7.53457 19.2344 7.56012L19.2343 7.56022C19.0142 7.88402 18.8097 8.1848 18.2694 7.80733C18.1505 7.72446 18.0473 7.62876 17.9454 7.53438C17.7489 7.3522 17.5576 7.17492 17.2695 7.10421C16.9394 7.02318 16.6022 7.08501 16.2731 7.14536L16.2731 7.14537L16.273 7.14538L16.2729 7.14539L16.2729 7.14541C16.2213 7.15487 16.1699 7.16429 16.1188 7.17311C16.0577 7.18366 15.995 7.19338 15.9315 7.20323L15.9314 7.20324C15.5487 7.26257 15.1349 7.32672 14.8559 7.6053C14.7052 7.75518 14.5884 7.92962 14.4709 8.10528L14.4709 8.10529C14.3432 8.29606 14.2146 8.48827 14.0403 8.65202C13.393 9.2614 13.1197 9.92655 13.5388 10.7881C13.9419 11.6164 14.7852 12.0659 15.695 12.0069C15.8875 11.994 16.0817 11.9599 16.2675 11.9273C16.9446 11.8083 17.512 11.7086 17.4917 12.7278C17.4824 13.1872 17.5784 13.5059 17.7195 13.933C17.8225 14.243 17.8389 14.5454 17.8558 14.8584V14.8584V14.8584C17.8604 14.9429 17.865 15.0282 17.8714 15.1147C17.9049 15.5741 17.9692 16.0671 18.0983 16.5335C16.4511 18.6434 13.8839 20 11 20C10.4897 20 9.98935 19.9575 9.50224 19.8759C9.50326 19.8509 9.50415 19.8261 9.50502 19.8019C9.50856 19.7036 9.51178 19.6141 9.52201 19.5467C9.63591 18.8014 10.009 18.0725 10.5125 17.5146C10.7183 17.2869 10.9556 17.0897 11.1929 16.8924C11.5291 16.6129 11.8652 16.3335 12.1114 15.9678C12.5206 15.3593 12.6439 14.5385 12.4742 13.8265C12.2992 13.0897 11.5455 12.6965 10.8448 12.331C10.5452 12.1747 10.2553 12.0235 10.0245 11.8526C9.90928 11.7673 9.79735 11.6698 9.68457 11.5716C9.36376 11.2924 9.036 11.007 8.6056 10.9765C8.50353 10.9692 8.40777 10.9731 8.31366 10.9769C8.16054 10.9831 8.01176 10.9892 7.84716 10.9465C7.77029 10.9267 7.69863 10.9001 7.62841 10.874C7.47597 10.8174 7.33026 10.7632 7.15248 10.7867C6.9393 10.8147 6.7607 10.9305 6.58322 11.0455C6.35679 11.1924 6.13219 11.338 5.83998 11.2985C5.34544 11.232 4.83591 10.6535 4.72341 10.1825C4.57904 9.57683 5.0581 9.38042 5.57138 9.32652C5.7856 9.30402 6.02607 9.27964 6.23185 9.35792C6.38222 9.41386 6.48855 9.52047 6.595 9.62719C6.68035 9.71277 6.76578 9.79842 6.87404 9.85808C7.33013 10.1079 7.42248 9.70855 7.35263 9.30355C7.34131 9.23786 7.32979 9.17639 7.31893 9.11845L7.31886 9.11812L7.31883 9.11796L7.31882 9.11788C7.22944 8.6412 7.185 8.40416 7.66716 8.0323C7.6897 8.015 7.71205 7.99799 7.73413 7.98118C8.07933 7.71835 8.35918 7.50528 8.30279 7.01933C8.29106 6.91935 8.26517 6.8374 8.24123 6.76165C8.19246 6.60729 8.15183 6.47872 8.25591 6.27589C8.37131 6.05017 8.68419 5.84608 8.89474 5.70874L8.90701 5.70074C9.06804 5.5957 9.33809 5.5241 9.61939 5.44951C10.2871 5.27247 11.0183 5.07861 10.5054 4.38074C10.2912 4.08964 9.89607 3.56933 9.52107 3.49808C9.20234 3.43784 9.00411 3.66043 8.80716 3.88157C8.71446 3.98566 8.62204 4.08943 8.51748 4.16324C8.17998 4.40183 7.52279 4.67277 7.18482 4.30386C6.88227 3.97355 7.11581 3.7908 7.35527 3.60343C7.47568 3.50921 7.59758 3.41383 7.65357 3.29792ZM19.3416 14.3851C19.7661 13.3401 20 12.1973 20 11C20 10.381 19.9375 9.77657 19.8185 9.19271C19.3796 9.43593 18.7922 9.53251 18.4292 9.47936C18.0581 9.41748 17.7074 9.26697 17.4069 9.04062C17.3476 8.99685 17.2839 8.93306 17.2178 8.86688C17.1027 8.75162 16.9804 8.62912 16.8613 8.59249C16.6738 8.53483 16.0194 8.66468 15.8769 8.77765C15.7924 8.8446 15.721 8.96541 15.6515 9.08287L15.6515 9.08288C15.6038 9.16359 15.557 9.24272 15.5075 9.30171C15.4452 9.37594 15.3675 9.44561 15.2895 9.51553C15.1927 9.60234 15.0954 9.68955 15.0266 9.7864C14.4018 10.6701 15.9449 10.4283 16.3458 10.3655L16.3531 10.3644C17.1252 10.243 17.9333 10.3864 18.4845 10.9841C18.9333 11.4712 18.9456 11.9409 18.9597 12.4796C18.9636 12.6262 18.9675 12.7779 18.9805 12.9364C18.998 13.149 19.0742 13.3558 19.1507 13.5636C19.2174 13.7448 19.2845 13.9268 19.3133 14.1144C19.3271 14.2043 19.3357 14.2946 19.3416 14.3851ZM10.909 15.0603C10.7271 15.3851 10.4006 15.6405 10.0838 15.8883C9.91097 16.0235 9.741 16.1565 9.59888 16.2973C9.5715 16.3244 9.53637 16.3684 9.49694 16.4176L9.49693 16.4177C9.37909 16.565 9.22285 16.7603 9.12029 16.6995C9.05328 16.6597 9.01654 16.4196 8.98846 16.236C8.97548 16.1512 8.96435 16.0785 8.95294 16.0432C8.76674 15.4815 8.41126 14.9911 7.93529 14.6393C7.8843 14.6007 7.80709 14.5581 7.72453 14.5125C7.56953 14.4269 7.39566 14.3309 7.34091 14.2315C7.27297 14.1116 7.29859 13.8735 7.31909 13.683L7.31909 13.6829C7.32687 13.6106 7.33392 13.5451 7.33482 13.4956C7.33684 13.3928 7.31974 13.2634 7.30208 13.1296C7.27462 12.9217 7.24577 12.7033 7.28513 12.5581C7.31448 12.4504 7.31024 12.4103 7.30894 12.3981C7.30864 12.3952 7.3085 12.3939 7.30899 12.3936C7.30942 12.3933 7.31032 12.3938 7.312 12.3947C7.32127 12.3999 7.35421 12.4183 7.46185 12.3945C7.59169 12.3654 8.12794 12.4596 8.28966 12.4934C8.49621 12.5364 8.6282 12.6481 8.77726 12.7743L8.77727 12.7743L8.77728 12.7744L8.77729 12.7744C8.8136 12.8051 8.85093 12.8367 8.8906 12.8684C9.4231 13.2954 10.0095 13.6259 10.6062 13.9531C11.0684 14.209 11.2043 14.5329 10.909 15.0603Z" fill="#16559F"/>
</svg>
