<svg width="20" height="19" viewBox="0 0 20 19" fill="none" xmlns="http://www.w3.org/2000/svg">
<path d="M10.0005 18.6875C9.69944 18.6871 9.40544 18.5961 9.15677 18.4264C5.47286 15.9256 3.87771 14.2109 2.99786 13.1389C1.12286 10.8538 0.225208 8.50766 0.250521 5.96703C0.280052 3.05563 2.61583 0.6875 5.4574 0.6875C7.52365 0.6875 8.95474 1.85141 9.78818 2.82078C9.81458 2.85118 9.8472 2.87555 9.88383 2.89226C9.92047 2.90896 9.96026 2.91761 10.0005 2.91761C10.0408 2.91761 10.0806 2.90896 10.1172 2.89226C10.1538 2.87555 10.1865 2.85118 10.2129 2.82078C11.0463 1.85047 12.4774 0.6875 14.5436 0.6875C17.3852 0.6875 19.721 3.05563 19.7505 5.9675C19.7758 8.50859 18.8772 10.8547 17.0032 13.1394C16.1233 14.2114 14.5282 15.9261 10.8443 18.4269C10.5955 18.5964 10.3016 18.6873 10.0005 18.6875V18.6875Z" fill="#216869"/>
</svg>
