<svg width="24" height="24" viewBox="0 0 24 24" fill="none" xmlns="http://www.w3.org/2000/svg">
<path d="M6.27207 16.9359C5.21269 16.9359 4.35019 16.5515 3.70332 15.7922C3.05175 15.0234 2.63457 13.9031 2.38613 12.2625C2.0205 9.84374 2.38144 7.80468 3.40332 6.5203C4.00332 5.76561 4.79082 5.32968 5.68144 5.25468C6.44081 5.19374 7.57988 5.50311 8.68144 7.31718C9.3705 8.45155 9.8955 9.96093 10.1205 11.4562C10.3924 13.2609 10.1908 14.5922 9.50175 15.5203C8.958 16.2562 8.11894 16.7156 7.008 16.8797C6.75019 16.9172 6.50644 16.9359 6.27207 16.9359ZM5.85019 6.74999C5.83144 6.74999 5.81738 6.74999 5.80332 6.74999C5.32988 6.78749 4.92207 7.02186 4.57988 7.45311C3.83457 8.39061 3.57675 10.064 3.87207 12.0375C4.33613 15.1125 5.37207 15.6047 6.78769 15.3937C7.50019 15.2906 7.99238 15.0375 8.29707 14.625C8.72832 14.0437 8.84082 13.05 8.63925 11.6766C8.44707 10.3875 7.983 9.04686 7.40175 8.09061C6.88144 7.24686 6.30957 6.74999 5.85019 6.74999Z" fill="#121312" fill-opacity="0.5"/>
<path d="M8.1143 23.25C7.49555 23.25 6.86742 23.0531 6.30023 22.6687C5.4893 22.1203 4.91742 21.2578 4.72992 20.2968C4.59867 19.6078 4.67836 19.064 4.97367 18.6281C5.45648 17.9203 6.32836 17.7562 7.24711 17.5875C7.34555 17.5687 7.44398 17.55 7.54242 17.5312C7.75336 17.489 7.96898 17.4375 8.17992 17.3859C8.96742 17.1937 9.77836 16.9921 10.4534 17.4656C10.9034 17.7843 11.1565 18.3281 11.2315 19.1203C11.3159 20.039 11.119 20.9531 10.6784 21.6984C10.2002 22.5 9.48305 23.0296 8.66273 23.1937C8.47992 23.2312 8.29711 23.25 8.1143 23.25ZM9.4643 18.675C9.2393 18.675 8.79867 18.7828 8.54086 18.8484C8.31117 18.9046 8.0768 18.9656 7.82367 19.0125C7.72055 19.0312 7.61742 19.05 7.51898 19.0687C6.97055 19.1718 6.34711 19.2843 6.21586 19.4765C6.15961 19.5609 6.15492 19.7625 6.20648 20.0156C6.31898 20.5875 6.66117 21.1031 7.14398 21.4312C7.53773 21.6984 7.98773 21.8062 8.3768 21.7312C9.2393 21.5625 9.85336 20.4562 9.74086 19.2703C9.69867 18.8015 9.58617 18.6984 9.58617 18.6984C9.55805 18.6796 9.51586 18.675 9.4643 18.675Z" fill="#121312" fill-opacity="0.5"/>
<path d="M17.7284 12.436C17.494 12.436 17.2503 12.4172 16.9972 12.3797C15.8862 12.2156 15.0472 11.761 14.5034 11.0203C13.8143 10.0922 13.6128 8.76564 13.8847 6.95627C14.1097 5.46095 14.63 3.95158 15.319 2.82189C16.4112 1.01252 17.555 0.698453 18.319 0.754703C19.205 0.820328 19.9925 1.25158 20.5925 2.00158C21.619 3.28595 21.98 5.3297 21.619 7.75783C21.3706 9.39845 20.9534 10.5188 20.3018 11.2875C19.6456 12.0516 18.7878 12.436 17.7284 12.436ZM15.3659 7.18127C15.1597 8.5547 15.2722 9.54377 15.7081 10.1297C16.0128 10.5422 16.505 10.7906 17.2175 10.8985C18.6331 11.1094 19.669 10.6172 20.1331 7.5422C20.4331 5.55939 20.1706 3.88127 19.4206 2.94377C19.0831 2.52189 18.6753 2.2922 18.2112 2.2547C17.7378 2.22189 17.1378 2.72345 16.6034 3.60002C16.0222 4.55158 15.5628 5.8922 15.3659 7.18127Z" fill="#121312" fill-opacity="0.5"/>
<path d="M15.8861 18.75C15.7033 18.75 15.5205 18.7313 15.3377 18.6985C14.5127 18.5391 13.8002 18.0047 13.322 17.2031C12.8767 16.4578 12.6798 15.5438 12.7689 14.625C12.8439 13.8281 13.097 13.2891 13.547 12.9703C14.2173 12.4922 15.033 12.6938 15.8205 12.8906C16.0314 12.9422 16.247 12.9938 16.458 13.036C16.5564 13.0547 16.6595 13.0735 16.7533 13.0922C17.672 13.261 18.5392 13.4203 19.0267 14.1328C19.3267 14.5688 19.4064 15.1172 19.2705 15.8016C19.083 16.7625 18.5111 17.625 17.7002 18.1735C17.1377 18.5531 16.5095 18.75 15.8861 18.75ZM14.2642 14.7656C14.1517 15.9516 14.7658 17.0531 15.6283 17.2266C16.0173 17.3016 16.4673 17.1938 16.8611 16.9266C17.3439 16.5985 17.6861 16.0828 17.7986 15.511C17.8502 15.2578 17.8455 15.0563 17.7892 14.9719C17.658 14.7797 17.0345 14.6625 16.4861 14.5641C16.3877 14.5453 16.2845 14.5266 16.1814 14.5078C15.933 14.461 15.6939 14.4 15.4642 14.3438C15.1408 14.2641 14.5455 14.1188 14.4189 14.1938C14.4142 14.1938 14.3064 14.2969 14.2642 14.7656Z" fill="#121312" fill-opacity="0.5"/>
</svg>
