<svg width="25" height="23" viewBox="0 0 25 23" fill="none" xmlns="http://www.w3.org/2000/svg">
<path d="M12.9875 3.70343C12.9143 3.63347 12.817 3.59442 12.7158 3.59442C12.6146 3.59442 12.5173 3.63347 12.4441 3.70343L3.40023 12.343C3.36183 12.3798 3.33127 12.4239 3.31041 12.4728C3.28956 12.5217 3.27884 12.5743 3.2789 12.6275L3.27742 20.736C3.27742 21.153 3.44304 21.5528 3.73785 21.8476C4.03266 22.1424 4.4325 22.308 4.84942 22.308H9.57033C9.77879 22.308 9.97872 22.2252 10.1261 22.0778C10.2735 21.9304 10.3563 21.7305 10.3563 21.522V14.841C10.3563 14.7368 10.3977 14.6369 10.4714 14.5632C10.5451 14.4895 10.6451 14.448 10.7493 14.448H14.6793C14.7836 14.448 14.8835 14.4895 14.9572 14.5632C15.0309 14.6369 15.0723 14.7368 15.0723 14.841V21.522C15.0723 21.7305 15.1551 21.9304 15.3025 22.0778C15.45 22.2252 15.6499 22.308 15.8583 22.308H20.5773C20.9942 22.308 21.394 22.1424 21.6889 21.8476C21.9837 21.5528 22.1493 21.153 22.1493 20.736V12.6275C22.1493 12.5743 22.1386 12.5217 22.1178 12.4728C22.0969 12.4239 22.0664 12.3798 22.0279 12.343L12.9875 3.70343Z" fill="#216869"/>
<path d="M24.2543 10.7219L20.5797 7.20653V1.87205C20.5797 1.66359 20.4969 1.46367 20.3495 1.31626C20.2021 1.16886 20.0022 1.08605 19.7937 1.08605H17.4357C17.2273 1.08605 17.0274 1.16886 16.88 1.31626C16.7325 1.46367 16.6497 1.66359 16.6497 1.87205V3.44405L13.8044 0.723506C13.5382 0.454301 13.1422 0.300049 12.7143 0.300049C12.2879 0.300049 11.893 0.454301 11.6267 0.723998L1.17782 10.7209C0.872263 11.0157 0.833945 11.5005 1.11199 11.8199C1.18181 11.9005 1.26731 11.966 1.36327 12.0125C1.45923 12.059 1.56365 12.0855 1.67017 12.0904C1.7767 12.0953 1.8831 12.0784 1.9829 12.0409C2.08271 12.0033 2.17382 11.9458 2.25071 11.8719L12.4441 2.13143C12.5173 2.06147 12.6146 2.02242 12.7158 2.02242C12.817 2.02242 12.9143 2.06147 12.9875 2.13143L23.1819 11.8719C23.3321 12.0159 23.5332 12.0945 23.7412 12.0905C23.9492 12.0864 24.1472 12.0001 24.2916 11.8503C24.5932 11.5379 24.5682 11.0221 24.2543 10.7219Z" fill="#216869"/>
</svg>
