<svg width="26" height="25" viewBox="0 0 26 25" fill="none" xmlns="http://www.w3.org/2000/svg">
<path fill-rule="evenodd" clip-rule="evenodd" d="M13.8765 1.01926L16.9067 3.91993V2.24278C16.9067 1.77974 17.282 1.40438 17.7451 1.40438H20.2603C20.7233 1.40438 21.0987 1.77974 21.0987 2.24278V7.93273L25.032 11.6979C25.3665 12.0181 25.3781 12.5488 25.0579 12.8833C24.7377 13.2178 24.207 13.2294 23.8725 12.9092L22.7755 11.8591V22.3644C22.7755 22.8091 22.5988 23.2356 22.2843 23.5501C21.9699 23.8645 21.5434 24.0412 21.0987 24.0412H16.0683C15.6052 24.0412 15.2299 23.6658 15.2299 23.2028V16.0764C15.2299 15.9652 15.1857 15.8586 15.1071 15.78C15.0285 15.7013 14.9218 15.6572 14.8107 15.6572H10.6187C10.5075 15.6572 10.4009 15.7013 10.3223 15.78C10.2436 15.8586 10.1995 15.9652 10.1995 16.0764V23.2028C10.1995 23.6658 9.82411 24.0412 9.36107 24.0412H4.33067C3.88596 24.0412 3.45946 23.8645 3.145 23.5501C2.83054 23.2356 2.65387 22.8091 2.65387 22.3644V11.8591L1.55683 12.9092C1.22234 13.2294 0.691619 13.2178 0.371431 12.8833C0.051243 12.5488 0.0628343 12.0181 0.397321 11.6979L11.5536 1.01857C11.8956 0.671844 12.3617 0.566259 12.7179 0.566897C13.0728 0.567534 13.5372 0.673984 13.8765 1.01926ZM4.33067 10.254V22.3644H8.52267V16.0764C8.52267 15.5205 8.7435 14.9874 9.13658 14.5943C9.52965 14.2012 10.0628 13.9804 10.6187 13.9804H14.8107C15.3666 13.9804 15.8997 14.2012 16.2928 14.5943C16.6858 14.9874 16.9067 15.5205 16.9067 16.0764V22.3644H21.0987V10.2539L12.7315 2.24443C12.7264 2.24398 12.7208 2.24371 12.7149 2.24369C12.7089 2.24368 12.7031 2.24395 12.6979 2.24441L4.33067 10.254ZM19.4219 6.32761V3.08118H18.5835V5.52505L19.4219 6.32761Z" fill="#121312" fill-opacity="0.5"/>
</svg>
