<svg width="21" height="21" viewBox="0 0 21 21" fill="none" xmlns="http://www.w3.org/2000/svg">
<path d="M10.5 0.553711C5.12391 0.553711 0.75 4.92762 0.75 10.3037C0.75 15.6798 5.12391 20.0537 10.5 20.0537C15.8761 20.0537 20.25 15.6798 20.25 10.3037C20.25 4.92762 15.8761 0.553711 10.5 0.553711ZM14.25 11.0537H11.25V14.0537C11.25 14.2526 11.171 14.4434 11.0303 14.584C10.8897 14.7247 10.6989 14.8037 10.5 14.8037C10.3011 14.8037 10.1103 14.7247 9.96967 14.584C9.82902 14.4434 9.75 14.2526 9.75 14.0537V11.0537H6.75C6.55109 11.0537 6.36032 10.9747 6.21967 10.834C6.07902 10.6934 6 10.5026 6 10.3037C6 10.1048 6.07902 9.91403 6.21967 9.77338C6.36032 9.63273 6.55109 9.55371 6.75 9.55371H9.75V6.55371C9.75 6.3548 9.82902 6.16403 9.96967 6.02338C10.1103 5.88273 10.3011 5.80371 10.5 5.80371C10.6989 5.80371 10.8897 5.88273 11.0303 6.02338C11.171 6.16403 11.25 6.3548 11.25 6.55371V9.55371H14.25C14.4489 9.55371 14.6397 9.63273 14.7803 9.77338C14.921 9.91403 15 10.1048 15 10.3037C15 10.5026 14.921 10.6934 14.7803 10.834C14.6397 10.9747 14.4489 11.0537 14.25 11.0537Z" fill="#16559F"/>
</svg>
