<svg width="21" height="21" viewBox="0 0 21 21" fill="none" xmlns="http://www.w3.org/2000/svg">
<path fill-rule="evenodd" clip-rule="evenodd" d="M0.826172 10.5762C0.826172 5.19321 5.19321 0.826172 10.5762 0.826172C15.9591 0.826172 20.3262 5.19321 20.3262 10.5762C20.3262 15.9591 15.9591 20.3262 10.5762 20.3262C5.19321 20.3262 0.826172 15.9591 0.826172 10.5762ZM10.5762 2.32617C6.02164 2.32617 2.32617 6.02164 2.32617 10.5762C2.32617 15.1307 6.02164 18.8262 10.5762 18.8262C15.1307 18.8262 18.8262 15.1307 18.8262 10.5762C18.8262 6.02164 15.1307 2.32617 10.5762 2.32617ZM10.5762 6.07617C10.9904 6.07617 11.3262 6.41196 11.3262 6.82617V9.82617H14.3262C14.7404 9.82617 15.0762 10.162 15.0762 10.5762C15.0762 10.9904 14.7404 11.3262 14.3262 11.3262H11.3262V14.3262C11.3262 14.7404 10.9904 15.0762 10.5762 15.0762C10.162 15.0762 9.82617 14.7404 9.82617 14.3262V11.3262H6.82617C6.41196 11.3262 6.07617 10.9904 6.07617 10.5762C6.07617 10.162 6.41196 9.82617 6.82617 9.82617H9.82617V6.82617C9.82617 6.41196 10.162 6.07617 10.5762 6.07617Z" fill="#121312" fill-opacity="0.5"/>
</svg>
