<svg width="24" height="25" viewBox="0 0 24 25" fill="none" xmlns="http://www.w3.org/2000/svg">
<path d="M21.1073 6.22607H6.65625C5.0625 6.22607 3.75 7.51561 3.75 9.10092V20.6012C3.75 22.1865 5.0625 23.4761 6.65625 23.4761H21.0938C22.6875 23.4761 24 22.2489 24 20.6636V9.10092C24 7.51561 22.7025 6.22607 21.1073 6.22607ZM17.4909 9.10139C17.9168 9.10398 18.3324 9.23264 18.6853 9.47114C19.0382 9.70965 19.3125 10.0473 19.4737 10.4415C19.6349 10.8358 19.6757 11.2689 19.591 11.6863C19.5063 12.1037 19.2999 12.4867 18.9979 12.7869C18.6958 13.0872 18.3116 13.2912 17.8937 13.3734C17.4758 13.4555 17.0429 13.412 16.6496 13.2485C16.2564 13.0849 15.9204 12.8085 15.6841 12.4542C15.4477 12.0999 15.3216 11.6835 15.3216 11.2576C15.3238 10.6841 15.5535 10.1349 15.9602 9.7306C16.3669 9.32626 16.9174 9.0998 17.4909 9.10092V9.10139ZM6.63703 22.0389C5.84016 22.0389 5.23734 21.3944 5.23734 20.6017V17.5628L9.47766 13.7758C9.89219 13.4111 10.4296 13.2172 10.9814 13.2331C11.5333 13.2491 12.0586 13.4736 12.4514 13.8615L15.3877 16.7729L10.0908 22.0384L6.63703 22.0389ZM22.5 20.6012C22.4999 20.7901 22.4626 20.9772 22.3903 21.1517C22.3179 21.3262 22.2118 21.4847 22.0781 21.6182C21.9444 21.7516 21.7857 21.8575 21.6111 21.9296C21.4365 22.0017 21.2494 22.0387 21.0605 22.0384H12.1406L17.6287 16.5854C18.0182 16.2569 18.511 16.0761 19.0205 16.0747C19.53 16.0733 20.0238 16.2515 20.415 16.5779L22.5 18.3475V20.6012Z" fill="#216869"/>
<path d="M18 2.47607H3C2.20435 2.47607 1.44129 2.79214 0.87868 3.35475C0.316071 3.91736 0 4.68042 0 5.47607V17.4761C0.00054868 18.1412 0.221737 18.7873 0.628907 19.3133C1.03608 19.8392 1.60622 20.2152 2.25 20.3823V8.10107C2.25 7.20597 2.60558 6.34752 3.23851 5.71459C3.87145 5.08165 4.72989 4.72607 5.625 4.72607H20.9062C20.7391 4.08229 20.3631 3.51215 19.8372 3.10498C19.3113 2.69781 18.6651 2.47662 18 2.47607Z" fill="#216869"/>
</svg>
