<svg width="18" height="18" viewBox="0 0 18 18" fill="none" xmlns="http://www.w3.org/2000/svg">
<path d="M9.00039 15.75C8.77458 15.7497 8.55408 15.6815 8.36758 15.5542C5.60465 13.6786 4.40828 12.3926 3.7484 11.5886C2.34215 9.87469 1.66891 8.11512 1.68789 6.20965C1.71004 4.02609 3.46187 2.25 5.59305 2.25C7.14273 2.25 8.21605 3.12293 8.84113 3.84996C8.86093 3.87276 8.8854 3.89104 8.91287 3.90357C8.94035 3.9161 8.97019 3.92258 9.00039 3.92258C9.03059 3.92258 9.06043 3.9161 9.08791 3.90357C9.11538 3.89104 9.13985 3.87276 9.15965 3.84996C9.78473 3.12223 10.858 2.25 12.4077 2.25C14.5389 2.25 16.2907 4.02609 16.3129 6.21C16.3319 8.11582 15.6579 9.87539 14.2524 11.5889C13.5925 12.3929 12.3961 13.6789 9.6332 15.5545C9.44666 15.6817 9.22616 15.7498 9.00039 15.75V15.75Z" fill="#216869"/>
</svg>
