<svg width="66" height="26" viewBox="0 0 66 26" fill="none" xmlns="http://www.w3.org/2000/svg">
<rect width="66" height="26" rx="4" fill="#D9D9D9"/>
<path d="M13.556 18L10.508 14.268V18H8.828V9.624H10.508V13.38L13.556 9.624H15.584L12.128 13.776L15.68 18H13.556ZM18.465 10.98V13.08H21.285V14.412H18.465V16.632H21.645V18H16.785V9.612H21.645V10.98H18.465ZM29.8318 9.624L26.9998 15.084V18H25.3198V15.084L22.4758 9.624H24.3718L26.1718 13.452L27.9598 9.624H29.8318ZM32.4807 16.668H35.2407V18H30.8007V9.624H32.4807V16.668ZM37.9885 10.98V13.08H40.8085V14.412H37.9885V16.632H41.1685V18H36.3085V9.612H41.1685V10.98H37.9885ZM45.5872 18.084C45.0032 18.084 44.4752 17.984 44.0032 17.784C43.5392 17.584 43.1712 17.296 42.8992 16.92C42.6272 16.544 42.4872 16.1 42.4792 15.588H44.2792C44.3032 15.932 44.4232 16.204 44.6392 16.404C44.8632 16.604 45.1672 16.704 45.5512 16.704C45.9432 16.704 46.2512 16.612 46.4752 16.428C46.6992 16.236 46.8112 15.988 46.8112 15.684C46.8112 15.436 46.7352 15.232 46.5832 15.072C46.4312 14.912 46.2392 14.788 46.0072 14.7C45.7832 14.604 45.4712 14.5 45.0712 14.388C44.5272 14.228 44.0832 14.072 43.7392 13.92C43.4032 13.76 43.1112 13.524 42.8632 13.212C42.6232 12.892 42.5032 12.468 42.5032 11.94C42.5032 11.444 42.6272 11.012 42.8752 10.644C43.1232 10.276 43.4712 9.996 43.9192 9.804C44.3672 9.604 44.8792 9.504 45.4552 9.504C46.3192 9.504 47.0192 9.716 47.5552 10.14C48.0992 10.556 48.3992 11.14 48.4552 11.892H46.6072C46.5912 11.604 46.4672 11.368 46.2352 11.184C46.0112 10.992 45.7112 10.896 45.3352 10.896C45.0072 10.896 44.7432 10.98 44.5432 11.148C44.3512 11.316 44.2552 11.56 44.2552 11.88C44.2552 12.104 44.3272 12.292 44.4712 12.444C44.6232 12.588 44.8072 12.708 45.0232 12.804C45.2472 12.892 45.5592 12.996 45.9592 13.116C46.5032 13.276 46.9472 13.436 47.2912 13.596C47.6352 13.756 47.9312 13.996 48.1792 14.316C48.4272 14.636 48.5512 15.056 48.5512 15.576C48.5512 16.024 48.4352 16.44 48.2032 16.824C47.9712 17.208 47.6312 17.516 47.1832 17.748C46.7352 17.972 46.2032 18.084 45.5872 18.084ZM52.8997 18.084C52.3157 18.084 51.7877 17.984 51.3157 17.784C50.8517 17.584 50.4837 17.296 50.2117 16.92C49.9397 16.544 49.7997 16.1 49.7917 15.588H51.5917C51.6157 15.932 51.7357 16.204 51.9517 16.404C52.1757 16.604 52.4797 16.704 52.8637 16.704C53.2557 16.704 53.5637 16.612 53.7877 16.428C54.0117 16.236 54.1237 15.988 54.1237 15.684C54.1237 15.436 54.0477 15.232 53.8957 15.072C53.7437 14.912 53.5517 14.788 53.3197 14.7C53.0957 14.604 52.7837 14.5 52.3837 14.388C51.8397 14.228 51.3957 14.072 51.0517 13.92C50.7157 13.76 50.4237 13.524 50.1757 13.212C49.9357 12.892 49.8157 12.468 49.8157 11.94C49.8157 11.444 49.9397 11.012 50.1877 10.644C50.4357 10.276 50.7837 9.996 51.2317 9.804C51.6797 9.604 52.1917 9.504 52.7677 9.504C53.6317 9.504 54.3317 9.716 54.8677 10.14C55.4117 10.556 55.7117 11.14 55.7677 11.892H53.9197C53.9037 11.604 53.7797 11.368 53.5477 11.184C53.3237 10.992 53.0237 10.896 52.6477 10.896C52.3197 10.896 52.0557 10.98 51.8557 11.148C51.6637 11.316 51.5677 11.56 51.5677 11.88C51.5677 12.104 51.6397 12.292 51.7837 12.444C51.9357 12.588 52.1197 12.708 52.3357 12.804C52.5597 12.892 52.8717 12.996 53.2717 13.116C53.8157 13.276 54.2597 13.436 54.6037 13.596C54.9477 13.756 55.2437 13.996 55.4917 14.316C55.7397 14.636 55.8637 15.056 55.8637 15.576C55.8637 16.024 55.7477 16.44 55.5157 16.824C55.2837 17.208 54.9437 17.516 54.4957 17.748C54.0477 17.972 53.5157 18.084 52.8997 18.084Z" fill="black"/>
</svg>
