<svg width="24" height="25" viewBox="0 0 24 25" fill="none" xmlns="http://www.w3.org/2000/svg">
<path d="M12 11.4761C12.8284 11.4761 13.5 10.8045 13.5 9.97607C13.5 9.14765 12.8284 8.47607 12 8.47607C11.1716 8.47607 10.5 9.14765 10.5 9.97607C10.5 10.8045 11.1716 11.4761 12 11.4761Z" fill="#216869"/>
<path d="M12 2.47607C7.86469 2.47607 4.5 5.69404 4.5 9.64795C4.5 11.5309 5.35828 14.035 7.05094 17.0908C8.41031 19.5442 9.98297 21.7628 10.8009 22.8667C10.9392 23.0553 11.1199 23.2087 11.3284 23.3145C11.537 23.4202 11.7676 23.4753 12.0014 23.4753C12.2352 23.4753 12.4658 23.4202 12.6744 23.3145C12.8829 23.2087 13.0637 23.0553 13.2019 22.8667C14.0184 21.7628 15.5925 19.5442 16.9519 17.0908C18.6417 14.0359 19.5 11.5319 19.5 9.64795C19.5 5.69404 16.1353 2.47607 12 2.47607ZM12 12.9761C11.4067 12.9761 10.8266 12.8001 10.3333 12.4705C9.83994 12.1408 9.45542 11.6723 9.22836 11.1241C9.0013 10.5759 8.94189 9.97275 9.05764 9.3908C9.1734 8.80886 9.45912 8.27431 9.87868 7.85475C10.2982 7.4352 10.8328 7.14947 11.4147 7.03372C11.9967 6.91796 12.5999 6.97737 13.1481 7.20444C13.6962 7.4315 14.1648 7.81602 14.4944 8.30936C14.8241 8.80271 15 9.38273 15 9.97607C14.9991 10.7715 14.6828 11.534 14.1204 12.0964C13.5579 12.6589 12.7954 12.9752 12 12.9761Z" fill="#216869"/>
</svg>
