<svg width="22" height="22" viewBox="0 0 22 22" fill="none" xmlns="http://www.w3.org/2000/svg">
<path fill-rule="evenodd" clip-rule="evenodd" d="M11 0.5C11.6213 0.5 12.125 1.00368 12.125 1.625V3.5C12.125 3.52837 12.1239 3.5565 12.1219 3.58435C13.6958 3.82245 15.164 4.55736 16.3033 5.6967C17.4426 6.83603 18.1776 8.30419 18.4157 9.87811C18.4435 9.87605 18.4716 9.875 18.5 9.875H20.375C20.9963 9.875 21.5 10.3787 21.5 11C21.5 11.6213 20.9963 12.125 20.375 12.125H18.5C18.4716 12.125 18.4435 12.1239 18.4156 12.1219C18.2515 13.2067 17.8506 14.247 17.236 15.1668C16.4119 16.4001 15.2406 17.3614 13.8701 17.9291C13.3062 18.1627 12.7191 18.3253 12.1219 18.4156C12.1239 18.4435 12.125 18.4716 12.125 18.5V20.375C12.125 20.9963 11.6213 21.5 11 21.5C10.3787 21.5 9.875 20.9963 9.875 20.375V18.5C9.875 18.4716 9.87605 18.4435 9.87812 18.4156C9.76409 18.3984 9.6503 18.3785 9.53683 18.3559C8.08197 18.0665 6.74559 17.3522 5.6967 16.3033C4.64781 15.2544 3.9335 13.918 3.64411 12.4632C3.62154 12.3497 3.60164 12.2359 3.58438 12.1219C3.55653 12.1239 3.52839 12.125 3.5 12.125H1.625C1.00368 12.125 0.5 11.6213 0.5 11C0.5 10.3787 1.00368 9.875 1.625 9.875H3.5C3.52839 9.875 3.55653 9.87605 3.58438 9.87812C3.67473 9.28094 3.83734 8.69376 4.07091 8.12987C4.63856 6.75943 5.59986 5.58809 6.83323 4.76398C7.75303 4.14938 8.79335 3.74849 9.87812 3.58438C9.87605 3.55652 9.875 3.52838 9.875 3.5V1.625C9.875 1.00368 10.3787 0.5 11 0.5ZM7.66658 6.01118C8.65328 5.35189 9.81331 5 11 5C12.5913 5 14.1174 5.63214 15.2426 6.75736C16.3679 7.88258 17 9.4087 17 11C17 12.1867 16.6481 13.3467 15.9888 14.3334C15.3295 15.3201 14.3925 16.0892 13.2961 16.5433C12.1997 16.9974 10.9933 17.1162 9.82946 16.8847C8.66558 16.6532 7.59648 16.0818 6.75736 15.2426C5.91825 14.4035 5.3468 13.3344 5.11529 12.1705C4.88378 11.0067 5.0026 9.80026 5.45673 8.7039C5.91085 7.60754 6.67989 6.67047 7.66658 6.01118Z" fill="#16559F"/>
</svg>
