<svg width="128" height="128" viewBox="0 0 128 128" fill="none" xmlns="http://www.w3.org/2000/svg">
<path fill-rule="evenodd" clip-rule="evenodd" d="M47.0294 11.2794C51.5303 6.77856 57.6348 4.25 64 4.25C70.3652 4.25 76.4697 6.77856 80.9706 11.2794C85.4714 15.7803 88 21.8848 88 28.25V48H92C100.837 48 108 55.1634 108 64V108C108 116.837 100.837 124 92 124H36C27.1634 124 20 116.837 20 108V64C20 55.1634 27.1634 48 36 48H40V28.25C40 21.8848 42.5286 15.7803 47.0294 11.2794ZM36 56C31.5817 56 28 59.5817 28 64V108C28 112.418 31.5817 116 36 116H92C96.4183 116 100 112.418 100 108V64C100 59.5817 96.4183 56 92 56H36ZM80 48H48V28.25C48 24.0065 49.6857 19.9369 52.6863 16.9363C55.6869 13.9357 59.7565 12.25 64 12.25C68.2435 12.25 72.3131 13.9357 75.3137 16.9363C78.3143 19.9369 80 24.0065 80 28.25V48Z" fill="#121312" fill-opacity="0.5"/>
</svg>
