<svg width="119" height="12" viewBox="0 0 119 12" fill="none" xmlns="http://www.w3.org/2000/svg">
<path d="M5.35035 10.2499L4.85035 10.2499L4.85035 10.6327L5.21992 10.7326L5.35035 10.2499ZM5.35035 1.75048L5.21992 1.26779L4.85035 1.36766L4.85035 1.75048L5.35035 1.75048ZM4.35035 2.1489L4.85035 2.1489L4.85035 1.31081L4.11285 1.70891L4.35035 2.1489ZM4.35035 9.85149L4.11285 10.2915L4.85035 10.6896L4.85035 9.85149L4.35035 9.85149ZM6.60615 10.9152C9.44381 10.9152 11.7123 8.69738 11.7123 6.00019H10.7123C10.7123 8.11483 8.92228 9.91518 6.60615 9.91518V10.9152ZM5.21992 10.7326C5.66034 10.8516 6.1252 10.9152 6.60615 10.9152V9.91518C6.21363 9.91518 5.83648 9.86334 5.48079 9.76722L5.21992 10.7326ZM4.85035 1.75048L4.85035 10.2499L5.85035 10.2499L5.85035 1.75048L4.85035 1.75048ZM6.60615 1.08521C6.1252 1.08521 5.66035 1.14878 5.21992 1.26779L5.48079 2.23317C5.83648 2.13705 6.21363 2.08521 6.60615 2.08521V1.08521ZM11.7123 6.00019C11.7123 3.30301 9.44381 1.08521 6.60615 1.08521V2.08521C8.92228 2.08521 10.7123 3.88556 10.7123 6.00019H11.7123ZM4.11285 1.70891C2.55157 2.55168 1.5 4.1668 1.5 6.00019H2.5C2.5 4.56059 3.32619 3.26993 4.58786 2.58889L4.11285 1.70891ZM1.5 6.00019C1.5 7.83358 2.55157 9.44871 4.11285 10.2915L4.58786 9.4115C3.32619 8.73046 2.5 7.4398 2.5 6.00019H1.5ZM4.85035 9.85149L4.85035 2.1489L3.85035 2.1489L3.85035 9.85149L4.85035 9.85149ZM6.60615 11.9152C9.96199 11.9152 12.7123 9.28316 12.7123 6.00019H11.7123C11.7123 8.69846 9.44269 10.9152 6.60615 10.9152V11.9152ZM0.5 6.00019C0.5 9.28316 3.25031 11.9152 6.60615 11.9152V10.9152C3.76961 10.9152 1.5 8.69846 1.5 6.00019H0.5ZM6.60615 0.0852051C3.25031 0.0852051 0.5 2.71723 0.5 6.00019H1.5C1.5 3.30193 3.76961 1.08521 6.60615 1.08521V0.0852051ZM12.7123 6.00019C12.7123 2.71723 9.96199 0.0852051 6.60615 0.0852051V1.08521C9.44269 1.08521 11.7123 3.30193 11.7123 6.00019H12.7123Z" fill="#216869" fill-opacity="0.5"/>
<path d="M22.7985 0.0171682V1.95708H17.6265V5.03004H21.5899V6.93562H17.6265V12H15.1382V0.0171682H22.7985Z" fill="#216869"/>
<path d="M32.2233 0.0171682V1.95708H27.0512V5.03004H31.0147V6.93562H27.0512V12H24.563V0.0171682H32.2233Z" fill="#216869"/>
<path d="M46.6652 0.0171682V1.95708H43.3593V12H40.8711V1.95708H37.5652V0.0171682H46.6652Z" fill="#216869"/>
<path d="M58.7716 0.0171682V12H56.2833V6.90129H50.969V12H48.4807V0.0171682H50.969V4.94421H56.2833V0.0171682H58.7716Z" fill="#216869"/>
<path d="M63.709 1.95708V4.96137H67.8857V6.86695H63.709V10.0429H68.4189V12H61.2207V0H68.4189V1.95708H63.709Z" fill="#216869"/>
<path d="M83.9619 3.72532C83.9619 4.36624 83.802 4.9671 83.482 5.5279C83.174 6.0887 82.6822 6.54077 82.0068 6.88412C81.3433 7.22747 80.502 7.39914 79.483 7.39914H77.4035V12H74.9152V0.0171682H79.483C80.4428 0.0171682 81.2604 0.177397 81.9358 0.497855C82.6111 0.818313 83.1147 1.25894 83.4465 1.81974C83.7901 2.38054 83.9619 3.01574 83.9619 3.72532ZM79.3764 5.45923C80.0636 5.45923 80.5731 5.31044 80.9049 5.01288C81.2367 4.70386 81.4026 4.27468 81.4026 3.72532C81.4026 2.55794 80.7272 1.97425 79.3764 1.97425H77.4035V5.45923H79.3764Z" fill="#216869"/>
<path d="M93.3356 9.71674H88.3946L87.577 12H84.9643L89.4255 0H92.3225L96.7837 12H94.1532L93.3356 9.71674ZM92.6602 7.79399L90.8651 2.78112L89.07 7.79399H92.6602Z" fill="#216869"/>
<path d="M106.894 0.0171682V1.95708H103.588V12H101.099V1.95708H97.7936V0.0171682H106.894Z" fill="#216869"/>
<path d="M119 0.0171682V12H116.512V6.90129H111.197V12H108.709V0.0171682H111.197V4.94421H116.512V0.0171682H119Z" fill="#216869"/>
</svg>
