<svg width="27" height="19" viewBox="0 0 27 19" fill="none" xmlns="http://www.w3.org/2000/svg">
<path d="M17.6966 9.30409C16.6169 9.30409 15.5791 8.82189 14.7615 7.95183C13.97 7.10273 13.4826 5.96536 13.3987 4.75461C13.3096 3.46525 13.7027 2.27546 14.5046 1.41064C15.3066 0.551066 16.4387 0.0793457 17.6966 0.0793457C18.944 0.0793457 20.0762 0.556307 20.8781 1.41589C21.6905 2.28595 22.0836 3.47049 21.9893 4.74937C21.9002 5.96012 21.418 7.09749 20.6265 7.94658C19.8141 8.82189 18.7763 9.30409 17.6966 9.30409ZM17.6966 1.75657C16.9104 1.75657 16.2133 2.0396 15.7364 2.55325C15.2437 3.08263 15.0183 3.80069 15.0759 4.63406C15.1336 5.46219 15.4586 6.23791 15.9932 6.80922C16.4859 7.33859 17.0939 7.62686 17.6966 7.62686C18.3046 7.62686 18.9074 7.33335 19.4 6.80922C19.9347 6.23791 20.2596 5.46743 20.3173 4.63406C20.3749 3.8269 20.1391 3.08787 19.6464 2.56374C19.1694 2.0396 18.4723 1.75657 17.6966 1.75657Z" fill="#121312" fill-opacity="0.5"/>
<path d="M24.6047 18.5289H10.7885C10.3325 18.5289 9.91324 18.3245 9.63545 17.9681C9.34718 17.596 9.24235 17.0928 9.35766 16.6158C9.79793 14.8443 10.8934 13.3767 12.5182 12.3651C13.9595 11.4689 15.7993 10.9762 17.6914 10.9762C19.6202 10.9762 21.4127 11.4479 22.8646 12.3442C24.4946 13.3453 25.5901 14.8233 26.0303 16.6158C26.1456 17.0928 26.0408 17.596 25.7525 17.9681C25.48 18.3245 25.0607 18.5289 24.6047 18.5289ZM11.0349 16.8517H24.3636C23.4988 13.7593 20.2544 12.6586 17.6966 12.6586C15.1493 12.6586 11.9102 13.7593 11.0349 16.8517Z" fill="#121312" fill-opacity="0.5"/>
<path d="M7.79049 9.51364C5.94554 9.51364 4.32597 7.79972 4.17397 5.69271C4.09535 4.61299 4.43079 3.61714 5.11217 2.88335C5.7883 2.16005 6.73698 1.76171 7.78524 1.76171C8.82827 1.76171 9.77695 2.16529 10.4531 2.89383C11.1397 3.63286 11.4751 4.62872 11.3965 5.69795C11.255 7.79972 9.63019 9.51364 7.79049 9.51364ZM7.79049 3.43369C7.21394 3.43369 6.70029 3.64335 6.34388 4.02596C5.97699 4.41906 5.80402 4.95368 5.85119 5.57216C5.9403 6.79863 6.82608 7.83641 7.79049 7.83641C8.75489 7.83641 9.64592 6.79863 9.72978 5.57216C9.77171 4.9694 9.5935 4.4243 9.23185 4.0312C8.87544 3.64334 8.36179 3.43369 7.79049 3.43369Z" fill="#121312" fill-opacity="0.5"/>
<path d="M8.15739 16.8515H2.27138C1.85731 16.8515 1.4747 16.6628 1.21787 16.3431C0.955804 16.0077 0.86146 15.5464 0.966287 15.1166C1.32794 13.6543 2.22945 12.4488 3.56599 11.6207C4.74529 10.8921 6.24431 10.4885 7.78526 10.4885C9.10607 10.4885 10.233 10.7087 11.2288 11.1647C11.6481 11.3586 11.8368 11.8565 11.6429 12.2758C11.449 12.6951 10.951 12.8838 10.5317 12.6899C9.76124 12.3387 8.86497 12.1658 7.7905 12.1658C5.87741 12.1658 3.46116 12.9624 2.69593 15.1795H8.15739C8.61863 15.1795 8.99601 15.5569 8.99601 16.0181C8.99601 16.4794 8.61863 16.8515 8.15739 16.8515Z" fill="#121312" fill-opacity="0.5"/>
</svg>
