<svg width="25" height="18" viewBox="0 0 25 18" fill="none" xmlns="http://www.w3.org/2000/svg">
<path d="M16.4299 9.30371C15.4199 9.30371 14.4433 8.85275 13.6789 8.03432C12.9356 7.23604 12.4817 6.1715 12.4017 5.0377C12.3162 3.82824 12.6851 2.71605 13.4402 1.90549C14.1952 1.09493 15.2509 0.657715 16.4299 0.657715C17.6006 0.657715 18.6592 1.10279 19.4118 1.91138C20.1718 2.72784 20.5417 3.83807 20.4562 5.03721C20.3742 6.17249 19.9207 7.23653 19.1789 8.03383C18.4165 8.85275 17.4404 9.30371 16.4299 9.30371Z" fill="#216869"/>
<path d="M22.9061 17.9497H9.95425C9.74601 17.9508 9.5403 17.9042 9.35293 17.8133C9.16557 17.7224 9.00155 17.5898 8.8735 17.4255C8.73767 17.2475 8.64387 17.0411 8.59912 16.8217C8.55437 16.6023 8.55983 16.3756 8.6151 16.1586C9.02873 14.4977 10.0535 13.1202 11.5783 12.1756C12.9317 11.3375 14.6545 10.8757 16.4299 10.8757C18.2402 10.8757 19.9178 11.3178 21.279 12.1554C22.8073 13.0952 23.8335 14.4805 24.2452 16.1616C24.2998 16.3787 24.3046 16.6054 24.2594 16.8247C24.2141 17.044 24.12 17.2502 23.9839 17.428C23.8559 17.5915 23.6923 17.7235 23.5055 17.8139C23.3187 17.9043 23.1136 17.9508 22.9061 17.9497Z" fill="#216869"/>
<path d="M7.14528 9.50021C5.41657 9.50021 3.89664 7.89284 3.75565 5.91753C3.6859 4.90555 4.00128 3.96972 4.6399 3.28345C5.27165 2.60405 6.16278 2.22971 7.14528 2.22971C8.12778 2.22971 9.01203 2.60601 9.64722 3.28934C10.2908 3.98102 10.6052 4.91489 10.5315 5.91851C10.3905 7.89334 8.87104 9.50021 7.14528 9.50021Z" fill="#216869"/>
<path d="M10.3708 11.0452C9.50672 10.6227 8.38519 10.4115 7.14577 10.4115C5.69855 10.4115 4.29308 10.7888 3.18777 11.4736C1.93459 12.2512 1.09161 13.3835 0.75117 14.7507C0.70135 14.9473 0.696638 15.1527 0.737386 15.3514C0.778135 15.5501 0.863289 15.7371 0.986479 15.8983C1.10337 16.0483 1.25312 16.1696 1.42422 16.2527C1.59531 16.3358 1.78319 16.3786 1.9734 16.3777H7.42627C7.51831 16.3777 7.60742 16.3454 7.67807 16.2864C7.74873 16.2274 7.79644 16.1455 7.81289 16.055C7.81829 16.024 7.82517 15.9931 7.83303 15.9626C8.24961 14.2894 9.22572 12.8756 10.668 11.845C10.7211 11.8067 10.7637 11.7558 10.7922 11.6969C10.8206 11.638 10.8339 11.573 10.8308 11.5077C10.8277 11.4424 10.8084 11.3788 10.7746 11.3229C10.7407 11.2669 10.6935 11.2203 10.6371 11.1872C10.56 11.142 10.4715 11.0943 10.3708 11.0452Z" fill="#216869"/>
</svg>
