<svg width="32" height="32" viewBox="0 0 32 32" fill="none" xmlns="http://www.w3.org/2000/svg">
<path d="M18.1229 16.0004L24.0604 10.0629C24.3422 9.78161 24.5007 9.39989 24.501 9.00173C24.5014 8.60357 24.3435 8.22157 24.0623 7.93978C23.781 7.65799 23.3992 7.49948 23.0011 7.49913C22.6029 7.49878 22.2209 7.65661 21.9391 7.9379L16.0016 13.8754L10.0641 7.9379C9.78233 7.65611 9.40014 7.4978 9.00163 7.4978C8.60311 7.4978 8.22092 7.65611 7.93913 7.9379C7.65733 8.2197 7.49902 8.60189 7.49902 9.0004C7.49902 9.39892 7.65733 9.78111 7.93913 10.0629L13.8766 16.0004L7.93913 21.9379C7.65733 22.2197 7.49902 22.6019 7.49902 23.0004C7.49902 23.3989 7.65733 23.7811 7.93913 24.0629C8.22092 24.3447 8.60311 24.503 9.00163 24.503C9.40014 24.503 9.78233 24.3447 10.0641 24.0629L16.0016 18.1254L21.9391 24.0629C22.2209 24.3447 22.6031 24.503 23.0016 24.503C23.4001 24.503 23.7823 24.3447 24.0641 24.0629C24.3459 23.7811 24.5042 23.3989 24.5042 23.0004C24.5042 22.6019 24.3459 22.2197 24.0641 21.9379L18.1229 16.0004Z" fill="#121312"/>
</svg>
