<svg width="24" height="24" viewBox="0 0 24 24" fill="none" xmlns="http://www.w3.org/2000/svg">
<path fill-rule="evenodd" clip-rule="evenodd" d="M3.00001 6C3.00001 5.17157 3.67158 4.5 4.50001 4.5H19.5C20.3284 4.5 21 5.17157 21 6V15.648L18.7827 13.7988L18.7819 13.7981C18.3502 13.4391 17.7999 13.2545 17.239 13.2805C16.6783 13.3065 16.1476 13.5412 15.751 13.9384L15.7507 13.9387L14.6298 15.0596L10.5306 10.968L10.5302 10.9677L10.5302 10.9676C10.1246 10.5623 9.57955 10.3272 9.00643 10.3102C8.43309 10.2932 7.87492 10.4958 7.44598 10.8766L7.44557 10.877L3.00001 14.8296V6ZM13.5692 16.1202L9.47049 12.0293L9.47005 12.0288C9.33484 11.8936 9.15311 11.8152 8.962 11.8095C8.77093 11.8039 8.5849 11.8714 8.44194 11.9983L8.44185 11.9983L3.00001 16.8367V18C3.00001 18.8284 3.67158 19.5 4.50001 19.5H10.1894L13.5692 16.1202ZM10.4918 21C10.4973 21.0001 10.5027 21.0001 10.5082 21H19.5C21.1569 21 22.5 19.6569 22.5 18V17.2556C22.5 17.2522 22.5 17.2487 22.5 17.2453V6C22.5 4.34315 21.1569 3 19.5 3H4.50001C2.84315 3 1.50001 4.34315 1.50001 6V16.4968C1.5 16.4991 1.5 16.5014 1.50001 16.5037V18C1.50001 19.6569 2.84315 21 4.50001 21H10.4918ZM21 17.6011V18C21 18.8284 20.3284 19.5 19.5 19.5H12.3107L16.8119 14.9988L16.8124 14.9983C16.9446 14.8658 17.1216 14.7876 17.3085 14.7789C17.4953 14.7702 17.6786 14.8316 17.8225 14.9511L17.8228 14.9514L21 17.6011ZM15 8.25C15 7.83579 15.3358 7.5 15.75 7.5C16.1642 7.5 16.5 7.83579 16.5 8.25C16.5 8.66421 16.1642 9 15.75 9C15.3358 9 15 8.66421 15 8.25ZM15.75 6C14.5074 6 13.5 7.00736 13.5 8.25C13.5 9.49264 14.5074 10.5 15.75 10.5C16.9927 10.5 18 9.49264 18 8.25C18 7.00736 16.9927 6 15.75 6Z" fill="#121312" fill-opacity="0.5"/>
</svg>
