<svg width="18" height="22" viewBox="0 0 18 22" fill="none" xmlns="http://www.w3.org/2000/svg">
<path fill-rule="evenodd" clip-rule="evenodd" d="M15.7146 0.544162C15.8947 0.495714 16.0835 0.489242 16.2665 0.525246C16.4496 0.561268 16.622 0.638848 16.7704 0.752008C16.9187 0.86517 17.0391 1.01089 17.1223 1.17792C17.2054 1.34496 17.2491 1.52886 17.25 1.71546L17.25 1.71891V16.6223C17.25 17.612 16.6119 18.4304 15.7176 18.7362L14.6938 19.1084C14.6882 19.1105 14.6825 19.1125 14.6768 19.1144C12.9637 19.6912 11.252 18.4147 11.25 16.6255C11.2465 16.1353 11.3988 15.6566 11.685 15.2585C11.9697 14.8624 12.3722 14.5665 12.8349 14.4128L15.2173 13.565C15.2213 13.5635 15.2254 13.5621 15.2295 13.5608C15.5591 13.4498 15.75 13.1796 15.75 12.8723V6.22013C15.7498 6.19164 15.7432 6.16356 15.7305 6.13803C15.7178 6.1123 15.6993 6.08984 15.6765 6.07239C15.6537 6.05493 15.6272 6.04294 15.599 6.03735C15.5708 6.03176 15.5418 6.03271 15.514 6.04014L15.5139 6.04018L7.32997 8.2283C7.32925 8.2285 7.32853 8.22869 7.3278 8.22888C7.32507 8.2296 7.32233 8.23031 7.31959 8.231C6.96866 8.31947 6.75 8.60246 6.75 8.93766V18.8752C6.75 19.865 6.11216 20.6837 5.21736 20.9891L4.19381 21.3613C4.18793 21.3634 4.18202 21.3655 4.17609 21.3674C2.48908 21.9335 0.75 20.6734 0.75 18.8752C0.75 17.8969 1.30261 16.9994 2.28855 16.6655L4.72342 15.8227C4.72459 15.8223 4.72577 15.8219 4.72695 15.8215L4.72946 15.8206C5.05495 15.711 5.25 15.4366 5.25 15.1252V4.53408C5.24798 4.20153 5.3549 3.87743 5.55447 3.61133C5.75479 3.34424 6.03735 3.15039 6.35864 3.05965C6.36065 3.05908 6.36267 3.05852 6.36468 3.05797C6.36571 3.05769 6.36674 3.05741 6.36777 3.05713L15.7144 0.544237C15.7145 0.544212 15.7146 0.544187 15.7146 0.544162ZM6.75 6.83753C6.8144 6.81493 6.88018 6.79503 6.94719 6.77796L15.1263 4.59112L15.1264 4.59108C15.33 4.53664 15.5415 4.5209 15.75 4.54421V2.08792L6.76504 4.50359C6.76084 4.50506 6.75715 4.50775 6.75447 4.51133C6.75151 4.51527 6.74993 4.52008 6.74997 4.52502C6.74998 4.52628 6.74999 4.52754 6.75 4.5288C6.75 4.52967 6.75 4.53054 6.75 4.53141V6.83753ZM5.25 17.2276C5.23717 17.2322 5.2243 17.2367 5.21136 17.2411L2.77658 18.0839C2.77468 18.0846 2.77278 18.0852 2.77088 18.0858C2.45749 18.1915 2.25 18.4688 2.25 18.8752C2.25 19.6596 2.99169 20.177 3.69116 19.9479L4.71244 19.5766C4.71809 19.5745 4.72376 19.5725 4.72946 19.5706C5.05509 19.461 5.25 19.1869 5.25 18.8752V17.2276ZM15.75 14.9678C15.7383 14.972 15.7265 14.9761 15.7147 14.9801L13.3296 15.8289C13.3235 15.8311 13.3173 15.8332 13.3112 15.8352C13.1469 15.8889 13.0039 15.9936 12.903 16.1339C12.8021 16.2743 12.7485 16.4431 12.75 16.616C12.75 16.6181 12.75 16.6202 12.75 16.6223C12.75 17.4143 13.479 17.9296 14.1907 17.6953L15.2124 17.3238C15.2179 17.3218 15.2234 17.3198 15.229 17.318C15.5553 17.2079 15.75 16.9334 15.75 16.6223V14.9678Z" fill="#16559F"/>
</svg>
