<svg width="18" height="18" viewBox="0 0 18 18" fill="none" xmlns="http://www.w3.org/2000/svg">
<path fill-rule="evenodd" clip-rule="evenodd" d="M15.7351 3.1902L8.59138 10.334L10.8887 15.9952L15.7351 3.1902ZM7.70747 9.4501L14.8512 2.30631L2.04356 7.1537L7.70747 9.4501ZM17.6866 1.56538L11.7737 17.1883C11.7729 17.1906 11.772 17.1928 11.7711 17.195C11.7708 17.1958 11.7705 17.1966 11.7702 17.1974C11.6996 17.3754 11.5763 17.5276 11.4167 17.6334C11.257 17.7392 11.0689 17.7935 10.8774 17.7892C10.686 17.7849 10.5005 17.722 10.3458 17.6091C10.1969 17.5003 10.0835 17.3502 10.0195 17.1775L7.3913 10.7009C7.38634 10.6887 7.38177 10.6764 7.3776 10.6638C7.36515 10.6597 7.35284 10.6551 7.34068 10.6502L0.866358 8.02525C0.693022 7.96232 0.541896 7.84959 0.432128 7.70095C0.317334 7.5455 0.25338 7.35838 0.249018 7.16519C0.244657 6.97199 0.3001 6.78218 0.407763 6.62171C0.515425 6.46123 0.670045 6.33795 0.850462 6.26874L0.853108 6.26773L16.4761 0.354831C16.4765 0.354652 16.477 0.354475 16.4775 0.354297C16.6462 0.290075 16.8299 0.275929 17.0064 0.313574C17.1835 0.351324 17.3459 0.439538 17.4739 0.567556C17.6019 0.695575 17.6901 0.857924 17.7279 1.035C17.7655 1.21145 17.7514 1.39499 17.6873 1.56361C17.6871 1.5642 17.6868 1.56479 17.6866 1.56538Z" fill="#121312"/>
</svg>
