<svg width="24" height="20" viewBox="0 0 24 20" fill="none" xmlns="http://www.w3.org/2000/svg">
<path d="M19.5609 12.6249C19.289 12.6249 19.0219 12.5733 18.7687 12.4749H18.764C18.2062 12.2499 17.7703 11.8046 17.5125 11.1858C17.1187 10.2483 17.175 8.99679 17.6625 7.8296C18.3234 6.23585 19.6312 5.14835 20.9062 5.1296H20.9344C21.2062 5.1296 21.4781 5.18116 21.7312 5.2796H21.7359C22.2937 5.5046 22.725 5.94991 22.9875 6.56866C23.3812 7.50616 23.3297 8.75772 22.8469 9.92491C22.1719 11.5421 20.8547 12.6249 19.5656 12.6249H19.5609ZM19.3219 11.078C19.4015 11.1062 19.4812 11.1249 19.5656 11.1249C20.1281 11.1249 20.9812 10.5015 21.4594 9.34835C21.7875 8.55616 21.8437 7.71241 21.6047 7.14991C21.5015 6.90616 21.3609 6.74679 21.1781 6.67179C21.0984 6.64366 21.0187 6.62491 20.9344 6.62491H20.9203C20.3625 6.63429 19.5187 7.26241 19.0453 8.40147C18.7172 9.19366 18.6562 10.0374 18.8953 10.6046C18.9984 10.8437 19.139 11.0077 19.3219 11.078Z" fill="#16559F"/>
<path d="M17.2875 19.75C16.4531 19.75 15.5718 19.4594 14.639 19.1547C13.739 18.8594 12.8109 18.5594 12.0047 18.5594C11.1984 18.5594 10.2656 18.8641 9.36559 19.1547C8.42809 19.4594 7.54216 19.75 6.71247 19.75C5.09997 19.75 3.78747 18.3812 3.78747 16.6984C3.78278 16.2953 3.85778 15.9016 4.00309 15.5266C4.37809 14.4906 5.25465 13.9656 6.10309 13.4547C6.84372 13.0094 7.54216 12.5922 7.99684 11.8375C9.25309 9.75625 10.0125 8.5 12 8.5C13.9875 8.5 14.7422 9.75625 15.9984 11.8375C16.4531 12.5875 17.1468 13.0094 17.8875 13.45C18.7359 13.9609 19.6078 14.4859 19.9875 15.5266C20.1375 15.9016 20.2125 16.2953 20.2078 16.6984C20.2078 18.3812 18.9 19.75 17.2875 19.75ZM12.0047 17.0594C13.05 17.0594 14.0906 17.4016 15.1031 17.7297C15.9234 17.9969 16.6922 18.25 17.2875 18.25C18.0703 18.25 18.7078 17.5516 18.7078 16.6937C18.7078 16.4781 18.6703 16.2719 18.5906 16.0703L18.5812 16.0422C18.3984 15.5266 17.9015 15.2078 17.114 14.7344C16.2937 14.2422 15.3609 13.6797 14.714 12.6109C13.4156 10.4594 13.0406 10 12 10C10.9593 10 10.5797 10.4594 9.28122 12.6156C8.63434 13.6891 7.70153 14.2469 6.87653 14.7438C6.16403 15.1703 5.60622 15.5078 5.40934 16.0469L5.39997 16.0703C5.32028 16.2672 5.28278 16.4781 5.28278 16.6891V16.6937C5.28278 17.5516 5.92028 18.25 6.70778 18.25C7.30309 18.25 8.07653 17.9969 8.89684 17.7297C9.91403 17.4016 10.9593 17.0594 12.0047 17.0594Z" fill="#16559F"/>
<path d="M9.0234 7.9375C8.29684 7.9375 7.58902 7.55312 7.02652 6.85469C6.52965 6.23125 6.18277 5.39219 6.05152 4.49219C5.74215 2.35 6.68434 0.498438 8.20309 0.273438C8.30153 0.259375 8.39996 0.25 8.50309 0.25C9.22965 0.25 9.93747 0.634375 10.4953 1.33281C10.9922 1.95625 11.339 2.79531 11.4703 3.7C11.7797 5.84219 10.8375 7.69375 9.31872 7.91875C9.22497 7.92813 9.12184 7.9375 9.0234 7.9375ZM8.50778 1.75C8.48434 1.75 8.45621 1.75 8.43278 1.75469H8.42809C7.85153 1.83906 7.34996 2.93125 7.54215 4.27188C7.72965 5.56563 8.4609 6.43281 9.0234 6.43281C9.04684 6.43281 9.07496 6.43281 9.0984 6.42813H9.10309C9.67965 6.34375 10.1812 5.25156 9.98903 3.91094C9.80153 2.61719 9.07028 1.75 8.50778 1.75Z" fill="#16559F"/>
<path d="M14.9766 7.9375C14.8781 7.9375 14.7797 7.92812 14.6813 7.91406C13.1625 7.69375 12.2156 5.84219 12.5297 3.69531C12.6609 2.79063 13.0078 1.95156 13.5047 1.33281C14.0578 0.634375 14.7656 0.25 15.4922 0.25C15.5906 0.25 15.6938 0.259375 15.7922 0.273438C17.3063 0.49375 18.2531 2.34531 17.9438 4.49219C17.8125 5.39219 17.4703 6.23125 16.9735 6.85469C16.411 7.55312 15.7031 7.9375 14.9766 7.9375ZM15.4922 1.75C14.9297 1.75 14.1984 2.61719 14.0109 3.91094C13.8188 5.25156 14.3203 6.34375 14.8969 6.42813H14.9016C14.925 6.43281 14.9531 6.4375 14.9766 6.43281C15.5438 6.43281 16.2703 5.56563 16.4578 4.27188C16.65 2.93125 16.1485 1.83906 15.5719 1.75469C15.5438 1.75 15.5156 1.75 15.4922 1.75Z" fill="#16559F"/>
<path d="M4.43901 12.6249H4.43433C3.14995 12.6249 1.83276 11.5374 1.16245 9.92491C0.67495 8.75772 0.623387 7.50147 1.01245 6.56866C1.27026 5.94991 1.7062 5.5046 2.26401 5.2796H2.2687C2.52651 5.18116 2.7937 5.1296 3.07026 5.1296C4.35464 5.1296 5.67183 6.2171 6.34214 7.8296C6.82964 8.99679 6.8812 10.253 6.49214 11.1858C6.23433 11.8046 5.79839 12.2499 5.24058 12.4749H5.23589C4.97808 12.5733 4.71089 12.6249 4.43901 12.6249ZM2.81714 6.67179C2.63901 6.74679 2.4937 6.90616 2.39057 7.14991C2.15151 7.7171 2.21245 8.56085 2.54057 9.35304C3.02339 10.5015 3.87651 11.1249 4.43433 11.1249C4.52339 11.1249 4.60308 11.1108 4.67808 11.078C4.8562 11.003 5.00151 10.8437 5.10464 10.5999C5.3437 10.0327 5.28276 9.18898 4.95464 8.39679C4.47651 7.24835 3.62339 6.62491 3.06558 6.62491C2.97651 6.62491 2.89682 6.63898 2.81714 6.67179Z" fill="#16559F"/>
</svg>
