<svg width="52" height="12" viewBox="0 0 52 12" fill="none" xmlns="http://www.w3.org/2000/svg">
<path d="M9.142 1.242L5.46 11H3.99L0.308 1.242H1.666L4.732 9.656L7.798 1.242H9.142ZM17.5389 6.87C17.5389 7.11267 17.5249 7.36933 17.4969 7.64H11.3649C11.4116 8.396 11.6683 8.98867 12.1349 9.418C12.6109 9.838 13.1849 10.048 13.8569 10.048C14.4076 10.048 14.8649 9.922 15.2289 9.67C15.6023 9.40867 15.8636 9.06333 16.0129 8.634H17.3849C17.1796 9.37133 16.7689 9.97333 16.1529 10.44C15.5369 10.8973 14.7716 11.126 13.8569 11.126C13.1289 11.126 12.4756 10.9627 11.8969 10.636C11.3276 10.3093 10.8796 9.84733 10.5529 9.25C10.2263 8.64333 10.0629 7.94333 10.0629 7.15C10.0629 6.35667 10.2216 5.66133 10.5389 5.064C10.8563 4.46667 11.2996 4.00933 11.8689 3.692C12.4476 3.36533 13.1103 3.202 13.8569 3.202C14.5849 3.202 15.2289 3.36067 15.7889 3.678C16.3489 3.99533 16.7783 4.434 17.0769 4.994C17.3849 5.54467 17.5389 6.17 17.5389 6.87ZM16.2229 6.604C16.2229 6.11867 16.1156 5.70333 15.9009 5.358C15.6863 5.00333 15.3923 4.73733 15.0189 4.56C14.6549 4.37333 14.2489 4.28 13.8009 4.28C13.1569 4.28 12.6063 4.48533 12.1489 4.896C11.7009 5.30667 11.4443 5.876 11.3789 6.604H16.2229ZM20.4946 4.574C20.7186 4.13533 21.0359 3.79467 21.4466 3.552C21.8666 3.30933 22.3752 3.188 22.9726 3.188V4.504H22.6366C21.2086 4.504 20.4946 5.27867 20.4946 6.828V11H19.2206V3.328H20.4946V4.574ZM25.1012 2.082C24.8586 2.082 24.6532 1.998 24.4852 1.83C24.3172 1.662 24.2332 1.45667 24.2332 1.214C24.2332 0.971333 24.3172 0.766 24.4852 0.598C24.6532 0.43 24.8586 0.345999 25.1012 0.345999C25.3346 0.345999 25.5306 0.43 25.6892 0.598C25.8572 0.766 25.9412 0.971333 25.9412 1.214C25.9412 1.45667 25.8572 1.662 25.6892 1.83C25.5306 1.998 25.3346 2.082 25.1012 2.082ZM25.7172 3.328V11H24.4432V3.328H25.7172ZM31.0105 4.378H29.4005V11H28.1265V4.378H27.1325V3.328H28.1265V2.782C28.1265 1.92333 28.3459 1.298 28.7845 0.906C29.2325 0.504666 29.9465 0.303999 30.9265 0.303999V1.368C30.3665 1.368 29.9699 1.48 29.7365 1.704C29.5125 1.91867 29.4005 2.278 29.4005 2.782V3.328H31.0105V4.378ZM33.154 2.082C32.9113 2.082 32.706 1.998 32.538 1.83C32.37 1.662 32.286 1.45667 32.286 1.214C32.286 0.971333 32.37 0.766 32.538 0.598C32.706 0.43 32.9113 0.345999 33.154 0.345999C33.3873 0.345999 33.5833 0.43 33.742 0.598C33.91 0.766 33.994 0.971333 33.994 1.214C33.994 1.45667 33.91 1.662 33.742 1.83C33.5833 1.998 33.3873 2.082 33.154 2.082ZM33.77 3.328V11H32.496V3.328H33.77ZM42.9413 6.87C42.9413 7.11267 42.9273 7.36933 42.8993 7.64H36.7673C36.8139 8.396 37.0706 8.98867 37.5373 9.418C38.0133 9.838 38.5873 10.048 39.2593 10.048C39.8099 10.048 40.2673 9.922 40.6313 9.67C41.0046 9.40867 41.2659 9.06333 41.4153 8.634H42.7873C42.5819 9.37133 42.1713 9.97333 41.5553 10.44C40.9393 10.8973 40.1739 11.126 39.2593 11.126C38.5313 11.126 37.8779 10.9627 37.2993 10.636C36.7299 10.3093 36.2819 9.84733 35.9553 9.25C35.6286 8.64333 35.4653 7.94333 35.4653 7.15C35.4653 6.35667 35.6239 5.66133 35.9413 5.064C36.2586 4.46667 36.7019 4.00933 37.2713 3.692C37.8499 3.36533 38.5126 3.202 39.2593 3.202C39.9873 3.202 40.6313 3.36067 41.1913 3.678C41.7513 3.99533 42.1806 4.434 42.4793 4.994C42.7873 5.54467 42.9413 6.17 42.9413 6.87ZM41.6253 6.604C41.6253 6.11867 41.5179 5.70333 41.3033 5.358C41.0886 5.00333 40.7946 4.73733 40.4213 4.56C40.0573 4.37333 39.6513 4.28 39.2033 4.28C38.5593 4.28 38.0086 4.48533 37.5513 4.896C37.1033 5.30667 36.8466 5.876 36.7813 6.604H41.6253ZM44.1469 7.136C44.1469 6.352 44.3056 5.666 44.6229 5.078C44.9403 4.48067 45.3743 4.01867 45.9249 3.692C46.4849 3.36533 47.1103 3.202 47.8009 3.202C48.3983 3.202 48.9536 3.342 49.4669 3.622C49.9803 3.89267 50.3723 4.252 50.6429 4.7V0.64H51.9309V11H50.6429V9.558C50.3909 10.0153 50.0176 10.3933 49.5229 10.692C49.0283 10.9813 48.4496 11.126 47.7869 11.126C47.1056 11.126 46.4849 10.958 45.9249 10.622C45.3743 10.286 44.9403 9.81467 44.6229 9.208C44.3056 8.60133 44.1469 7.91067 44.1469 7.136ZM50.6429 7.15C50.6429 6.57133 50.5263 6.06733 50.2929 5.638C50.0596 5.20867 49.7423 4.882 49.3409 4.658C48.9489 4.42467 48.5149 4.308 48.0389 4.308C47.5629 4.308 47.1289 4.42 46.7369 4.644C46.3449 4.868 46.0323 5.19467 45.7989 5.624C45.5656 6.05333 45.4489 6.55733 45.4489 7.136C45.4489 7.724 45.5656 8.23733 45.7989 8.676C46.0323 9.10533 46.3449 9.43667 46.7369 9.67C47.1289 9.894 47.5629 10.006 48.0389 10.006C48.5149 10.006 48.9489 9.894 49.3409 9.67C49.7423 9.43667 50.0596 9.10533 50.2929 8.676C50.5263 8.23733 50.6429 7.72867 50.6429 7.15Z" fill="#04BD00"/>
</svg>
