<svg width="16" height="16" viewBox="0 0 16 16" fill="none" xmlns="http://www.w3.org/2000/svg">
<path fill-rule="evenodd" clip-rule="evenodd" d="M0.125 7.97925C0.125 3.63019 3.65094 0.104248 8 0.104248C12.3491 0.104248 15.875 3.63019 15.875 7.97925C15.875 12.3283 12.3491 15.8542 8 15.8542C3.65094 15.8542 0.125 12.3283 0.125 7.97925ZM10.7934 14.1259C11.3487 13.8731 11.8638 13.5472 12.3263 13.1606C12.0885 13.0046 11.8398 12.8609 11.5814 12.7308C11.4743 12.9729 11.3595 13.204 11.2378 13.423C11.101 13.6694 10.9525 13.905 10.7934 14.1259ZM11.9782 11.672C12.3865 11.8705 12.7752 12.0987 13.1409 12.3536C14.0304 11.3091 14.6074 9.99026 14.7269 8.54175H12.5116C12.4639 9.66378 12.2749 10.7248 11.9782 11.672ZM11.3855 8.54175C11.3401 9.51838 11.1782 10.4329 10.9327 11.2443C10.1856 10.9926 9.38972 10.8345 8.5625 10.785V8.54175H11.3855ZM12.5116 7.41675H14.7269C14.6074 5.96823 14.0304 4.64936 13.1409 3.60493C12.7752 3.85979 12.3865 4.08797 11.9782 4.28646C12.2749 5.23373 12.4639 6.29471 12.5116 7.41675ZM10.9327 4.71424C11.1782 5.52565 11.3401 6.44011 11.3855 7.41675H8.5625V5.17351C9.38972 5.12395 10.1856 4.96586 10.9327 4.71424ZM11.5814 3.22765C11.8398 3.09758 12.0885 2.95394 12.3263 2.79786C11.8638 2.41125 11.3487 2.08541 10.7934 1.83262C10.9525 2.05353 11.101 2.28914 11.2378 2.53545C11.3595 2.75448 11.4743 2.98562 11.5814 3.22765ZM5.20662 1.83262C4.6513 2.08541 4.13624 2.41125 3.67372 2.79786C3.91154 2.95394 4.16024 3.09758 4.41864 3.22765C4.52574 2.98562 4.64051 2.75448 4.76217 2.53545C4.89899 2.28914 5.04747 2.05353 5.20662 1.83262ZM4.02184 4.28646C3.61348 4.08797 3.22475 3.85979 2.85915 3.60493C1.96957 4.64936 1.39262 5.96823 1.27311 7.41675H3.48838C3.53611 6.29471 3.7251 5.23373 4.02184 4.28646ZM4.61448 7.41675C4.65989 6.44011 4.82178 5.52565 5.06725 4.71424C5.81443 4.96586 6.61028 5.12395 7.4375 5.17351V7.41675H4.61448ZM3.48838 8.54175H1.27311C1.39262 9.99026 1.96957 11.3091 2.85915 12.3536C3.22475 12.0987 3.61348 11.8705 4.02184 11.672C3.7251 10.7248 3.53611 9.66378 3.48838 8.54175ZM5.06725 11.2443C4.82178 10.4329 4.65989 9.51838 4.61448 8.54175H7.4375V10.785C6.61028 10.8345 5.81443 10.9926 5.06725 11.2443ZM4.41864 12.7308C4.52574 12.9729 4.64051 13.204 4.76217 13.423C4.89899 13.6694 5.04747 13.905 5.20662 14.1259C4.6513 13.8731 4.13624 13.5472 3.67372 13.1606C3.91154 13.0046 4.16024 12.8609 4.41864 12.7308ZM5.45817 12.2998C6.08194 12.0927 6.74599 11.9594 7.4375 11.9123V14.6137C6.87041 14.386 6.26855 13.8181 5.74563 12.8768C5.64472 12.6951 5.54864 12.5024 5.45817 12.2998ZM8.5625 11.9123C9.25401 11.9594 9.91806 12.0927 10.5418 12.2998C10.4514 12.5024 10.3553 12.6951 10.2544 12.8768C9.73145 13.8181 9.12959 14.386 8.5625 14.6137V11.9123ZM7.4375 4.04621C6.74599 3.99908 6.08194 3.86582 5.45817 3.65873C5.54864 3.45607 5.64472 3.26342 5.74563 3.08174C6.26855 2.14035 6.87041 1.57252 7.4375 1.34484V4.04621ZM8.5625 4.04621C9.25401 3.99908 9.91806 3.86582 10.5418 3.65873C10.4514 3.45607 10.3553 3.26342 10.2544 3.08174C9.73145 2.14035 9.12959 1.57252 8.5625 1.34484V4.04621Z" fill="#121312"/>
</svg>
