<svg width="24" height="16" viewBox="0 0 24 16" fill="none" xmlns="http://www.w3.org/2000/svg">
<path d="M23.1672 8.94781C22.9984 7.05359 22.7205 6.68469 22.6155 6.54594C22.3741 6.22531 21.9878 6.01578 21.5791 5.79594C21.5559 5.78371 21.536 5.76629 21.5208 5.74503C21.5055 5.72378 21.4954 5.69927 21.4913 5.67345C21.4872 5.64763 21.4891 5.62121 21.4969 5.59626C21.5047 5.57131 21.5183 5.54852 21.5364 5.52969C21.6121 5.45292 21.6703 5.36067 21.7069 5.25928C21.7436 5.15789 21.7578 5.04977 21.7487 4.94234C21.7311 4.75185 21.6425 4.57494 21.5006 4.44669C21.3586 4.31845 21.1736 4.24825 20.9823 4.25H20.2511C20.2197 4.25019 20.1884 4.25222 20.1573 4.25609C20.136 4.24683 20.1139 4.23946 20.0912 4.23406C19.6581 3.31859 19.0651 2.06516 17.8361 1.45344C16.0131 0.546875 12.655 0.5 11.9987 0.5C11.3425 0.5 7.98437 0.546875 6.16374 1.45203C4.93468 2.06375 4.34171 3.31719 3.90859 4.23266L3.90484 4.24016C3.88324 4.24319 3.86202 4.24854 3.84156 4.25609C3.81045 4.25222 3.77915 4.25019 3.74781 4.25H3.01515C2.82385 4.24825 2.63888 4.31845 2.49691 4.44669C2.35495 4.57494 2.26637 4.75185 2.24874 4.94234C2.24042 5.04952 2.25533 5.15723 2.29246 5.25811C2.3296 5.359 2.38808 5.45067 2.4639 5.52688C2.48204 5.54571 2.49556 5.5685 2.50338 5.59345C2.51121 5.6184 2.51313 5.64482 2.50899 5.67064C2.50485 5.69646 2.49477 5.72096 2.47955 5.74222C2.46432 5.76348 2.44436 5.7809 2.42124 5.79313C2.01249 6.01437 1.62437 6.22391 1.38484 6.54313C1.27984 6.68375 1.00234 7.05078 0.833119 8.945C0.739369 10.0109 0.725307 11.1144 0.798901 11.825C0.953119 13.3016 1.24234 14.1941 1.25453 14.2311C1.29891 14.3659 1.3806 14.4853 1.49012 14.5755C1.59965 14.6656 1.73251 14.7229 1.87328 14.7406V14.75C1.87328 14.9489 1.95229 15.1397 2.09295 15.2803C2.2336 15.421 2.42436 15.5 2.62328 15.5H5.24828C5.44719 15.5 5.63795 15.421 5.77861 15.2803C5.91926 15.1397 5.99828 14.9489 5.99828 14.75C6.40187 14.75 6.68265 14.6778 6.98031 14.6009C7.41005 14.4851 7.84931 14.4081 8.29281 14.3708C9.72296 14.2344 11.1452 14.1875 11.9987 14.1875C12.835 14.1875 14.32 14.2344 15.7525 14.3708C16.1977 14.4082 16.6387 14.4855 17.0702 14.6019C17.3552 14.675 17.6256 14.7425 18.0001 14.7495C18.0001 14.9484 18.0792 15.1392 18.2198 15.2799C18.3605 15.4205 18.5512 15.4995 18.7501 15.4995H21.3751C21.5741 15.4995 21.7648 15.4205 21.9055 15.2799C22.0461 15.1392 22.1251 14.9484 22.1251 14.7495V14.7439C22.2663 14.7265 22.3995 14.6694 22.5094 14.5792C22.6193 14.489 22.7013 14.3694 22.7458 14.2344C22.758 14.1973 23.0472 13.3048 23.2014 11.8283C23.275 11.1172 23.2619 10.0156 23.1672 8.94781ZM5.26421 4.87391C5.63921 4.07703 6.06812 3.17516 6.83171 2.795C7.93515 2.24563 10.2222 1.99812 11.9987 1.99812C13.7753 1.99812 16.0623 2.24375 17.1658 2.795C17.9294 3.17516 18.3564 4.0775 18.7333 4.87391L18.7801 4.97563C18.8076 5.03353 18.8197 5.0975 18.8153 5.16142C18.811 5.22534 18.7904 5.28708 18.7554 5.34076C18.7204 5.39445 18.6723 5.43827 18.6156 5.46806C18.5589 5.49785 18.4954 5.51261 18.4314 5.51094C16.8737 5.46875 13.5925 5.33375 11.9987 5.33375C10.405 5.33375 7.12374 5.47203 5.56374 5.51422C5.4997 5.51589 5.43629 5.50113 5.37957 5.47134C5.32285 5.44155 5.27471 5.39773 5.23974 5.34405C5.20476 5.29037 5.18413 5.22862 5.1798 5.1647C5.17547 5.10078 5.18758 5.03681 5.21499 4.97891C5.2314 4.94422 5.24874 4.90906 5.26421 4.87391ZM5.82343 8.60656C5.01709 8.70361 4.20559 8.75151 3.39343 8.75C2.89656 8.75 2.38421 8.60938 2.28906 8.16687C2.2239 7.86922 2.23093 7.70188 2.26609 7.53359C2.29562 7.39062 2.34249 7.28656 2.57687 7.25C3.18624 7.15625 3.52703 7.27391 4.52453 7.56781C5.18593 7.76234 5.66312 8.02156 5.93499 8.22687C6.0714 8.32812 5.99874 8.5925 5.82343 8.60656ZM16.2006 12.4503C15.5837 12.5206 14.35 12.4948 12.0128 12.4948C9.67562 12.4948 8.44234 12.5206 7.82546 12.4503C7.1889 12.3795 6.37749 11.7777 6.93156 11.2414C7.30046 10.888 8.16109 10.6236 9.30718 10.475C10.4533 10.3264 10.9384 10.25 12.0081 10.25C13.0778 10.25 13.5137 10.2969 14.7091 10.4755C15.9044 10.6541 16.8076 10.9217 17.0847 11.2419C17.59 11.8156 16.8367 12.3758 16.2006 12.4531V12.4503ZM21.7084 8.16641C21.6147 8.61078 21.0991 8.74953 20.6041 8.74953C19.7763 8.74972 18.9493 8.70183 18.1272 8.60609C17.9837 8.5925 17.9172 8.34078 18.0625 8.22641C18.3301 8.01594 18.8125 7.76188 19.473 7.56734C20.4705 7.27344 21.0456 7.15578 21.5397 7.25375C21.6601 7.27766 21.7239 7.40703 21.7314 7.48812C21.7645 7.71392 21.7567 7.94383 21.7084 8.16687V8.16641Z" fill="#16559F"/>
</svg>
