<svg width="24" height="16" viewBox="0 0 24 16" fill="none" xmlns="http://www.w3.org/2000/svg">
<path d="M17.0853 10.4919C16.8083 10.1717 15.9055 9.90453 14.7102 9.72547C13.5148 9.54641 13.0789 9.5 12.0102 9.5C10.9414 9.5 10.4553 9.57687 9.30969 9.72547C8.16406 9.87406 7.30391 10.1384 6.935 10.4919C6.38141 11.0281 7.19235 11.63 7.82891 11.7031C8.44578 11.7734 9.67907 11.7477 12.0153 11.7477C14.3516 11.7477 15.5848 11.7734 16.2017 11.7031C16.8373 11.6258 17.5902 11.0656 17.0853 10.4919Z" fill="#121312" fill-opacity="0.5"/>
<path d="M20.2306 7.39297C20.228 7.35574 20.2117 7.3208 20.1849 7.29484C20.1581 7.26889 20.1226 7.25375 20.0853 7.25234C19.5317 7.23266 18.9697 7.27203 17.9727 7.56594C17.464 7.71444 16.9863 7.95359 16.5627 8.27187C16.4558 8.35531 16.4938 8.58078 16.6278 8.60469C17.4496 8.70108 18.2763 8.7496 19.1038 8.75C19.6002 8.75 20.1125 8.60938 20.2077 8.16687C20.2562 7.91174 20.2639 7.65053 20.2306 7.39297Z" fill="#121312" fill-opacity="0.5"/>
<path d="M3.77094 7.39297C3.77357 7.35574 3.78986 7.3208 3.81668 7.29484C3.8435 7.26889 3.87896 7.25375 3.91625 7.25234C4.46985 7.23266 5.03188 7.27203 6.02891 7.56594C6.53758 7.71444 7.01524 7.95359 7.43891 8.27187C7.54578 8.35531 7.50781 8.58078 7.37375 8.60469C6.55195 8.70108 5.72525 8.7496 4.89781 8.75C4.40141 8.75 3.88906 8.60938 3.79391 8.16687C3.74539 7.91174 3.73764 7.65053 3.77094 7.39297Z" fill="#121312" fill-opacity="0.5"/>
<path fill-rule="evenodd" clip-rule="evenodd" d="M12.0008 0.5C11.2245 0.5 10.1603 0.548259 9.10674 0.685782C8.07218 0.820831 6.96928 1.05129 6.1651 1.452C5.27292 1.89658 4.72634 2.67295 4.35146 3.35087C4.18238 3.65665 4.03629 3.96552 3.9109 4.2306L3.89516 4.26388C3.84844 4.25477 3.80017 4.25 3.75078 4.25H3.00078C2.58657 4.25 2.25078 4.58579 2.25078 5C2.25078 5.28915 2.41441 5.54008 2.65412 5.66525C2.64457 5.67059 2.63497 5.67595 2.62529 5.68132C2.56876 5.71273 2.50654 5.74655 2.44194 5.78167L2.44185 5.78171L2.44178 5.78175C2.29432 5.8619 2.13446 5.94879 2.00171 6.02904C1.8155 6.14161 1.56271 6.30858 1.38415 6.5456C1.26037 6.70991 1.18846 6.90775 1.14393 7.05001C1.09328 7.21179 1.05 7.39719 1.0126 7.59126C0.937544 7.98084 0.87685 8.45507 0.832966 8.94778C0.745952 9.92472 0.718262 11.0527 0.798943 11.8277C0.875918 12.567 0.986582 13.1588 1.07945 13.5703C1.12589 13.7761 1.16794 13.937 1.19918 14.0489C1.21481 14.1049 1.22774 14.1486 1.23718 14.1796C1.2419 14.1952 1.24575 14.2075 1.24863 14.2166L1.24983 14.2204C1.25074 14.2232 1.25154 14.2257 1.2522 14.2278L1.25342 14.2315L1.25388 14.2329L1.25416 14.2338C1.2542 14.2339 1.25424 14.234 1.87578 14.0299L1.25424 14.2341C1.34578 14.5127 1.58996 14.7097 1.87578 14.7445V14.75C1.87578 15.1642 2.21157 15.5 2.62578 15.5H5.25078C5.665 15.5 6.00078 15.1642 6.00078 14.75C6.40562 14.7497 6.69938 14.6739 6.97138 14.6037L7.03721 14.5868C7.31748 14.5152 7.66844 14.4305 8.29299 14.3717L8.29361 14.3716C9.74882 14.2335 11.1781 14.1875 12.0008 14.1875C12.8244 14.1875 14.3005 14.2336 15.754 14.3716L15.7541 14.3717C16.3792 14.4309 16.7323 14.5158 17.0138 14.5874L17.0467 14.5958C17.058 14.5986 17.0693 14.6016 17.0807 14.6045C17.3419 14.6716 17.6232 14.7438 18.0008 14.7496V14.75C18.0008 15.1642 18.3366 15.5 18.7508 15.5H21.3758C21.79 15.5 22.1258 15.1642 22.1258 14.75V14.7444C22.4113 14.7093 22.6551 14.5125 22.7465 14.2341L22.1258 14.0302C22.7465 14.234 22.7466 14.2339 22.7466 14.2338L22.7467 14.2335L22.7473 14.2315L22.7486 14.2278C22.7495 14.2249 22.7507 14.2211 22.7521 14.2166C22.7535 14.2122 22.7552 14.207 22.757 14.201C22.759 14.1947 22.7612 14.1876 22.7636 14.1796C22.773 14.1486 22.786 14.1049 22.8016 14.0489C22.8328 13.937 22.8749 13.7761 22.9213 13.5703C23.0142 13.1588 23.1248 12.567 23.2018 11.8277C23.2825 11.0526 23.2546 9.92457 23.1676 8.94778C23.1237 8.45511 23.0631 7.98101 22.9882 7.59161C22.9509 7.39763 22.9078 7.21239 22.8574 7.05081C22.8131 6.90875 22.7417 6.71128 22.6187 6.54717L22.6175 6.5456C22.4387 6.30826 22.1856 6.14141 21.9993 6.02907C21.8668 5.94911 21.707 5.8625 21.5597 5.78262C21.4949 5.74746 21.4324 5.71361 21.3758 5.68221C21.3659 5.67673 21.3561 5.67127 21.3463 5.66582C21.5867 5.54085 21.7508 5.28959 21.7508 5C21.7508 4.58579 21.415 4.25 21.0008 4.25H20.2508C20.2013 4.25 20.1529 4.25479 20.1061 4.26394L20.0911 4.23226C19.9654 3.96655 19.819 3.657 19.6495 3.35059C19.2745 2.67271 18.7277 1.89623 17.8359 1.45304C17.0332 1.05416 15.9308 0.823352 14.8961 0.687603C13.8426 0.549377 12.7778 0.5 12.0008 0.5ZM2.5449 13.25L2.54264 13.24C2.46136 12.8799 2.36109 12.3467 2.29088 11.6723C2.22437 11.0335 2.24403 10.013 2.32705 9.08085C2.36819 8.61901 2.42319 8.19855 2.48551 7.87505C2.51682 7.71259 2.54765 7.58686 2.57542 7.49814C2.58417 7.4702 2.59138 7.45 2.59661 7.43627C2.61974 7.41701 2.67272 7.37619 2.77771 7.31272C2.88142 7.25002 2.98859 7.19186 3.11639 7.12251L3.11647 7.12246L3.11654 7.12242C3.18814 7.08357 3.26622 7.0412 3.35379 6.99254C3.53501 6.89186 3.74861 6.76924 3.96363 6.61722L11.9996 6.61723L20.0356 6.61723C20.2517 6.77011 20.4665 6.89318 20.6485 6.99412C20.7366 7.04292 20.815 7.08536 20.8868 7.12426C21.0143 7.19324 21.1211 7.25108 21.2246 7.31353C21.3283 7.37604 21.3811 7.41648 21.4045 7.43587C21.4097 7.44965 21.4168 7.46973 21.4254 7.49734C21.4532 7.58626 21.4839 7.71215 21.5152 7.8747C21.5774 8.19837 21.6323 8.61897 21.6735 9.08085C21.7565 10.0132 21.7764 11.0336 21.7099 11.6723C21.6397 12.3467 21.5394 12.8799 21.4581 13.24L21.4559 13.25H18.0496C17.8407 13.25 17.7139 13.2177 17.4202 13.143L17.3835 13.1336C17.0533 13.0497 16.6206 12.9471 15.8957 12.8783C14.3886 12.7352 12.8648 12.6875 12.0008 12.6875C11.1361 12.6875 9.65933 12.7353 8.15215 12.8783L8.15184 12.8784C7.42676 12.9466 6.99553 13.0493 6.66605 13.1335L6.62942 13.1428C6.33745 13.2175 6.21022 13.25 5.99804 13.25H2.5449ZM20.0353 6.61704L3.96363 6.61722C3.9809 6.60502 3.99817 6.59262 4.01544 6.58003C4.07058 6.56908 4.13943 6.55605 4.22273 6.54142C4.50493 6.49183 4.95261 6.42379 5.59452 6.35512C6.87864 6.21775 8.93761 6.07812 12.0008 6.07812C15.064 6.07812 17.1229 6.21775 18.407 6.35512C19.049 6.42379 19.4966 6.49183 19.7788 6.54142C19.8606 6.55578 19.9284 6.56859 19.983 6.57941C20.0004 6.59215 20.0179 6.60469 20.0353 6.61704ZM18.7394 4.88259C18.7383 4.88026 18.7372 4.87793 18.7361 4.8756C18.608 4.60502 18.482 4.33894 18.3369 4.07668C18.0123 3.48987 17.6509 3.03611 17.1683 2.79633C16.5967 2.51225 15.6984 2.30571 14.701 2.17486C13.7225 2.04648 12.7239 2 12.0008 2C11.2772 2 10.2789 2.04549 9.3009 2.17316C8.30389 2.30331 7.40617 2.5095 6.83409 2.79456C6.35003 3.03577 5.98841 3.49034 5.66414 4.07674C5.51946 4.33839 5.39389 4.60367 5.26617 4.87349L5.26615 4.87353C5.26472 4.87656 5.26328 4.87959 5.26185 4.88263C5.31809 4.8763 5.37579 4.86996 5.43497 4.86363C6.77995 4.71975 8.89286 4.57812 12.0008 4.57812C15.1087 4.57812 17.2216 4.71975 18.5666 4.86363C18.6257 4.86995 18.6832 4.87627 18.7394 4.88259Z" fill="#121312" fill-opacity="0.5"/>
</svg>
