<svg width="23" height="17" viewBox="0 0 23 17" fill="none" xmlns="http://www.w3.org/2000/svg">
<path d="M15.357 8.30371C14.3913 8.30371 13.4632 7.87246 12.732 7.09434C12.0241 6.33496 11.5882 5.31777 11.5132 4.23496C11.4335 3.08184 11.7851 2.01777 12.5023 1.24434C13.2195 0.475586 14.232 0.0537109 15.357 0.0537109C16.4726 0.0537109 17.4851 0.480273 18.2023 1.24902C18.9288 2.02715 19.2804 3.08652 19.196 4.23027C19.1163 5.31309 18.6851 6.33027 17.9773 7.08965C17.2507 7.87246 16.3226 8.30371 15.357 8.30371ZM15.357 1.55371C14.6538 1.55371 14.0304 1.80684 13.6038 2.26621C13.1632 2.73965 12.9616 3.38184 13.0132 4.12715C13.0648 4.86777 13.3554 5.56152 13.8335 6.07246C14.2741 6.5459 14.8179 6.80371 15.357 6.80371C15.9007 6.80371 16.4398 6.54121 16.8804 6.07246C17.3585 5.56152 17.6492 4.87246 17.7007 4.12715C17.7523 3.40527 17.5413 2.74434 17.1007 2.27559C16.6742 1.80684 16.0507 1.55371 15.357 1.55371Z" fill="#121312" fill-opacity="0.5"/>
<path d="M21.5351 16.5538H9.17885C8.77103 16.5538 8.39603 16.371 8.1476 16.0522C7.88978 15.7194 7.79603 15.2694 7.89916 14.8429C8.29291 13.2585 9.2726 11.946 10.7257 11.0413C12.0148 10.2397 13.6601 9.79911 15.3523 9.79911C17.0773 9.79911 18.6804 10.221 19.9788 11.0225C21.4367 11.9179 22.4163 13.2397 22.8101 14.8429C22.9132 15.2694 22.8195 15.7194 22.5617 16.0522C22.3179 16.371 21.9429 16.5538 21.5351 16.5538ZM9.39916 15.0538H21.3195C20.546 12.2882 17.6445 11.3038 15.357 11.3038C13.0788 11.3038 10.182 12.2882 9.39916 15.0538Z" fill="#121312" fill-opacity="0.5"/>
<path d="M6.49758 8.49112C4.84758 8.49112 3.39914 6.9583 3.26321 5.07393C3.19289 4.1083 3.49289 3.21768 4.10227 2.56143C4.70696 1.91455 5.55539 1.5583 6.49289 1.5583C7.42571 1.5583 8.27414 1.91924 8.87883 2.5708C9.49289 3.23174 9.79289 4.12237 9.72258 5.07862C9.59602 6.9583 8.14289 8.49112 6.49758 8.49112ZM6.49758 3.05362C5.98196 3.05362 5.52258 3.24112 5.20383 3.5833C4.87571 3.93487 4.72102 4.41299 4.76321 4.96612C4.84289 6.06299 5.63508 6.99112 6.49758 6.99112C7.36008 6.99112 8.15696 6.06299 8.23196 4.96612C8.26946 4.42705 8.11008 3.93955 7.78664 3.58799C7.46789 3.24112 7.00852 3.05362 6.49758 3.05362Z" fill="#121312" fill-opacity="0.5"/>
<path d="M6.82572 15.0536H1.56166C1.19134 15.0536 0.849157 14.8849 0.619469 14.5989C0.385094 14.2989 0.300719 13.8864 0.394469 13.5021C0.717907 12.1942 1.52416 11.1161 2.71947 10.3755C3.77416 9.72394 5.11478 9.363 6.49291 9.363C7.67416 9.363 8.68197 9.55987 9.57259 9.96769C9.94759 10.1411 10.1163 10.5864 9.94291 10.9614C9.76947 11.3364 9.32416 11.5052 8.94916 11.3317C8.26009 11.0177 7.45853 10.863 6.49759 10.863C4.78666 10.863 2.62572 11.5755 1.94134 13.5583H6.82572C7.23822 13.5583 7.57572 13.8958 7.57572 14.3083C7.57572 14.7208 7.23822 15.0536 6.82572 15.0536Z" fill="#121312" fill-opacity="0.5"/>
</svg>
