<svg width="23" height="17" viewBox="0 0 23 17" fill="none" xmlns="http://www.w3.org/2000/svg">
<path d="M15.3564 8.30371C14.3926 8.30371 13.4608 7.8734 12.7314 7.09246C12.0222 6.33074 11.589 5.31496 11.5126 4.23309C11.4311 3.07902 11.7831 2.01777 12.5036 1.24434C13.224 0.470899 14.2314 0.0537109 15.3564 0.0537109C16.4734 0.0537109 17.4836 0.478398 18.2017 1.24996C18.9269 2.02902 19.2798 3.0884 19.1983 4.23262C19.12 5.3159 18.6873 6.33121 17.9795 7.09199C17.252 7.8734 16.3206 8.30371 15.3564 8.30371Z" fill="#16559F"/>
<path d="M21.5359 16.5537H9.17733C8.97863 16.5548 8.78234 16.5102 8.60356 16.4235C8.42477 16.3368 8.26827 16.2102 8.14608 16.0536C8.01647 15.8837 7.92697 15.6867 7.88427 15.4774C7.84157 15.268 7.84678 15.0517 7.89952 14.8446C8.2942 13.2598 9.27202 11.9454 10.727 11.044C12.0184 10.2443 13.6623 9.80371 15.3564 9.80371C17.0837 9.80371 18.6845 10.2256 19.9834 11.0248C21.4417 11.9215 22.4209 13.2434 22.8137 14.8475C22.8658 15.0547 22.8705 15.271 22.8273 15.4802C22.7841 15.6895 22.6942 15.8862 22.5644 16.0559C22.4423 16.2119 22.2862 16.3378 22.1079 16.4241C21.9296 16.5104 21.734 16.5547 21.5359 16.5537Z" fill="#16559F"/>
<path d="M6.49702 8.49121C4.84749 8.49121 3.39717 6.95746 3.26264 5.07262C3.19608 4.10699 3.49702 3.21402 4.10639 2.55918C4.7092 1.9109 5.55952 1.55371 6.49702 1.55371C7.43452 1.55371 8.27827 1.91277 8.88436 2.56481C9.49842 3.22481 9.79842 4.1159 9.72811 5.07355C9.59358 6.95793 8.14374 8.49121 6.49702 8.49121Z" fill="#16559F"/>
<path d="M9.57483 9.96543C8.7503 9.56231 7.68014 9.36074 6.49749 9.36074C5.11655 9.36074 3.77545 9.72074 2.72077 10.3742C1.52499 11.1162 0.720611 12.1967 0.395767 13.5012C0.348229 13.6888 0.343732 13.8848 0.382615 14.0744C0.421497 14.264 0.50275 14.4424 0.620298 14.5962C0.731836 14.7394 0.874728 14.8551 1.03799 14.9344C1.20124 15.0137 1.38052 15.0545 1.56202 15.0537H6.76514C6.85296 15.0537 6.93799 15.0229 7.00541 14.9666C7.07282 14.9103 7.11835 14.8321 7.13405 14.7457C7.1392 14.7162 7.14577 14.6867 7.15327 14.6576C7.55077 13.0611 8.48217 11.712 9.85842 10.7286C9.90904 10.6921 9.94976 10.6435 9.97687 10.5873C10.004 10.5311 10.0167 10.4691 10.0137 10.4067C10.0108 10.3444 9.99236 10.2838 9.96008 10.2304C9.9278 10.177 9.88271 10.1325 9.82889 10.1009C9.7553 10.0578 9.67092 10.0123 9.57483 9.96543Z" fill="#16559F"/>
</svg>
