<svg width="21" height="20" viewBox="0 0 21 20" fill="none" xmlns="http://www.w3.org/2000/svg">
<path d="M20.1217 18.0564L15.7112 13.6459C16.7731 12.2323 17.3463 10.5117 17.3444 8.74371C17.3444 4.22777 13.6703 0.553711 9.15436 0.553711C4.63842 0.553711 0.964355 4.22777 0.964355 8.74371C0.964355 13.2596 4.63842 16.9337 9.15436 16.9337C10.9223 16.9356 12.643 16.3624 14.0565 15.3006L18.467 19.7111C18.6903 19.9106 18.9815 20.0172 19.2808 20.0088C19.5801 20.0004 19.8649 19.8778 20.0767 19.666C20.2884 19.4543 20.4111 19.1695 20.4194 18.8702C20.4278 18.5708 20.3213 18.2796 20.1217 18.0564ZM3.30436 8.74371C3.30436 7.58669 3.64745 6.45565 4.29026 5.49363C4.93306 4.5316 5.84671 3.78179 6.91566 3.33902C7.98461 2.89624 9.16085 2.78039 10.2956 3.00612C11.4304 3.23184 12.4728 3.789 13.2909 4.60714C14.1091 5.42527 14.6662 6.46764 14.892 7.60243C15.1177 8.73722 15.0018 9.91346 14.5591 10.9824C14.1163 12.0514 13.3665 12.965 12.4044 13.6078C11.4424 14.2506 10.3114 14.5937 9.15436 14.5937C7.60341 14.5919 6.11652 13.9749 5.01984 12.8782C3.92315 11.7815 3.30622 10.2947 3.30436 8.74371Z" fill="#16559F"/>
</svg>
