<svg width="23" height="17" viewBox="0 0 23 17" fill="none" xmlns="http://www.w3.org/2000/svg">
<path d="M15 8.25C14.0344 8.25 13.1063 7.81875 12.375 7.04062C11.6672 6.28125 11.2313 5.26406 11.1563 4.18125C11.0766 3.02812 11.4281 1.96406 12.1453 1.19063C12.8625 0.421875 13.875 0 15 0C16.1157 0 17.1282 0.426563 17.8453 1.19531C18.5719 1.97344 18.9235 3.03281 18.8391 4.17656C18.7594 5.25938 18.3282 6.27656 17.6203 7.03594C16.8938 7.81875 15.9657 8.25 15 8.25ZM15 1.5C14.2969 1.5 13.6735 1.75312 13.2469 2.2125C12.8063 2.68594 12.6047 3.32812 12.6563 4.07344C12.7078 4.81406 12.9985 5.50781 13.4766 6.01875C13.9172 6.49219 14.461 6.75 15 6.75C15.5438 6.75 16.0828 6.4875 16.5235 6.01875C17.0016 5.50781 17.2922 4.81875 17.3438 4.07344C17.3953 3.35156 17.1844 2.69063 16.7438 2.22188C16.3172 1.75313 15.6938 1.5 15 1.5Z" fill="#16559F"/>
<path d="M21.1782 16.5001H8.82191C8.4141 16.5001 8.0391 16.3173 7.79066 15.9985C7.53285 15.6657 7.4391 15.2157 7.54222 14.7892C7.93598 13.2048 8.91566 11.8923 10.3688 10.9876C11.6579 10.186 13.3032 9.7454 14.9953 9.7454C16.7204 9.7454 18.3235 10.1673 19.6219 10.9688C21.0797 11.8642 22.0594 13.186 22.4532 14.7892C22.5563 15.2157 22.4625 15.6657 22.2047 15.9985C21.961 16.3173 21.586 16.5001 21.1782 16.5001ZM9.04222 15.0001H20.9625C20.1891 12.2345 17.2875 11.2501 15 11.2501C12.7219 11.2501 9.82504 12.2345 9.04222 15.0001Z" fill="#16559F"/>
<path d="M6.14065 8.4374C4.49065 8.4374 3.04221 6.90459 2.90627 5.02022C2.83596 4.05459 3.13596 3.16397 3.74534 2.50772C4.35002 1.86084 5.19846 1.50459 6.13596 1.50459C7.06877 1.50459 7.91721 1.86553 8.5219 2.51709C9.13596 3.17803 9.43596 4.06866 9.36565 5.02491C9.23909 6.90459 7.78596 8.4374 6.14065 8.4374ZM6.14065 2.99991C5.62502 2.99991 5.16565 3.18741 4.8469 3.52959C4.51877 3.88116 4.36409 4.35928 4.40627 4.91241C4.48596 6.00928 5.27815 6.93741 6.14065 6.93741C7.00315 6.93741 7.80002 6.00928 7.87502 4.91241C7.91252 4.37334 7.75315 3.88584 7.42971 3.53428C7.11096 3.18741 6.65159 2.99991 6.14065 2.99991Z" fill="#16559F"/>
<path d="M6.46879 14.9999H1.20472C0.834411 14.9999 0.492223 14.8312 0.262536 14.5452C0.0281608 14.2452 -0.0562142 13.8327 0.0375358 13.4483C0.360973 12.1405 1.16722 11.0624 2.36254 10.3218C3.41722 9.67023 4.75785 9.30929 6.13597 9.30929C7.31722 9.30929 8.32504 9.50616 9.21566 9.91397C9.59066 10.0874 9.75941 10.5327 9.58597 10.9077C9.41254 11.2827 8.96722 11.4515 8.59222 11.278C7.90316 10.964 7.1016 10.8093 6.14066 10.8093C4.42972 10.8093 2.26879 11.5218 1.58441 13.5046H6.46879C6.88129 13.5046 7.21879 13.8421 7.21879 14.2546C7.21879 14.6671 6.88129 14.9999 6.46879 14.9999Z" fill="#16559F"/>
</svg>
