<svg width="24" height="24" viewBox="0 0 24 24" fill="none" xmlns="http://www.w3.org/2000/svg">
<path fill-rule="evenodd" clip-rule="evenodd" d="M3.0496 3.36535C3.57943 2.20923 4.78479 1.5 6.07188 1.5H17.9284C19.2155 1.5 20.4209 2.20923 20.9507 3.36535L20.9508 3.3655L22.9803 7.79671C22.9804 7.79683 22.9804 7.79695 22.9805 7.79707C23.6621 9.28375 23.0094 10.8417 21.7502 11.609V21H22.5002C22.9144 21 23.2502 21.3358 23.2502 21.75C23.2502 22.1642 22.9144 22.5 22.5002 22.5H1.50016C1.08594 22.5 0.750157 22.1642 0.750157 21.75C0.750157 21.3358 1.08594 21 1.50016 21H2.25016V11.6096C0.990743 10.8426 0.338361 9.28414 1.01984 7.79707C1.01987 7.797 1.01989 7.79694 1.01992 7.79688L3.0496 3.36535ZM3.75016 12.0862V21H12.7502V14.625C12.7502 14.1277 12.9477 13.6508 13.2993 13.2992C13.651 12.9475 14.1279 12.75 14.6252 12.75H17.6252C18.1224 12.75 18.5994 12.9475 18.951 13.2992C19.3026 13.6508 19.5002 14.1277 19.5002 14.625V21H20.2502V12.0862C20.2037 12.0895 20.157 12.0919 20.1099 12.0934C20.1021 12.0936 20.0944 12.0938 20.0866 12.0938H19.9952C18.9416 12.0938 17.9664 11.6361 17.3302 10.8981C16.6939 11.6362 15.7185 12.0938 14.665 12.0938C13.6135 12.0938 12.65 11.613 12.0165 10.8801C11.3815 11.6285 10.4001 12.0938 9.33766 12.0938C8.27729 12.0938 7.3062 11.6048 6.67286 10.8614C6.03962 11.6052 5.06823 12.0938 4.0075 12.0938H3.91375C3.9061 12.0938 3.89845 12.0936 3.8908 12.0934C3.84363 12.092 3.79674 12.0896 3.75016 12.0862ZM7.42234 8.89547C7.42234 9.70454 8.23635 10.5938 9.33766 10.5938C10.4556 10.5938 11.2502 9.77583 11.2502 8.89547C11.2502 8.48126 11.5859 8.14547 12.0002 8.14547C12.4144 8.14547 12.7502 8.48126 12.7502 8.89547C12.7502 9.7047 13.5639 10.5938 14.665 10.5938C15.784 10.5938 16.5803 9.77484 16.5803 8.89547C16.5803 8.48126 16.9161 8.14547 17.3303 8.14547C17.7445 8.14547 18.0803 8.48126 18.0803 8.89547C18.0803 9.77501 18.8764 10.5938 19.9952 10.5938H20.074C21.3686 10.5469 22.0441 9.35362 21.6169 8.42204L21.6167 8.42168L19.5871 3.99028C19.5871 3.99023 19.587 3.99017 19.587 3.99012C19.3237 3.4157 18.6841 3 17.9284 3H6.07188C5.31621 3 4.67662 3.4157 4.41329 3.99012C4.41327 3.99017 4.41324 3.99023 4.41322 3.99028L2.38351 8.42187C1.95587 9.35488 2.63214 10.5478 3.92609 10.5938H4.0075C5.1091 10.5938 5.92234 9.70661 5.92234 8.89547C5.92234 8.48126 6.25813 8.14547 6.67234 8.14547C7.08656 8.14547 7.42234 8.48126 7.42234 8.89547ZM18.0002 21V14.625C18.0002 14.5255 17.9606 14.4302 17.8903 14.3598C17.82 14.2895 17.7246 14.25 17.6252 14.25H14.6252C14.5257 14.25 14.4303 14.2895 14.36 14.3598C14.2897 14.4302 14.2502 14.5255 14.2502 14.625V21H18.0002ZM6.37516 14.25C6.2757 14.25 6.18032 14.2895 6.10999 14.3598C6.03967 14.4302 6.00016 14.5255 6.00016 14.625V18H10.5002V14.625C10.5002 14.5255 10.4606 14.4302 10.3903 14.3598C10.32 14.2895 10.2246 14.25 10.1252 14.25H6.37516ZM5.04933 13.2992C5.40096 12.9475 5.87788 12.75 6.37516 12.75H10.1252C10.6224 12.75 11.0994 12.9475 11.451 13.2992C11.8026 13.6508 12.0002 14.1277 12.0002 14.625V18.75C12.0002 19.1642 11.6644 19.5 11.2502 19.5H5.25016C4.83594 19.5 4.50016 19.1642 4.50016 18.75V14.625C4.50016 14.1277 4.6977 13.6508 5.04933 13.2992Z" fill="#121312" fill-opacity="0.5"/>
</svg>
