<svg width="24" height="24" viewBox="0 0 24 24" fill="none" xmlns="http://www.w3.org/2000/svg">
<path fill-rule="evenodd" clip-rule="evenodd" d="M12.0001 0.75C12.4144 0.75 12.7501 1.08579 12.7501 1.5V3.68813C13.3026 3.59528 13.835 3.39914 14.3186 3.10765C14.6734 2.89383 15.1343 3.00808 15.3481 3.36284C15.5619 3.7176 15.4477 4.17853 15.0929 4.39235C14.375 4.82509 13.5765 5.10044 12.7501 5.2038V10.701L17.5111 7.95225C17.1882 7.18482 17.0274 6.35596 17.0421 5.51803C17.0494 5.10389 17.3911 4.77407 17.8052 4.78137C18.2194 4.78867 18.5492 5.13032 18.5419 5.54447C18.5319 6.10941 18.6284 6.66887 18.8239 7.19431L20.7184 6.10048C21.0771 5.89337 21.5358 6.01628 21.7429 6.375C21.9501 6.73372 21.8271 7.19241 21.4684 7.39952L19.5737 8.49347C19.9308 8.92552 20.3669 9.28887 20.8609 9.56286C21.2232 9.76375 21.354 10.2203 21.1531 10.5825C20.9522 10.9447 20.4957 11.0755 20.1334 10.8746C19.4008 10.4683 18.7638 9.91461 18.2609 9.25138L13.5001 12L18.2609 14.7486C18.7638 14.0854 19.4008 13.5317 20.1334 13.1254C20.4957 12.9245 20.9522 13.0553 21.1531 13.4175C21.354 13.7797 21.2232 14.2362 20.8609 14.4371C20.3669 14.7111 19.9308 15.0745 19.5737 15.5065L21.4684 16.6005C21.8271 16.8076 21.9501 17.2663 21.7429 17.625C21.5358 17.9837 21.0771 18.1066 20.7184 17.8995L18.8239 16.8057C18.6284 17.3311 18.5319 17.8906 18.5419 18.4555C18.5492 18.8697 18.2194 19.2113 17.8052 19.2186C17.3911 19.2259 17.0494 18.8961 17.0421 18.482C17.0274 17.644 17.1882 16.8152 17.5111 16.0478L12.7501 13.299V18.797C13.5758 18.9009 14.3738 19.1758 15.0919 19.607C15.447 19.8203 15.562 20.281 15.3487 20.6361C15.1355 20.9912 14.6747 21.1062 14.3196 20.893C13.8354 20.6021 13.3028 20.4062 12.7501 20.3128V22.5C12.7501 22.9142 12.4144 23.25 12.0001 23.25C11.5859 23.25 11.2501 22.9142 11.2501 22.5V20.3128C10.6975 20.4062 10.1649 20.6021 9.68066 20.893C9.32556 21.1062 8.86482 20.9912 8.65156 20.6361C8.4383 20.281 8.55328 19.8203 8.90838 19.607C9.62651 19.1758 10.4244 18.9009 11.2501 18.797V13.299L6.48923 16.0477C6.8121 16.8152 6.97292 17.644 6.95815 18.482C6.95085 18.8961 6.6092 19.2259 6.19505 19.2186C5.78091 19.2113 5.45109 18.8697 5.45839 18.4555C5.46834 17.8906 5.3719 17.3311 5.17643 16.8057L3.28186 17.8995C2.92314 18.1066 2.46445 17.9837 2.25734 17.625C2.05024 17.2663 2.17314 16.8076 2.53186 16.6005L4.42664 15.5065C4.06952 15.0745 3.63343 14.7111 3.13937 14.4371C2.77713 14.2362 2.64633 13.7797 2.84722 13.4175C3.04811 13.0553 3.50462 12.9245 3.86686 13.1254C4.59951 13.5317 5.23653 14.0854 5.73938 14.7486L10.5001 12L5.73938 9.25138C5.23653 9.91461 4.59951 10.4683 3.86686 10.8746C3.50462 11.0755 3.04811 10.9447 2.84722 10.5825C2.64633 10.2203 2.77713 9.76375 3.13937 9.56286C3.63343 9.28887 4.06952 8.92552 4.42664 8.49347L2.53186 7.39952C2.17314 7.19241 2.05024 6.73372 2.25734 6.375C2.46445 6.01628 2.92314 5.89337 3.28186 6.10048L5.17643 7.19431C5.3719 6.66887 5.46834 6.10941 5.45839 5.54447C5.45109 5.13032 5.78091 4.78867 6.19505 4.78137C6.6092 4.77407 6.95085 5.10389 6.95815 5.51803C6.97292 6.35596 6.8121 7.18482 6.48923 7.95225L11.2501 10.701V5.2038C10.4238 5.10044 9.62533 4.82509 8.90736 4.39235C8.5526 4.17853 8.43835 3.7176 8.65217 3.36284C8.86599 3.00808 9.32692 2.89383 9.68168 3.10765C10.1653 3.39914 10.6977 3.59528 11.2501 3.68813V1.5C11.2501 1.08579 11.5859 0.75 12.0001 0.75Z" fill="#121312" fill-opacity="0.5"/>
</svg>
