<svg width="24" height="24" viewBox="0 0 24 24" fill="none" xmlns="http://www.w3.org/2000/svg">
<path fill-rule="evenodd" clip-rule="evenodd" d="M3.17018 2.54248C3.08995 2.45748 2.9386 2.32412 2.71014 2.27167C2.44123 2.20992 2.19153 2.28795 2.01271 2.42495C1.86063 2.54146 1.77657 2.68511 1.73201 2.77573C1.6833 2.87479 1.65018 2.97635 1.62637 3.06642C1.53617 3.40771 1.50156 3.89492 1.50051 4.43676C1.49836 5.55188 1.64058 7.15203 1.96843 8.91453C2.61606 12.3961 4.03247 16.7536 6.71751 19.2065L6.71776 19.2067C8.69225 21.0089 11.2056 21.8128 13.4953 21.7244C15.703 21.6392 17.7978 20.7124 18.9389 18.9284C19.8191 19.1577 20.7319 19.3452 21.6828 19.4915C22.0922 19.5545 22.4751 19.2737 22.5381 18.8643C22.6011 18.4549 22.3203 18.072 21.9109 18.009C21.1181 17.887 20.3538 17.735 19.6141 17.5522C20.8809 14.1021 19.4621 9.96744 15.4955 7.40558C13.5709 6.16236 11.5942 5.83198 9.7956 5.53135C9.49935 5.48183 9.20789 5.43312 8.92233 5.38127C6.8881 5.01193 5.00118 4.48112 3.17031 2.54261L3.17018 2.54248ZM18.1627 17.1445C19.2197 14.4111 18.1979 10.9366 14.6816 8.6656L14.6816 8.66556C13.0367 7.60302 11.3901 7.32423 9.58909 7.01928C9.28225 6.96733 8.97093 6.91462 8.65436 6.85714C6.80048 6.52054 4.87164 6.02161 3.0005 4.44493C2.99902 5.44973 3.12935 6.95332 3.44314 8.64021C4.07986 12.0632 5.42666 15.9954 7.72897 18.0988L7.72904 18.0989L7.72921 18.099C9.4011 19.6249 11.5259 20.2993 13.4374 20.2255C15.1165 20.1607 16.5542 19.5282 17.4143 18.4789C13.7388 17.2648 10.6185 15.2532 7.59509 12.4056C7.29357 12.1216 7.27935 11.6469 7.56335 11.3454C7.84735 11.0439 8.32201 11.0297 8.62354 11.3137C11.5799 14.0982 14.5932 16.0159 18.1627 17.1445Z" fill="#121312" fill-opacity="0.5"/>
</svg>
