<svg width="24" height="24" viewBox="0 0 24 24" fill="none" xmlns="http://www.w3.org/2000/svg">
<g clip-path="url(#clip0_977_6862)">
<path fill-rule="evenodd" clip-rule="evenodd" d="M13.3458 2.66384C11.1484 3.34572 8.8262 4.73795 6.7833 6.78086C4.74042 8.82373 3.34819 11.146 2.6663 13.3433C2.83381 13.3592 2.99699 13.4313 3.12526 13.5596L10.4415 20.8758C10.5698 21.0041 10.6419 21.1672 10.6578 21.3347C12.8551 20.6528 15.1773 19.2606 17.2202 17.2178C19.2631 15.1749 20.6553 12.8526 21.3372 10.6553C21.1697 10.6393 21.0066 10.5673 20.8783 10.439L13.5621 3.12276C13.4338 2.9945 13.3617 2.83133 13.3458 2.66384ZM14.8631 2.30243L21.6986 9.13795C22.072 6.85999 21.5974 4.91803 20.3402 3.66086C19.083 2.40369 17.1411 1.92906 14.8631 2.30243ZM9.1405 21.6962L2.30489 14.8605C1.93149 17.1386 2.40611 19.0806 3.6633 20.3377C4.92049 21.5949 6.86249 22.0696 9.1405 21.6962ZM14.0514 0.929653C16.8493 0.33245 19.5738 0.773189 21.4008 2.6002C23.2279 4.4272 23.6686 7.15172 23.0714 9.94969C22.4724 12.7562 20.817 15.7422 18.2809 18.2784C15.7446 20.8146 12.7586 22.4699 9.95213 23.069C7.15416 23.6662 4.42965 23.2254 2.60264 21.3984C0.775631 19.5714 0.334891 16.8469 0.932094 14.0489C1.53112 11.2424 3.18644 8.2564 5.72264 5.7202C8.25884 3.18399 11.2448 1.52868 14.0514 0.929653ZM16.1903 7.81085C16.4832 8.10374 16.4832 8.57862 16.1903 8.87151L15.1529 9.90891L15.6676 10.4237C15.9605 10.7166 15.9605 11.1914 15.6676 11.4843C15.3747 11.7772 14.8998 11.7772 14.6069 11.4843L14.0922 10.9696L13.0625 11.9993L13.5774 12.5143C13.8703 12.8072 13.8703 13.2821 13.5774 13.5749C13.2846 13.8678 12.8097 13.8678 12.5168 13.5749L12.0018 13.06L10.9721 14.0897L11.4868 14.6044C11.7797 14.8973 11.7797 15.3722 11.4868 15.6651C11.1939 15.958 10.7191 15.958 10.4262 15.6651L9.91142 15.1504L8.87401 16.1878C8.58112 16.4807 8.10624 16.4807 7.81335 16.1878C7.52046 15.8949 7.52046 15.42 7.81335 15.1271L8.85076 14.0897L8.33601 13.5749C8.04311 13.2821 8.04311 12.8072 8.33601 12.5143C8.6289 12.2214 9.10377 12.2214 9.39667 12.5143L9.91142 13.029L10.9411 11.9993L10.4262 11.4843C10.1333 11.1914 10.1333 10.7166 10.4262 10.4237C10.7191 10.1308 11.1939 10.1308 11.4868 10.4237L12.0018 10.9386L13.0315 9.90891L12.5168 9.39417C12.2239 9.10127 12.2239 8.6264 12.5168 8.33351C12.8097 8.04061 13.2846 8.04061 13.5774 8.33351L14.0922 8.84825L15.1296 7.81085C15.4225 7.51796 15.8974 7.51796 16.1903 7.81085Z" fill="#121312" fill-opacity="0.5"/>
</g>
<defs>
<clipPath id="clip0_977_6862">
<rect width="24" height="24" fill="white"/>
</clipPath>
</defs>
</svg>
