<svg width="19" height="18" viewBox="0 0 19 18" fill="none" xmlns="http://www.w3.org/2000/svg">
<path d="M14.6212 17.4376C14.4963 17.4381 14.3743 17.3991 14.2728 17.3262L9.50015 13.8662L4.72751 17.3262C4.62555 17.4002 4.50271 17.4398 4.37675 17.4394C4.25079 17.4389 4.12824 17.3984 4.02681 17.3237C3.92539 17.249 3.85035 17.144 3.81254 17.0238C3.77473 16.9037 3.77611 16.7746 3.81648 16.6553L5.67788 11.142L0.853664 7.83367C0.749168 7.76209 0.670301 7.65897 0.628585 7.53938C0.58687 7.41978 0.584492 7.28998 0.621799 7.16894C0.659107 7.0479 0.734144 6.94196 0.835949 6.8666C0.937753 6.79124 1.06099 6.75041 1.18765 6.75008H7.13925L8.93534 1.22264C8.97404 1.1033 9.04953 0.999288 9.151 0.925517C9.25247 0.851747 9.3747 0.812012 9.50015 0.812012C9.6256 0.812012 9.74783 0.851747 9.8493 0.925517C9.95077 0.999288 10.0263 1.1033 10.065 1.22264L11.861 6.75193H17.8126C17.9395 6.75187 18.063 6.79242 18.1651 6.86763C18.2672 6.94284 18.3425 7.04878 18.3801 7.16991C18.4176 7.29105 18.4154 7.42102 18.3737 7.54079C18.332 7.66057 18.2531 7.76386 18.1485 7.83553L13.3224 11.142L15.1827 16.6538C15.2128 16.7431 15.2213 16.8382 15.2074 16.9314C15.1936 17.0245 15.1577 17.113 15.1029 17.1896C15.048 17.2662 14.9757 17.3286 14.892 17.3717C14.8082 17.4148 14.7154 17.4374 14.6212 17.4376Z" fill="#216869"/>
</svg>
