<svg width="78" height="149" viewBox="0 0 78 149" fill="none" xmlns="http://www.w3.org/2000/svg">
<g clip-path="url(#clip0_1011_6708)">
<path d="M60.2312 13.2397H42.9643C41.3403 13.2397 40.0189 14.5645 40.0189 16.1927V23.253H61.3459V14.3499C61.3459 13.7356 60.8513 13.2397 60.2386 13.2397H60.2312Z" fill="#AD4650"/>
<path d="M58.5777 18.2724C58.5777 21.1587 59.4414 23.4973 60.5044 23.4973C61.5674 23.4973 62.4312 21.1587 62.4312 18.2724C62.4312 15.3861 61.4715 13.2324 60.4084 13.2324C59.3454 13.2324 58.5703 15.3861 58.5703 18.2724H58.5777Z" fill="#BB6A72"/>
<path d="M58.8212 53.0488L61.5083 52.8416C64.0552 52.6492 65.9967 50.4882 65.9302 47.9275L65.3766 26.3986C65.3766 24.1562 63.5606 22.3356 61.3238 22.3356L52.7161 22.2764L58.8212 53.0562V53.0488Z" fill="#F0C755"/>
<path d="M8.48839 34.2214L11.2419 32.4008C11.2419 32.4008 11.1755 31.8901 11.1829 31.7643C11.1903 31.5497 11.0795 31.3202 10.8581 31.187L4.07386 26.9464C3.60878 26.6578 3.04035 26.68 2.69339 27.0056L0.153929 29.1222C0.013668 29.2554 -0.0306252 29.4479 0.02105 29.6329C0.0579608 29.7883 0.117016 30.2397 0.117016 30.2397L7.11531 34.2806C7.58039 34.5692 8.14881 34.547 8.49578 34.2214H8.48839Z" fill="#3E4651"/>
<path d="M8.56313 34.7692L11.1026 32.6526C11.3683 32.4084 11.2798 31.9495 10.9328 31.7349L4.14859 27.4942C3.68351 27.2056 3.11508 27.2278 2.76812 27.5534L0.228656 29.6701C-0.0371026 29.9143 0.0514803 30.3731 0.398442 30.5878L7.18266 34.8284C7.64773 35.117 8.21616 35.0948 8.56313 34.7692Z" fill="#0B0D11"/>
<path d="M4.82034 29.2037L5.25588 28.8854C5.35923 28.8114 5.34447 28.693 5.23373 28.619L3.80898 27.7383C3.69086 27.6643 3.51369 27.6717 3.41034 27.7383L2.97479 28.0565C2.87144 28.1306 2.88621 28.249 2.99694 28.323L4.4217 29.2037C4.53981 29.2777 4.71698 29.2703 4.82034 29.2037Z" fill="#3E4651"/>
<path d="M7.86933 30.247C7.95792 29.6105 8.13509 28.6188 8.37132 29.2257C8.47467 29.4995 8.61493 30.5208 8.67399 30.9426C8.76995 31.6975 9.57461 32.5782 10.2316 33.0001C10.335 33.0667 11.0363 33.3701 11.5457 34.0436L8.30488 38.299C6.78415 37.2555 5.70635 36.4932 5.43321 36.249C4.18563 35.1019 2.95281 32.8002 2.97496 31.4385C2.9971 30.2026 2.59846 28.5522 3.17427 28.8112C3.27762 28.8556 3.9494 30.2396 4.01584 30.839C4.17086 32.297 4.80573 33.1777 4.80573 33.1777C4.80573 33.1777 4.51783 31.8825 4.62856 30.5134C4.73929 29.0924 4.67286 27.9083 5.08626 28.0933C5.27081 28.1747 5.66944 29.4699 5.72112 30.247C5.80232 31.6087 6.11976 32.9038 6.11976 32.9038C6.11976 32.9038 6.02379 31.3053 6.31908 30.2692C6.60698 29.2627 6.70295 28.271 7.02776 28.419C7.18279 28.4856 7.40425 29.5809 7.28614 30.2248C7.07206 31.4311 7.72169 32.4746 7.72169 32.4746C7.72169 32.4746 7.68478 31.5569 7.86933 30.2396V30.247Z" fill="#FBA4A2"/>
<path d="M57.1084 66.3926C56.7319 67.7321 55.13 73.8082 55.4917 73.8896C55.846 73.9636 56.695 72.032 56.85 72.1726C57.0641 72.3798 56.7319 73.9562 56.4588 74.8221C56.2151 75.5918 55.9568 76.8721 56.2816 77.0201C56.8943 77.3013 58.1567 73.0459 58.1567 73.0459C58.3412 73.1347 56.9681 77.6788 57.4554 77.9674C58.1567 78.3818 59.3083 73.4085 59.5445 73.3197C59.5445 73.3197 58.6365 77.6122 59.1606 77.923C59.6774 78.2338 60.3418 74.378 60.7995 73.2383C60.674 74.1338 59.921 77.2273 60.2975 77.4494C60.674 77.6714 61.2424 75.984 61.3605 75.5621C62.0544 73.0459 63.0806 68.0134 63.0806 68.0134" fill="#FBA4A2"/>
<path d="M56.7394 28.0489C63.59 33.7253 60.4969 62.4182 60.4969 62.4182C45.6071 65.7189 30.3481 62.0555 30.3481 62.0555C30.3481 62.0555 33.3674 37.6108 31.7876 31.9344C31.7876 31.9344 33.9358 20.1597 41.3845 18.1837C48.8331 16.2003 56.7394 28.0563 56.7394 28.0563V28.0489Z" fill="#216869"/>
<path d="M44.9425 18.6425C44.9425 18.6425 50.8261 16.4445 57.3077 21.4326C63.7892 26.4207 67.4655 36.1824 68.3145 45.3149C69.1413 54.2329 63.1913 69.8041 63.1913 69.8041L55.8977 68.324C55.8977 68.324 58.821 50.9099 57.3151 45.7664C56.1708 41.8736 49.6228 32.3118 49.6228 32.3118" fill="#216869"/>
<path d="M38.8374 19.3306C25.8153 21.0253 23.3348 42.4654 23.3348 42.4654C23.3348 42.4654 17.3627 38.4024 11.2945 33.0368L7.47795 38.4986C7.47795 38.4986 20.2786 55.5722 26.6125 54.5509C32.9907 53.5222 35.8181 39.1647 35.8181 39.1647" fill="#216869"/>
<path d="M52.1769 33.9253C55.4103 38.8246 57.123 44.4714 57.625 47.5057C58.4149 52.2422 57.3814 57.9186 56.6727 63.0696" stroke="#4BB8BA" stroke-width="0.5" stroke-miterlimit="10"/>
<path d="M32.1272 38.8246C32.7325 32.0825 33.2197 28.6855 33.2197 28.6855" stroke="#4F3E49" stroke-width="0.5" stroke-miterlimit="10"/>
<path d="M64.0623 67.1544L56.4586 65.4893" stroke="#4BB8BA" stroke-width="0.5" stroke-miterlimit="10"/>
<path d="M13.1106 34.7539L8.95444 40.3267" stroke="#4BB8BA" stroke-width="0.5" stroke-miterlimit="10"/>
<path d="M50.7744 29.3366L43.1486 29.1812L43.3037 34.7761L46.9726 37.1L50.5382 34.7835L50.7744 29.3366Z" fill="#4BB8BA"/>
<path d="M56.9385 60.4793C44.4036 63.6247 30.7982 59.8354 30.7982 59.8354" stroke="#4BB8BA" stroke-width="0.5" stroke-miterlimit="10"/>
<path d="M50.7744 30.3286H43.1486" stroke="#4F3E49" stroke-width="0.5" stroke-miterlimit="10"/>
<path d="M23.335 42.4658C23.335 42.4658 27.7939 44.7453 28.3032 46.0034" stroke="#4BB8BA" stroke-width="0.5" stroke-miterlimit="10"/>
<path d="M48.3088 17.7026C48.3088 17.7026 48.0652 21.0256 43.3628 21.0256C38.6603 21.0256 38.2617 19.0274 38.2617 19.0274" stroke="#4BB8BA" stroke-width="0.5" stroke-miterlimit="10"/>
<path d="M37.9148 4.26315C36.4605 6.80162 33.9062 14.047 38.3872 16.0082C41.8864 17.5402 46.1606 13.5881 46.921 10.4132C47.3713 8.526 47.2827 5.58789 46.0056 4.00412C43.9534 1.47305 39.5831 1.36204 37.9148 4.26315Z" fill="#FBA4A2"/>
<path d="M39.5609 14.4835V19.0794C40.6682 20.0415 46.6404 19.8417 47.1646 18.1247L45.9613 11.3604" fill="#FBA4A2"/>
<path d="M35.833 5.87637C36.2611 1.73193 40.3582 0.185164 41.8937 0.0445491C44.8318 -0.221879 47.7478 0.644012 48.4196 3.62653C50.0953 5.08448 50.9738 8.65166 49.7114 10.4204C48.5377 12.056 46.264 13.0773 46.264 13.0773C46.264 13.0773 45.762 12.6777 45.4888 11.9228C45.2452 11.2419 45.4372 11.3011 45.1788 10.5981C44.8171 10.6499 44.5365 10.4501 44.2044 10.5981C43.0823 8.78487 43.0232 7.37873 43.5621 5.2843C41.5172 5.16589 37.7966 5.86157 35.8994 6.51283C35.8477 6.52764 35.7961 6.24641 35.833 5.86897V5.87637Z" fill="#040B0A"/>
<path d="M44.6768 10.8053C44.7285 10.4575 45.5036 9.96162 45.7989 10.0652C46.0942 10.1762 46.3231 10.4871 46.4559 10.8201C46.5445 11.0273 46.5962 11.2568 46.5962 11.4788C46.5962 11.8858 46.3969 12.2337 46.1533 12.5075C45.7251 12.9885 45.0976 13.0477 44.6325 12.4409" fill="#FBA4A2"/>
<path d="M39.465 9.04395C39.465 9.04395 37.9886 10.6795 38.1215 11.2124C38.2617 11.7378 39.5684 11.7452 39.5684 11.7452" stroke="#DD6666" stroke-width="0.5" stroke-linejoin="round"/>
<path d="M37.8927 12.6187L40.7422 13.2847C40.7422 13.2847 40.3805 15.4161 38.8819 14.9277C37.4645 14.4688 37.8927 12.6187 37.8927 12.6187Z" fill="white"/>
<path d="M39.5609 16.4816C39.5609 16.4816 42.1963 16.5482 44.2781 14.4834" stroke="#DD6666" stroke-width="0.5" stroke-linejoin="round"/>
<path d="M38.7786 7.623C37.8632 6.32046 37.0733 7.17895 37.0733 7.17895" stroke="#212237" stroke-width="0.5" stroke-linecap="round" stroke-linejoin="round"/>
<path d="M43.5547 8.86631C42.3662 7.17893 41.3327 8.28904 41.3327 8.28904" stroke="#212237" stroke-width="0.5" stroke-linecap="round" stroke-linejoin="round"/>
<path d="M41.1924 9.67301C41.1924 10.0208 41.3327 10.3021 41.5025 10.3021C41.6722 10.3021 41.8125 10.0208 41.8125 9.67301C41.8125 9.32517 41.6722 9.04395 41.5025 9.04395C41.3327 9.04395 41.1924 9.32517 41.1924 9.67301Z" fill="#010101"/>
<path d="M37.6121 8.86637C37.6121 9.21421 37.7523 9.49544 37.9221 9.49544C38.0919 9.49544 38.2322 9.21421 38.2322 8.86637C38.2322 8.51853 38.0919 8.2373 37.9221 8.2373C37.7523 8.2373 37.6121 8.51853 37.6121 8.86637Z" fill="#010101"/>
<path d="M56.171 20.9218C56.171 20.9218 53.9121 22.1873 51.8525 31.4679C49.7928 40.7485 56.4663 43.6644 56.4663 43.6644C56.4663 43.6644 48.656 45.818 47.4084 35.5087C46.1608 25.1995 50.3982 19.227 52.7088 18.3685C55.0194 17.51 56.1784 20.9218 56.1784 20.9218H56.171Z" fill="#F0C755"/>
<path d="M38.4021 19.8267C38.4021 19.8267 33.6554 21.2921 33.2198 42.4657C33.2198 42.4657 30.6951 41.0226 31.0052 31.594C31.3226 22.1654 34.0023 20.6852 35.5895 19.8267C37.1693 18.9608 38.3947 19.8267 38.3947 19.8267H38.4021Z" fill="#F0C755"/>
</g>
<defs>
<clipPath id="clip0_1011_6708">
<rect width="78" height="149" fill="white" transform="matrix(-1 0 0 1 78 0)"/>
</clipPath>
</defs>
</svg>
