<svg width="18" height="20" viewBox="0 0 18 20" fill="none" xmlns="http://www.w3.org/2000/svg">
<path d="M8.99998 9.3849C9.85196 9.3849 10.6848 9.13226 11.3932 8.65893C12.1016 8.18559 12.6537 7.51282 12.9798 6.7257C13.3058 5.93857 13.3911 5.07244 13.2249 4.23683C13.0587 3.40122 12.6484 2.63367 12.046 2.03122C11.4435 1.42878 10.676 1.01852 9.84037 0.852304C9.00476 0.686091 8.13863 0.771398 7.3515 1.09744C6.56438 1.42347 5.89161 1.9756 5.41827 2.684C4.94494 3.39239 4.6923 4.22524 4.6923 5.07722C4.6923 6.21969 5.14614 7.31536 5.95399 8.12321C6.76184 8.93106 7.85751 9.3849 8.99998 9.3849ZM8.99998 2.0003C9.60854 2.0003 10.2034 2.18076 10.7094 2.51885C11.2154 2.85695 11.6098 3.3375 11.8427 3.89973C12.0756 4.46197 12.1365 5.08063 12.0178 5.67749C11.8991 6.27436 11.606 6.82261 11.1757 7.25293C10.7454 7.68324 10.1971 7.97629 9.60026 8.09501C9.0034 8.21374 8.38473 8.1528 7.8225 7.91992C7.26026 7.68703 6.77971 7.29266 6.44162 6.78666C6.10352 6.28066 5.92306 5.68577 5.92306 5.07722C5.92306 4.26117 6.24724 3.47854 6.82427 2.90151C7.40131 2.32447 8.18393 2.0003 8.99998 2.0003Z" fill="#666666"/>
<path d="M16.6738 13.9203C15.6869 12.8772 14.4977 12.0464 13.1788 11.4786C11.8599 10.9108 10.439 10.6179 9.00306 10.6179C7.56712 10.6179 6.14626 10.9108 4.82735 11.4786C3.50844 12.0464 2.31919 12.8772 1.33231 13.9203C1.11835 14.1488 0.999516 14.4503 1 14.7634V18.0003C1 18.3267 1.12967 18.6397 1.36048 18.8706C1.5913 19.1014 1.90435 19.231 2.23077 19.231H15.7692C16.0956 19.231 16.4087 19.1014 16.6395 18.8706C16.8703 18.6397 17 18.3267 17 18.0003V14.7634C17.0021 14.4511 16.8855 14.1498 16.6738 13.9203ZM15.7692 18.0003H2.23077V14.7572C3.10291 13.8389 4.15279 13.1076 5.31652 12.6078C6.48025 12.1081 7.7335 11.8504 8.99999 11.8504C10.2665 11.8504 11.5197 12.1081 12.6835 12.6078C13.8472 13.1076 14.8971 13.8389 15.7692 14.7572V18.0003Z" fill="#666666"/>
<path d="M8.99998 9.3849C9.85196 9.3849 10.6848 9.13226 11.3932 8.65893C12.1016 8.18559 12.6537 7.51282 12.9798 6.7257C13.3058 5.93857 13.3911 5.07244 13.2249 4.23683C13.0587 3.40122 12.6484 2.63367 12.046 2.03122C11.4435 1.42878 10.676 1.01852 9.84037 0.852304C9.00476 0.686091 8.13863 0.771398 7.3515 1.09744C6.56438 1.42347 5.89161 1.9756 5.41827 2.684C4.94494 3.39239 4.6923 4.22524 4.6923 5.07722C4.6923 6.21969 5.14614 7.31536 5.95399 8.12321C6.76184 8.93106 7.85751 9.3849 8.99998 9.3849ZM8.99998 2.0003C9.60854 2.0003 10.2034 2.18076 10.7094 2.51885C11.2154 2.85695 11.6098 3.3375 11.8427 3.89973C12.0756 4.46197 12.1365 5.08063 12.0178 5.67749C11.8991 6.27436 11.606 6.82261 11.1757 7.25293C10.7454 7.68324 10.1971 7.97629 9.60026 8.09501C9.0034 8.21374 8.38473 8.1528 7.8225 7.91992C7.26026 7.68703 6.77971 7.29266 6.44162 6.78666C6.10352 6.28066 5.92306 5.68577 5.92306 5.07722C5.92306 4.26117 6.24724 3.47854 6.82427 2.90151C7.40131 2.32447 8.18393 2.0003 8.99998 2.0003Z" stroke="#216869" stroke-width="0.6"/>
<path d="M16.6738 13.9203C15.6869 12.8772 14.4977 12.0464 13.1788 11.4786C11.8599 10.9108 10.439 10.6179 9.00306 10.6179C7.56712 10.6179 6.14626 10.9108 4.82735 11.4786C3.50844 12.0464 2.31919 12.8772 1.33231 13.9203C1.11835 14.1488 0.999516 14.4503 1 14.7634V18.0003C1 18.3267 1.12967 18.6397 1.36048 18.8706C1.5913 19.1014 1.90435 19.231 2.23077 19.231H15.7692C16.0956 19.231 16.4087 19.1014 16.6395 18.8706C16.8703 18.6397 17 18.3267 17 18.0003V14.7634C17.0021 14.4511 16.8855 14.1498 16.6738 13.9203ZM15.7692 18.0003H2.23077V14.7572C3.10291 13.8389 4.15279 13.1076 5.31652 12.6078C6.48025 12.1081 7.7335 11.8504 8.99999 11.8504C10.2665 11.8504 11.5197 12.1081 12.6835 12.6078C13.8472 13.1076 14.8971 13.8389 15.7692 14.7572V18.0003Z" stroke="#216869" stroke-width="0.6"/>
</svg>
