<svg width="23" height="18" viewBox="0 0 23 18" fill="none" xmlns="http://www.w3.org/2000/svg">
<path d="M15.0764 8.5228C14.1058 8.5228 13.173 8.07729 12.438 7.27344C11.7266 6.48895 11.2884 5.43813 11.213 4.31951C11.133 3.12826 11.4863 2.02901 12.2071 1.23C12.928 0.435825 13.9456 0 15.0764 0C16.1977 0 17.2153 0.440668 17.9362 1.23484C18.6664 2.03869 19.0198 3.1331 18.935 4.31467C18.8549 5.43329 18.4214 6.48411 17.71 7.2686C16.9798 8.07729 16.0469 8.5228 15.0764 8.5228ZM15.0764 1.5496C14.3697 1.5496 13.7431 1.8111 13.3143 2.28566C12.8714 2.77475 12.6689 3.43818 12.7207 4.20813C12.7725 4.97325 13.0646 5.68994 13.5452 6.21777C13.988 6.70687 14.5346 6.9732 15.0764 6.9732C15.6229 6.9732 16.1647 6.70202 16.6076 6.21777C17.0881 5.68994 17.3802 4.97809 17.432 4.20813C17.4839 3.46239 17.2719 2.7796 16.829 2.29535C16.4003 1.8111 15.7736 1.5496 15.0764 1.5496Z" fill="#16559F"/>
<path d="M21.2859 17.0457H8.86681C8.45692 17.0457 8.08001 16.8568 7.83031 16.5276C7.57119 16.1837 7.47696 15.7189 7.58061 15.2782C7.97636 13.6414 8.96103 12.2855 10.4216 11.3509C11.7172 10.5228 13.3709 10.0677 15.0717 10.0677C16.8054 10.0677 18.4167 10.5035 19.7218 11.3315C21.187 12.2565 22.1717 13.6221 22.5674 15.2782C22.6711 15.7189 22.5769 16.1837 22.3177 16.5276C22.0727 16.8568 21.6958 17.0457 21.2859 17.0457ZM9.08824 15.4961H21.0692C20.2918 12.639 17.3755 11.6221 15.0764 11.6221C12.7867 11.6221 9.87504 12.639 9.08824 15.4961Z" fill="#16559F"/>
<path d="M6.1719 8.71641C4.5135 8.71641 3.05769 7.13291 2.92106 5.18622C2.85039 4.18867 3.15192 3.26859 3.7644 2.59064C4.37216 1.92238 5.22492 1.55435 6.16719 1.55435C7.10475 1.55435 7.9575 1.92722 8.56527 2.60033C9.18245 3.28312 9.48398 4.20319 9.41331 5.19106C9.2861 7.13291 7.82558 8.71641 6.1719 8.71641ZM6.1719 3.0991C5.65365 3.0991 5.19194 3.2928 4.87156 3.64631C4.54177 4.00949 4.38629 4.50343 4.4287 5.07485C4.50879 6.20799 5.30501 7.16681 6.1719 7.16681C7.03879 7.16681 7.83972 6.20799 7.9151 5.07485C7.95279 4.51796 7.7926 4.01434 7.46752 3.65115C7.14715 3.2928 6.68544 3.0991 6.1719 3.0991Z" fill="#16559F"/>
<path d="M6.50171 15.4959H1.21085C0.838657 15.4959 0.494728 15.3216 0.263872 15.0262C0.0283042 14.7163 -0.0565003 14.2901 0.0377268 13.893C0.36281 12.542 1.17316 11.4282 2.37456 10.6631C3.43461 9.98999 4.78206 9.61712 6.1672 9.61712C7.35446 9.61712 8.3674 9.8205 9.26256 10.2418C9.63947 10.421 9.80908 10.881 9.63476 11.2684C9.46044 11.6558 9.01286 11.8301 8.63595 11.651C7.94338 11.3265 7.13774 11.1667 6.17191 11.1667C4.45227 11.1667 2.28033 11.9028 1.59247 13.9512H6.50171C6.9163 13.9512 7.25552 14.2998 7.25552 14.726C7.25552 15.1521 6.9163 15.4959 6.50171 15.4959Z" fill="#16559F"/>
</svg>
