<svg width="18" height="24" viewBox="0 0 18 24" fill="none" xmlns="http://www.w3.org/2000/svg">
<path d="M6.13132 23.25C6.07976 23.25 6.0282 23.2453 5.98132 23.2359C5.75632 23.1984 5.55945 23.0719 5.4282 22.8844C5.29695 22.6969 5.24538 22.4672 5.28757 22.2422L6.60007 15H1.50007C1.20945 15 0.946946 14.8359 0.825071 14.5734C0.698509 14.3109 0.736009 14.0016 0.918821 13.7766L11.1891 1.08281C11.3532 0.876563 11.6016 0.75 11.8688 0.75C11.9016 0.75 11.9438 0.75 11.9766 0.754688C12.2063 0.782813 12.4079 0.9 12.5532 1.08281C12.6938 1.26562 12.7594 1.49063 12.7313 1.72031C12.7313 1.73438 12.7266 1.74844 12.7266 1.7625L11.4001 9H16.5001C16.7907 9 17.0532 9.16406 17.1751 9.42656C17.3016 9.68906 17.2641 9.99844 17.0813 10.2234L6.81101 22.9219C6.64695 23.1281 6.39382 23.25 6.13132 23.25ZM3.07038 13.5H7.50007C7.72038 13.5 7.93132 13.5984 8.07663 13.7672C8.21726 13.9359 8.2782 14.1609 8.2407 14.3812L7.20945 20.0391L14.9298 10.5H10.5001C10.2798 10.5 10.0688 10.4016 9.92351 10.2281C9.78288 10.0594 9.72195 9.82969 9.75945 9.61406L10.7954 3.95156L3.07038 13.5Z" fill="#16559F"/>
</svg>
