<svg width="24" height="25" viewBox="0 0 24 25" fill="none" xmlns="http://www.w3.org/2000/svg">
<path d="M21.75 18.9946C21.54 18.9944 21.3324 18.9502 21.1406 18.8647C21.096 18.8449 21.0535 18.8207 21.0136 18.7925L17.1366 16.0635C16.9399 15.9251 16.7795 15.7414 16.6687 15.528C16.5579 15.3146 16.5001 15.0777 16.5 14.8372V11.1154C16.5001 10.8749 16.5579 10.638 16.6687 10.4246C16.7795 10.2112 16.9399 10.0275 17.1366 9.8891L21.0136 7.16004C21.0535 7.13184 21.096 7.10766 21.1406 7.08785C21.369 6.98632 21.6191 6.94346 21.8683 6.96317C22.1174 6.98288 22.3577 7.06453 22.5673 7.2007C22.7769 7.33688 22.9491 7.52326 23.0683 7.74292C23.1875 7.96258 23.25 8.20855 23.25 8.45848V17.4941C23.25 17.8919 23.092 18.2735 22.8107 18.5548C22.5294 18.8361 22.1478 18.9941 21.75 18.9941V18.9946Z" fill="#216869"/>
<path d="M12.5625 19.7261H3.9375C3.09239 19.7252 2.28214 19.3891 1.68456 18.7915C1.08697 18.1939 0.750869 17.3837 0.75 16.5386V9.41357C0.750869 8.56846 1.08697 7.75821 1.68456 7.16063C2.28214 6.56305 3.09239 6.22694 3.9375 6.22607H12.585C13.4241 6.22707 14.2286 6.56084 14.8219 7.15418C15.4152 7.74751 15.749 8.55197 15.75 9.39107V16.5386C15.7491 17.3837 15.413 18.1939 14.8154 18.7915C14.2179 19.3891 13.4076 19.7252 12.5625 19.7261Z" fill="#216869"/>
</svg>
