<svg width="20" height="24" viewBox="0 0 20 24" fill="none" xmlns="http://www.w3.org/2000/svg">
<path d="M4.27182 16.936C3.21245 16.936 2.34995 16.5516 1.70307 15.7922C1.05151 15.0235 0.634321 13.9032 0.385884 12.2625C0.0202587 9.8438 0.381196 7.80474 1.40307 6.52036C2.00307 5.76568 2.79057 5.32974 3.6812 5.25474C4.44057 5.1938 5.57963 5.50317 6.6812 7.31724C7.37026 8.45161 7.89526 9.96099 8.12026 11.4563C8.39213 13.261 8.19057 14.5922 7.50151 15.5204C6.95776 16.2563 6.1187 16.7157 5.00776 16.8797C4.74995 16.9172 4.5062 16.936 4.27182 16.936ZM3.84995 6.75005C3.8312 6.75005 3.81713 6.75005 3.80307 6.75005C3.32963 6.78755 2.92182 7.02192 2.57963 7.45317C1.83432 8.39067 1.57651 10.0641 1.87182 12.0375C2.33588 15.1125 3.37182 15.6047 4.78745 15.3938C5.49995 15.2907 5.99213 15.0375 6.29682 14.625C6.72807 14.0438 6.84057 13.05 6.63901 11.6766C6.44682 10.3875 5.98276 9.04692 5.40151 8.09067C4.8812 7.24692 4.30932 6.75005 3.84995 6.75005Z" fill="#16559F"/>
<path d="M6.11405 23.25C5.4953 23.25 4.86718 23.0531 4.29999 22.6688C3.48905 22.1203 2.91718 21.2578 2.72968 20.2969C2.59843 19.6078 2.67811 19.0641 2.97343 18.6281C3.45624 17.9203 4.32811 17.7563 5.24686 17.5875C5.3453 17.5688 5.44374 17.55 5.54218 17.5313C5.75311 17.4891 5.96874 17.4375 6.17968 17.386C6.96718 17.1938 7.77811 16.9922 8.45311 17.4656C8.90311 17.7844 9.15624 18.3281 9.23124 19.1203C9.31562 20.0391 9.11874 20.9531 8.67811 21.6985C8.19999 22.5 7.4828 23.0297 6.66249 23.1938C6.47968 23.2313 6.29686 23.25 6.11405 23.25ZM7.46405 18.675C7.23905 18.675 6.79843 18.7828 6.54061 18.8485C6.31093 18.9047 6.07655 18.9656 5.82343 19.0125C5.7203 19.0313 5.61718 19.05 5.51874 19.0688C4.9703 19.1719 4.34687 19.2844 4.21562 19.4766C4.15936 19.561 4.15468 19.7625 4.20624 20.0156C4.31874 20.5875 4.66093 21.1031 5.14374 21.4313C5.53749 21.6985 5.98749 21.8063 6.37655 21.7313C7.23905 21.5625 7.85312 20.4563 7.74061 19.2703C7.69843 18.8016 7.58593 18.6985 7.58593 18.6985C7.5578 18.6797 7.51561 18.675 7.46405 18.675Z" fill="#16559F"/>
<path d="M15.7282 12.436C15.4938 12.436 15.25 12.4173 14.9969 12.3798C13.886 12.2157 13.0469 11.761 12.5032 11.0204C11.8141 10.0923 11.6125 8.7657 11.8844 6.95633C12.1094 5.46101 12.6297 3.95164 13.3188 2.82195C14.411 1.01258 15.5547 0.698514 16.3188 0.754764C17.2047 0.820389 17.9922 1.25164 18.5922 2.00164C19.6188 3.28601 19.9797 5.32976 19.6188 7.75789C19.3703 9.39851 18.9532 10.5188 18.3016 11.2876C17.6453 12.0516 16.7875 12.436 15.7282 12.436ZM13.3657 7.18133C13.1594 8.55476 13.2719 9.54383 13.7078 10.1298C14.0125 10.5423 14.5047 10.7907 15.2172 10.8985C16.6328 11.1095 17.6688 10.6173 18.1328 7.54226C18.4328 5.55945 18.1703 3.88133 17.4203 2.94383C17.0828 2.52195 16.675 2.29226 16.211 2.25476C15.7375 2.22195 15.1375 2.72351 14.6032 3.60008C14.0219 4.55164 13.5625 5.89226 13.3657 7.18133Z" fill="#16559F"/>
<path d="M13.8859 18.7501C13.703 18.7501 13.5202 18.7313 13.3374 18.6985C12.5124 18.5391 11.7999 18.0048 11.3218 17.2032C10.8765 16.4579 10.6796 15.5438 10.7687 14.6251C10.8437 13.8282 11.0968 13.2891 11.5468 12.9704C12.2171 12.4923 13.0327 12.6938 13.8202 12.8907C14.0312 12.9423 14.2468 12.9938 14.4577 13.036C14.5562 13.0548 14.6593 13.0735 14.753 13.0923C15.6718 13.261 16.539 13.4204 17.0265 14.1329C17.3265 14.5688 17.4062 15.1173 17.2702 15.8016C17.0827 16.7626 16.5109 17.6251 15.6999 18.1735C15.1374 18.5532 14.5093 18.7501 13.8859 18.7501ZM12.264 14.7657C12.1515 15.9516 12.7655 17.0532 13.628 17.2266C14.0171 17.3016 14.4671 17.1938 14.8609 16.9266C15.3437 16.5985 15.6859 16.0829 15.7984 15.511C15.8499 15.2579 15.8452 15.0563 15.789 14.972C15.6577 14.7798 15.0343 14.6626 14.4859 14.5641C14.3874 14.5454 14.2843 14.5266 14.1812 14.5079C13.9327 14.461 13.6937 14.4001 13.464 14.3438C13.1405 14.2641 12.5452 14.1188 12.4187 14.1938C12.414 14.1938 12.3062 14.297 12.264 14.7657Z" fill="#16559F"/>
</svg>
