<svg width="22" height="21" viewBox="0 0 22 21" fill="none" xmlns="http://www.w3.org/2000/svg">
<path fill-rule="evenodd" clip-rule="evenodd" d="M2.17018 0.613089C2.08995 0.525731 1.9386 0.388674 1.71014 0.334762C1.44123 0.271304 1.19153 0.351497 1.01271 0.492297C0.860629 0.612039 0.776574 0.759676 0.73201 0.85281C0.683296 0.954619 0.650177 1.059 0.626372 1.15157C0.536173 1.50232 0.501561 2.00305 0.500512 2.55993C0.498355 3.70598 0.640582 5.35054 0.968433 7.16194C1.61606 10.7401 3.03247 15.2185 5.71751 17.7395L5.71776 17.7397C7.69225 19.5918 10.2056 20.4181 12.4953 20.3272C14.703 20.2396 16.7978 19.2872 17.9389 17.4536C18.8191 17.6893 19.7319 17.8821 20.6828 18.0324C21.0922 18.0971 21.4751 17.8085 21.5381 17.3878C21.6011 16.967 21.3203 16.5735 20.9109 16.5087C20.1181 16.3834 19.3538 16.2271 18.6141 16.0393C19.8809 12.4935 18.4621 8.24406 14.4955 5.61112C12.5709 4.33341 10.5942 3.99386 8.7956 3.68489C8.49935 3.634 8.20789 3.58393 7.92233 3.53064C5.8881 3.15105 4.00118 2.60552 2.17031 0.613222L2.17018 0.613089ZM17.1627 15.6202C18.2197 12.811 17.1979 9.24009 13.6816 6.9061L13.6816 6.90606C12.0367 5.81404 10.3901 5.52751 8.58909 5.21411C8.28225 5.16071 7.97093 5.10654 7.65436 5.04746C5.80048 4.70153 3.87164 4.18875 2.0005 2.56833C1.99902 3.601 2.12935 5.14631 2.44314 6.88001C3.07986 10.398 4.42666 14.4393 6.72897 16.601L6.72904 16.6011L6.72921 16.6013C8.4011 18.1694 10.5259 18.8626 12.4374 18.7868C14.1165 18.7201 15.5542 18.0701 16.4143 16.9917C12.7388 15.7439 9.61851 13.6765 6.59509 10.7499C6.29357 10.458 6.27935 9.97016 6.56335 9.66027C6.84735 9.35037 7.32201 9.33577 7.62354 9.62764C10.5799 12.4894 13.5932 14.4604 17.1627 15.6202Z" fill="#16559F"/>
</svg>
